SplineFontDB: 3.2
FontName: Readerly-BoldItalic
FullName: Readerly Bold Italic
FamilyName: Readerly
Weight: Bold
Copyright: Copyright 2020 The Newsreader Project Authors (http://github.com/productiontype/Newsreader)
Version: 1.003
ItalicAngle: -17
UnderlinePosition: -303
UnderlineWidth: 96
Ascent: 1470
Descent: 530
InvalidEm: 0
sfntRevision: 0x000100c5
LayerCount: 2
Layer: 0 1 "Back" 1
Layer: 1 1 "Fore" 0
XUID: [1021 301 -1444420827 12713742]
StyleMap: 0x0001
FSType: 0
OS2Version: 4
OS2_WeightWidthSlopeOnly: 0
OS2_UseTypoMetrics: 1
CreationTime: 1606394406
ModificationTime: 1772410165
PfmFamily: 17
TTFWeight: 550
TTFWidth: 5
LineGap: 0
VLineGap: 0
Panose: 2 0 0 0 0 0 0 0 0 0
OS2TypoAscent: 1470
OS2TypoAOffset: 0
OS2TypoDescent: -530
OS2TypoDOffset: 0
OS2TypoLinegap: 0
OS2WinAscent: 2326
OS2WinAOffset: 0
OS2WinDescent: 531
OS2WinDOffset: 0
HheadAscent: 1470
HheadAOffset: 0
HheadDescent: -530
HheadDOffset: 0
OS2SubXSize: 1300
OS2SubYSize: 1200
OS2SubXOff: -46
OS2SubYOff: 150
OS2SupXSize: 1300
OS2SupYSize: 1200
OS2SupXOff: 214
OS2SupYOff: 700
OS2StrikeYSize: 130
OS2StrikeYPos: 501
OS2CapHeight: 1340
OS2XHeight: 852
OS2Vendor: 'PROD'
OS2CodePages: 20000193.00000000
OS2UnicodeRanges: 00000047.00000001.00000000.00000000
Lookup: 1 0 0 "'locl' Localized Forms in Latin lookup 0" { "'locl' Localized Forms in Latin lookup 0 subtable"  } ['locl' ('latn' <'MOL ' > ) ]
Lookup: 1 0 0 "'locl' Localized Forms in Latin lookup 1" { "'locl' Localized Forms in Latin lookup 1 subtable"  } ['locl' ('latn' <'ROM ' > ) ]
Lookup: 6 0 0 "'ordn' Ordinals in Latin lookup 2" { "'ordn' Ordinals in Latin lookup 2 contextual 0"  "'ordn' Ordinals in Latin lookup 2 contextual 1"  } ['ordn' ('DFLT' <'dflt' > 'latn' <'MOL ' 'ROM ' 'dflt' > ) ]
Lookup: 1 0 0 "Single Substitution lookup 3" { "Single Substitution lookup 3 subtable"  } []
Lookup: 4 0 0 "'ordn' Ordinals in Latin lookup 4" { "'ordn' Ordinals in Latin lookup 4 subtable"  } ['ordn' ('DFLT' <'dflt' > 'latn' <'MOL ' 'ROM ' 'dflt' > ) ]

StartChar: .notdef
Encoding: 65536 -1 0
Width: 1000
GlyphClass: 1
Flags: W
LayerCount: 2
Fore
SplineSet
100 -481 m 1,0,-1
 100 1519 l 1,1,-1
 900 1519 l 1,2,-1
 900 -481 l 1,3,-1
 100 -481 l 1,0,-1
200 -381 m 1,4,-1
 800 -381 l 1,5,-1
 800 1419 l 1,6,-1
 200 1419 l 1,7,-1
 200 -381 l 1,4,-1
EndSplineSet
EndChar

StartChar: A
Encoding: 65 65 5
Width: 1586
GlyphClass: 2
Flags: W
AnchorPoint: "Anchor-4" 613 0 basechar 0
AnchorPoint: "Anchor-3" 1293 0 basechar 0
LayerCount: 2
Fore
SplineSet
389 455 m 1,0,-1
 439 606 l 1,1,-1
 1118 606 l 1,2,-1
 1067 455 l 1,3,-1
 389 455 l 1,0,-1
1317 137 m 1,4,-1
 1472 87 l 1,5,-1
 1445 0 l 1,6,-1
 826 0 l 1,7,-1
 853 87 l 1,8,-1
 1035 136 l 1,9,-1
 944 1282 l 1,10,-1
 991 1285 l 1,11,-1
 256 135 l 1,12,-1
 408 87 l 1,13,-1
 381 0 l 1,14,-1
 -129 0 l 1,15,-1
 -102 87 l 1,16,-1
 64 135 l 1,17,-1
 902 1409 l 1,18,-1
 1199 1409 l 1,19,-1
 1317 137 l 1,4,-1
EndSplineSet
Substitution2: "Single Substitution lookup 3 subtable" ordfeminine
EndChar

StartChar: B
Encoding: 66 66 6
Width: 1461
GlyphClass: 2
Flags: W
AnchorPoint: "Anchor-4" 621 0 basechar 0
LayerCount: 2
Fore
SplineSet
658 1240 m 1,0,-1
 709 1396 l 1,1,-1
 1065 1396 l 2,2,3
 1206 1396 1206 1396 1289.5 1359.5 c 128,-1,4
 1373 1323 1373 1323 1410 1260 c 128,-1,5
 1447 1197 1447 1197 1447 1117 c 0,6,7
 1447 1001 1447 1001 1395 918 c 128,-1,8
 1343 835 1343 835 1245 789.5 c 128,-1,9
 1147 744 1147 744 1009 738 c 1,10,-1
 1015 756 l 1,11,12
 1182 746 1182 746 1258 671.5 c 128,-1,13
 1334 597 1334 597 1334 473 c 0,14,15
 1334 336 1334 336 1269.5 229.5 c 128,-1,16
 1205 123 1205 123 1076.5 61.5 c 128,-1,17
 948 0 948 0 755 0 c 2,18,-1
 283 0 l 1,19,-1
 330 161 l 1,20,-1
 713 161 l 2,21,22
 826 161 826 161 901 202 c 128,-1,23
 976 243 976 243 1014 318 c 128,-1,24
 1052 393 1052 393 1052 495 c 0,25,26
 1052 572 1052 572 1005.5 617.5 c 128,-1,27
 959 663 959 663 849 663 c 2,28,-1
 479 663 l 1,29,-1
 531 814 l 1,30,-1
 903 814 l 2,31,32
 992 814 992 814 1051.5 851 c 128,-1,33
 1111 888 1111 888 1141 951.5 c 128,-1,34
 1171 1015 1171 1015 1171 1093 c 0,35,36
 1171 1141 1171 1141 1151 1173.5 c 128,-1,37
 1131 1206 1131 1206 1088 1223 c 128,-1,38
 1045 1240 1045 1240 979 1240 c 2,39,-1
 658 1240 l 1,0,-1
502 1259 m 1,40,-1
 340 1308 l 1,41,-1
 367 1396 l 1,42,-1
 825 1396 l 1,43,-1
 398 0 l 1,44,-1
 -47 0 l 1,45,-1
 -21 87 l 1,46,-1
 158 138 l 1,47,-1
 502 1259 l 1,40,-1
EndSplineSet
EndChar

StartChar: C
Encoding: 67 67 7
Width: 1495
GlyphClass: 2
Flags: W
AnchorPoint: "Anchor-4" 737 0 basechar 0
AnchorPoint: "Anchor-3" 1266 0 basechar 0
LayerCount: 2
Fore
SplineSet
1176 196 m 1,0,-1
 996 88 l 1,1,-1
 1262 435 l 1,2,-1
 1397 435 l 1,3,-1
 1243 48 l 1,4,5
 1154 16 1154 16 1039.5 -3.5 c 128,-1,6
 925 -23 925 -23 792 -23 c 0,7,8
 578 -23 578 -23 437.5 46 c 128,-1,9
 297 115 297 115 228.5 241.5 c 128,-1,10
 160 368 160 368 160 538 c 0,11,12
 160 690 160 690 200.5 824 c 128,-1,13
 241 958 241 958 321 1067 c 128,-1,14
 401 1176 401 1176 517.5 1255 c 128,-1,15
 634 1334 634 1334 786.5 1376.5 c 128,-1,16
 939 1419 939 1419 1125 1419 c 0,17,18
 1193 1419 1193 1419 1254 1412 c 128,-1,19
 1315 1405 1315 1405 1370.5 1392 c 128,-1,20
 1426 1379 1426 1379 1477 1359 c 1,21,-1
 1360 1353 l 1,22,-1
 1501 1471 l 1,23,-1
 1600 1471 l 1,24,-1
 1487 935 l 1,25,-1
 1352 935 l 1,26,-1
 1325 1283 l 1,27,-1
 1379 1176 l 1,28,29
 1318 1218 1318 1218 1249 1234.5 c 128,-1,30
 1180 1251 1180 1251 1096 1251 c 0,31,32
 967 1251 967 1251 862.5 1217.5 c 128,-1,33
 758 1184 758 1184 680 1122 c 128,-1,34
 602 1060 602 1060 549.5 973.5 c 128,-1,35
 497 887 497 887 471 781.5 c 128,-1,36
 445 676 445 676 445 556 c 0,37,38
 445 415 445 415 494.5 322 c 128,-1,39
 544 229 544 229 637.5 183 c 128,-1,40
 731 137 731 137 862 137 c 0,41,42
 934 137 934 137 1015.5 152.5 c 128,-1,43
 1097 168 1097 168 1176 196 c 1,0,-1
EndSplineSet
EndChar

StartChar: D
Encoding: 68 68 8
Width: 1616
GlyphClass: 2
Flags: W
AnchorPoint: "Anchor-4" 712 0 basechar 0
LayerCount: 2
Fore
SplineSet
642 155 m 2,0,1
 771 155 771 155 875 194 c 128,-1,2
 979 233 979 233 1058.5 302.5 c 128,-1,3
 1138 372 1138 372 1191.5 466 c 128,-1,4
 1245 560 1245 560 1272.5 671.5 c 128,-1,5
 1300 783 1300 783 1300 904 c 0,6,7
 1300 1010 1300 1010 1260 1085.5 c 128,-1,8
 1220 1161 1220 1161 1134.5 1200.5 c 128,-1,9
 1049 1240 1049 1240 909 1240 c 2,10,-1
 635 1240 l 1,11,-1
 669 1396 l 1,12,-1
 946 1396 l 2,13,14
 1179 1396 1179 1396 1319 1335 c 128,-1,15
 1459 1274 1459 1274 1521.5 1160 c 128,-1,16
 1584 1046 1584 1046 1584 888 c 0,17,18
 1584 688 1584 688 1519.5 525 c 128,-1,19
 1455 362 1455 362 1333 244.5 c 128,-1,20
 1211 127 1211 127 1035.5 63.5 c 128,-1,21
 860 0 860 0 638 0 c 2,22,-1
 242 0 l 1,23,-1
 306 155 l 1,24,-1
 642 155 l 2,0,1
502 1260 m 1,25,-1
 340 1309 l 1,26,-1
 366 1396 l 1,27,-1
 825 1396 l 1,28,-1
 398 0 l 1,29,-1
 -47 0 l 1,30,-1
 -20 87 l 1,31,-1
 158 137 l 1,32,-1
 502 1260 l 1,25,-1
EndSplineSet
EndChar

StartChar: E
Encoding: 69 69 9
Width: 1442
GlyphClass: 2
Flags: W
AnchorPoint: "Anchor-4" 599 0 basechar 0
AnchorPoint: "Anchor-3" 1055 0 basechar 0
LayerCount: 2
Fore
SplineSet
502 1260 m 1,0,-1
 340 1309 l 1,1,-1
 366 1396 l 1,2,-1
 825 1396 l 1,3,-1
 398 0 l 1,4,-1
 -47 0 l 1,5,-1
 -20 87 l 1,6,-1
 158 137 l 1,7,-1
 502 1260 l 1,0,-1
1321 1321 m 1,8,-1
 1366 1240 l 1,9,-1
 628 1240 l 1,10,-1
 676 1396 l 1,11,-1
 1361 1396 l 1,12,-1
 1478 1469 l 1,13,-1
 1570 1469 l 1,14,-1
 1455 1007 l 1,15,-1
 1327 1007 l 1,16,-1
 1321 1321 l 1,8,-1
993 -78 m 1,17,-1
 941 0 l 1,18,-1
 250 0 l 1,19,-1
 299 155 l 1,20,-1
 1042 155 l 1,21,-1
 902 77 l 1,22,-1
 1240 434 l 1,23,-1
 1365 429 l 1,24,-1
 1098 -78 l 1,25,-1
 993 -78 l 1,17,-1
999 470 m 1,26,-1
 874 470 l 1,27,-1
 913 655 l 1,28,-1
 450 655 l 1,29,-1
 496 802 l 1,30,-1
 958 802 l 1,31,-1
 1031 984 l 1,32,-1
 1156 984 l 1,33,-1
 1077 727 l 1,34,-1
 999 470 l 1,26,-1
EndSplineSet
EndChar

StartChar: F
Encoding: 70 70 10
Width: 1335
GlyphClass: 2
Flags: W
AnchorPoint: "Anchor-4" 258 0 basechar 0
LayerCount: 2
Fore
SplineSet
1124 915 m 1,0,-1
 1045 658 l 1,1,-1
 967 402 l 1,2,-1
 842 402 l 1,3,-1
 881 586 l 1,4,-1
 418 586 l 1,5,-1
 464 734 l 1,6,-1
 926 734 l 1,7,-1
 999 915 l 1,8,-1
 1124 915 l 1,0,-1
1423 984 m 1,9,-1
 1296 984 l 1,10,-1
 1294 1316 l 1,11,-1
 1339 1240 l 1,12,-1
 626 1240 l 1,13,-1
 675 1396 l 1,14,-1
 1335 1396 l 1,15,-1
 1452 1469 l 1,16,-1
 1543 1469 l 1,17,-1
 1423 984 l 1,9,-1
439 135 m 1,18,-1
 601 87 l 1,19,-1
 575 0 l 1,20,-1
 -47 0 l 1,21,-1
 -20 87 l 1,22,-1
 158 137 l 1,23,-1
 502 1260 l 1,24,-1
 340 1309 l 1,25,-1
 366 1396 l 1,26,-1
 825 1396 l 1,27,-1
 439 135 l 1,18,-1
EndSplineSet
EndChar

StartChar: G
Encoding: 71 71 11
Width: 1635
GlyphClass: 2
Flags: W
AnchorPoint: "Anchor-4" 761 0 basechar 0
LayerCount: 2
Fore
SplineSet
861 137 m 0,0,1
 905 137 905 137 955 144.5 c 128,-1,2
 1005 152 1005 152 1057.5 168 c 128,-1,3
 1110 184 1110 184 1160 210 c 1,4,-1
 1021 88 l 1,5,-1
 1153 522 l 1,6,-1
 966 570 l 1,7,-1
 992 657 l 1,8,-1
 1613 657 l 1,9,-1
 1587 570 l 1,10,-1
 1434 520 l 1,11,-1
 1338 206 l 1,12,-1
 1442 180 l 1,13,-1
 1409 88 l 1,14,15
 1322 53 1322 53 1227.5 28 c 128,-1,16
 1133 3 1133 3 1032.5 -10 c 128,-1,17
 932 -23 932 -23 823 -23 c 0,18,19
 593 -23 593 -23 446.5 46 c 128,-1,20
 300 115 300 115 230 241 c 128,-1,21
 160 367 160 367 160 536 c 0,22,23
 160 690 160 690 201 824.5 c 128,-1,24
 242 959 242 959 322.5 1068.5 c 128,-1,25
 403 1178 403 1178 520 1256 c 128,-1,26
 637 1334 637 1334 788.5 1376.5 c 128,-1,27
 940 1419 940 1419 1123 1419 c 0,28,29
 1195 1419 1195 1419 1258.5 1412.5 c 128,-1,30
 1322 1406 1322 1406 1380 1392.5 c 128,-1,31
 1438 1379 1438 1379 1491 1359 c 1,32,-1
 1383 1353 l 1,33,-1
 1524 1471 l 1,34,-1
 1623 1471 l 1,35,-1
 1510 935 l 1,36,-1
 1375 935 l 1,37,-1
 1348 1283 l 1,38,-1
 1393 1176 l 1,39,40
 1329 1220 1329 1220 1254 1235.5 c 128,-1,41
 1179 1251 1179 1251 1089 1251 c 0,42,43
 960 1251 960 1251 857.5 1218 c 128,-1,44
 755 1185 755 1185 677.5 1123.5 c 128,-1,45
 600 1062 600 1062 548 976.5 c 128,-1,46
 496 891 496 891 470 787.5 c 128,-1,47
 444 684 444 684 444 566 c 0,48,49
 444 420 444 420 494 324.5 c 128,-1,50
 544 229 544 229 638 183 c 128,-1,51
 732 137 732 137 861 137 c 0,0,1
EndSplineSet
EndChar

StartChar: H
Encoding: 72 72 12
Width: 1732
GlyphClass: 2
Flags: W
AnchorPoint: "Anchor-4" 739 0 basechar 0
LayerCount: 2
Fore
SplineSet
438 634 m 1,0,-1
 483 789 l 1,1,-1
 1425 789 l 1,2,-1
 1382 634 l 1,3,-1
 438 634 l 1,0,-1
502 1260 m 1,4,-1
 340 1309 l 1,5,-1
 366 1396 l 1,6,-1
 987 1396 l 1,7,-1
 961 1309 l 1,8,-1
 783 1258 l 1,9,-1
 439 135 l 1,10,-1
 601 87 l 1,11,-1
 575 0 l 1,12,-1
 -47 0 l 1,13,-1
 -20 87 l 1,14,-1
 158 137 l 1,15,-1
 502 1260 l 1,4,-1
1417 1260 m 1,16,-1
 1255 1309 l 1,17,-1
 1281 1396 l 1,18,-1
 1902 1396 l 1,19,-1
 1875 1309 l 1,20,-1
 1698 1258 l 1,21,-1
 1353 135 l 1,22,-1
 1516 87 l 1,23,-1
 1489 0 l 1,24,-1
 869 0 l 1,25,-1
 894 87 l 1,26,-1
 1072 137 l 1,27,-1
 1417 1260 l 1,16,-1
EndSplineSet
EndChar

StartChar: I
Encoding: 73 73 13
Width: 818
GlyphClass: 2
Flags: W
AnchorPoint: "Anchor-4" 272 0 basechar 0
AnchorPoint: "Anchor-3" 397 0 basechar 0
LayerCount: 2
Fore
SplineSet
502 1260 m 1,0,-1
 340 1309 l 1,1,-1
 366 1396 l 1,2,-1
 987 1396 l 1,3,-1
 961 1309 l 1,4,-1
 783 1258 l 1,5,-1
 439 135 l 1,6,-1
 601 87 l 1,7,-1
 575 0 l 1,8,-1
 -47 0 l 1,9,-1
 -20 87 l 1,10,-1
 158 137 l 1,11,-1
 502 1260 l 1,0,-1
EndSplineSet
EndChar

StartChar: J
Encoding: 74 74 14
Width: 1068
GlyphClass: 2
Flags: W
AnchorPoint: "Anchor-4" 335 0 basechar 0
LayerCount: 2
Fore
SplineSet
795 369 m 2,0,1
 767 278 767 278 716 205.5 c 128,-1,2
 665 133 665 133 592.5 83 c 128,-1,3
 520 33 520 33 428 6.5 c 128,-1,4
 336 -20 336 -20 226 -20 c 0,5,6
 63 -20 63 -20 -6 29 c 128,-1,7
 -75 78 -75 78 -75 158 c 0,8,9
 -75 212 -75 212 -43 247 c 128,-1,10
 -11 282 -11 282 41 282 c 0,11,12
 60 282 60 282 78 262 c 128,-1,13
 96 242 96 242 119 216.5 c 128,-1,14
 142 191 142 191 176.5 171 c 128,-1,15
 211 151 211 151 264 151 c 0,16,17
 357 151 357 151 416.5 198 c 128,-1,18
 476 245 476 245 514 370 c 2,19,-1
 787 1260 l 1,20,-1
 625 1309 l 1,21,-1
 652 1396 l 1,22,-1
 1272 1396 l 1,23,-1
 1246 1309 l 1,24,-1
 1069 1258 l 1,25,-1
 795 369 l 2,0,1
EndSplineSet
EndChar

StartChar: K
Encoding: 75 75 15
Width: 1613
GlyphClass: 2
Flags: W
AnchorPoint: "Anchor-4" 763 0 basechar 0
LayerCount: 2
Fore
SplineSet
1347 130 m 1,0,-1
 1485 91 l 1,1,-1
 1457 0 l 1,2,-1
 980 0 l 1,3,-1
 1001 70 l 1,4,-1
 1043 102 l 1,5,-1
 749 645 l 1,6,-1
 503 645 l 1,7,-1
 549 800 l 1,8,-1
 813 800 l 1,9,-1
 1384 1265 l 1,10,-1
 1248 1309 l 1,11,-1
 1275 1396 l 1,12,-1
 1790 1396 l 1,13,-1
 1763 1309 l 1,14,-1
 1594 1262 l 1,15,-1
 917 710 l 1,16,-1
 953 840 l 1,17,-1
 1347 130 l 1,0,-1
502 1260 m 1,18,-1
 340 1309 l 1,19,-1
 366 1396 l 1,20,-1
 987 1396 l 1,21,-1
 961 1309 l 1,22,-1
 783 1258 l 1,23,-1
 439 135 l 1,24,-1
 601 87 l 1,25,-1
 575 0 l 1,26,-1
 -47 0 l 1,27,-1
 -20 87 l 1,28,-1
 158 137 l 1,29,-1
 502 1260 l 1,18,-1
EndSplineSet
EndChar

StartChar: L
Encoding: 76 76 16
Width: 1312
GlyphClass: 2
Flags: W
AnchorPoint: "Anchor-4" 532 0 basechar 0
AnchorPoint: "Anchor-3" 1030 1396 basechar 0
LayerCount: 2
Fore
SplineSet
783 1258 m 1,0,-1
 398 0 l 1,1,-1
 -47 0 l 1,2,-1
 -20 87 l 1,3,-1
 158 138 l 1,4,-1
 502 1259 l 1,5,-1
 340 1309 l 1,6,-1
 367 1396 l 1,7,-1
 987 1396 l 1,8,-1
 961 1309 l 1,9,-1
 783 1258 l 1,0,-1
821 82 m 1,10,-1
 1133 473 l 1,11,-1
 1259 468 l 1,12,-1
 1023 -79 l 1,13,-1
 918 -79 l 1,14,-1
 857 0 l 1,15,-1
 164 0 l 1,16,-1
 213 155 l 1,17,-1
 945 155 l 1,18,-1
 821 82 l 1,10,-1
EndSplineSet
EndChar

StartChar: M
Encoding: 77 77 17
Width: 2114
GlyphClass: 2
Flags: W
AnchorPoint: "Anchor-4" 864 0 basechar 0
LayerCount: 2
Fore
SplineSet
714 1287 m 1,0,-1
 283 137 l 1,1,-1
 438 87 l 1,2,-1
 412 0 l 1,3,-1
 -73 0 l 1,4,-1
 -48 87 l 1,5,-1
 124 137 l 1,6,-1
 538 1242 l 1,7,-1
 373 1309 l 1,8,-1
 400 1396 l 1,9,-1
 942 1396 l 1,10,-1
 973 103 l 1,11,-1
 876 83 l 1,12,-1
 1693 1396 l 1,13,-1
 1850 1396 l 1,14,-1
 1842 1362 l 1,15,-1
 978 -3 l 1,16,-1
 707 -3 l 1,17,-1
 674 1269 l 1,18,-1
 714 1287 l 1,0,-1
1780 1396 m 1,19,-1
 2240 1396 l 1,20,-1
 2214 1309 l 1,21,-1
 2030 1252 l 1,22,-1
 1768 135 l 1,23,-1
 1917 87 l 1,24,-1
 1890 0 l 1,25,-1
 1288 0 l 1,26,-1
 1314 87 l 1,27,-1
 1488 137 l 1,28,-1
 1780 1396 l 1,19,-1
EndSplineSet
EndChar

StartChar: N
Encoding: 78 78 18
Width: 1645
GlyphClass: 2
Flags: W
AnchorPoint: "Anchor-4" 719 0 basechar 0
LayerCount: 2
Fore
SplineSet
1183 123 m 1,0,-1
 1124 125 l 1,1,-1
 1472 1260 l 1,2,-1
 1305 1309 l 1,3,-1
 1330 1396 l 1,4,-1
 1838 1396 l 1,5,-1
 1813 1309 l 1,6,-1
 1634 1260 l 1,7,-1
 1247 -3 l 1,8,-1
 952 -3 l 1,9,-1
 626 1264 l 1,10,-1
 666 1267 l 1,11,-1
 319 136 l 1,12,-1
 487 87 l 1,13,-1
 462 0 l 1,14,-1
 -47 0 l 1,15,-1
 -22 87 l 1,16,-1
 157 135 l 1,17,-1
 500 1250 l 1,18,-1
 341 1311 l 1,19,-1
 366 1396 l 1,20,-1
 862 1396 l 1,21,-1
 1183 123 l 1,0,-1
EndSplineSet
EndChar

StartChar: O
Encoding: 79 79 19
Width: 1642
GlyphClass: 2
Flags: W
AnchorPoint: "Anchor-4" 674 0 basechar 0
AnchorPoint: "Anchor-3" 829 0 basechar 0
AnchorPoint: "Anchor-2" 1394 1396 basechar 0
LayerCount: 2
Fore
SplineSet
431 495 m 0,0,1
 431 327 431 327 512.5 236.5 c 128,-1,2
 594 146 594 146 760 146 c 0,3,4
 848 146 848 146 924.5 174.5 c 128,-1,5
 1001 203 1001 203 1065 255 c 128,-1,6
 1129 307 1129 307 1179 377 c 128,-1,7
 1229 447 1229 447 1263.5 531.5 c 128,-1,8
 1298 616 1298 616 1316 709.5 c 128,-1,9
 1334 803 1334 803 1334 900 c 0,10,11
 1334 1068 1334 1068 1253 1158.5 c 128,-1,12
 1172 1249 1172 1249 1005 1249 c 0,13,14
 918 1249 918 1249 841 1221 c 128,-1,15
 764 1193 764 1193 700 1141 c 128,-1,16
 636 1089 636 1089 586 1018.5 c 128,-1,17
 536 948 536 948 501.5 864 c 128,-1,18
 467 780 467 780 449 686.5 c 128,-1,19
 431 593 431 593 431 495 c 0,0,1
1611 875 m 0,20,21
 1611 730 1611 730 1571 596 c 128,-1,22
 1531 462 1531 462 1455 349.5 c 128,-1,23
 1379 237 1379 237 1273.5 153 c 128,-1,24
 1168 69 1168 69 1036.5 23 c 128,-1,25
 905 -23 905 -23 753 -23 c 0,26,27
 557 -23 557 -23 423.5 42.5 c 128,-1,28
 290 108 290 108 222 230 c 128,-1,29
 154 352 154 352 154 520 c 0,30,31
 154 666 154 666 194.5 799.5 c 128,-1,32
 235 933 235 933 310.5 1046 c 128,-1,33
 386 1159 386 1159 492 1242.5 c 128,-1,34
 598 1326 598 1326 729.5 1372.5 c 128,-1,35
 861 1419 861 1419 1012 1419 c 0,36,37
 1209 1419 1209 1419 1342 1353.5 c 128,-1,38
 1475 1288 1475 1288 1543 1166 c 128,-1,39
 1611 1044 1611 1044 1611 875 c 0,20,21
EndSplineSet
Substitution2: "Single Substitution lookup 3 subtable" ordmasculine
EndChar

StartChar: P
Encoding: 80 80 20
Width: 1373
GlyphClass: 2
Flags: W
AnchorPoint: "Anchor-4" 256 0 basechar 0
LayerCount: 2
Fore
SplineSet
849 709 m 2,0,1
 933 709 933 709 995.5 735.5 c 128,-1,2
 1058 762 1058 762 1099.5 810 c 128,-1,3
 1141 858 1141 858 1162 922 c 128,-1,4
 1183 986 1183 986 1183 1061 c 0,5,6
 1183 1119 1183 1119 1157.5 1159 c 128,-1,7
 1132 1199 1132 1199 1075 1219.5 c 128,-1,8
 1018 1240 1018 1240 923 1240 c 2,9,-1
 606 1240 l 1,10,-1
 640 1396 l 1,11,-1
 998 1396 l 2,12,13
 1163 1396 1163 1396 1263.5 1356.5 c 128,-1,14
 1364 1317 1364 1317 1410 1244 c 128,-1,15
 1456 1171 1456 1171 1456 1070 c 0,16,17
 1456 960 1456 960 1418.5 866 c 128,-1,18
 1381 772 1381 772 1305 702 c 128,-1,19
 1229 632 1229 632 1113 593 c 128,-1,20
 997 554 997 554 841 554 c 2,21,-1
 379 554 l 1,22,-1
 440 709 l 1,23,-1
 849 709 l 2,0,1
439 135 m 1,24,-1
 601 87 l 1,25,-1
 575 0 l 1,26,-1
 -47 0 l 1,27,-1
 -20 87 l 1,28,-1
 158 137 l 1,29,-1
 502 1260 l 1,30,-1
 340 1309 l 1,31,-1
 366 1396 l 1,32,-1
 825 1396 l 1,33,-1
 439 135 l 1,24,-1
EndSplineSet
EndChar

StartChar: Q
Encoding: 81 81 21
Width: 1639
GlyphClass: 2
Flags: W
AnchorPoint: "Anchor-4" 464 -211 basechar 0
LayerCount: 2
Fore
SplineSet
617 -233 m 2,0,-1
 301 118 l 2,1,2
 251 179 251 179 218 241 c 128,-1,3
 185 303 185 303 169 372 c 128,-1,4
 153 441 153 441 153 520 c 0,5,6
 153 664 153 664 194 797.5 c 128,-1,7
 235 931 235 931 311 1044 c 128,-1,8
 387 1157 387 1157 493 1241 c 128,-1,9
 599 1325 599 1325 730 1372 c 128,-1,10
 861 1419 861 1419 1011 1419 c 0,11,12
 1205 1419 1205 1419 1338 1353.5 c 128,-1,13
 1471 1288 1471 1288 1540.5 1166.5 c 128,-1,14
 1610 1045 1610 1045 1610 876 c 0,15,16
 1610 727 1610 727 1566 587.5 c 128,-1,17
 1522 448 1522 448 1438 332.5 c 128,-1,18
 1354 217 1354 217 1234 138 c 128,-1,19
 1114 59 1114 59 963 28.5 c 128,-1,20
 812 -2 812 -2 634 31 c 1,21,-1
 602 96 l 1,22,-1
 891 -160 l 2,23,24
 950 -212 950 -212 994.5 -242 c 128,-1,25
 1039 -272 1039 -272 1083 -286 c 128,-1,26
 1127 -300 1127 -300 1180.5 -301.5 c 128,-1,27
 1234 -303 1234 -303 1311 -299 c 1,28,-1
 1279 -420 l 1,29,30
 1242 -428 1242 -428 1205.5 -434.5 c 128,-1,31
 1169 -441 1169 -441 1128.5 -444.5 c 128,-1,32
 1088 -448 1088 -448 1037 -448 c 0,33,34
 939 -448 939 -448 870 -426.5 c 128,-1,35
 801 -405 801 -405 742.5 -357.5 c 128,-1,36
 684 -310 684 -310 617 -233 c 2,0,-1
431 496 m 0,37,38
 431 328 431 328 511.5 237 c 128,-1,39
 592 146 592 146 756 146 c 0,40,41
 843 146 843 146 919.5 175 c 128,-1,42
 996 204 996 204 1060 256 c 128,-1,43
 1124 308 1124 308 1174.5 379 c 128,-1,44
 1225 450 1225 450 1260 534 c 128,-1,45
 1295 618 1295 618 1313 711 c 128,-1,46
 1331 804 1331 804 1331 900 c 0,47,48
 1331 1067 1331 1067 1251 1158 c 128,-1,49
 1171 1249 1171 1249 1007 1249 c 0,50,51
 920 1249 920 1249 843 1220 c 128,-1,52
 766 1191 766 1191 702 1139 c 128,-1,53
 638 1087 638 1087 588 1016.5 c 128,-1,54
 538 946 538 946 503 861.5 c 128,-1,55
 468 777 468 777 449.5 684.5 c 128,-1,56
 431 592 431 592 431 496 c 0,37,38
EndSplineSet
EndChar

StartChar: R
Encoding: 82 82 22
Width: 1510
GlyphClass: 2
Flags: W
AnchorPoint: "Anchor-4" 743 0 basechar 0
LayerCount: 2
Fore
SplineSet
886 766 m 2,0,1
 999 766 999 766 1068 810 c 128,-1,2
 1137 854 1137 854 1168.5 926.5 c 128,-1,3
 1200 999 1200 999 1200 1085 c 0,4,5
 1200 1161 1200 1161 1153.5 1200.5 c 128,-1,6
 1107 1240 1107 1240 1001 1240 c 2,7,-1
 626 1240 l 1,8,-1
 685 1396 l 1,9,-1
 1074 1396 l 2,10,11
 1223 1396 1223 1396 1312.5 1359.5 c 128,-1,12
 1402 1323 1402 1323 1442.5 1258.5 c 128,-1,13
 1483 1194 1483 1194 1483 1107 c 0,14,15
 1483 990 1483 990 1431 898.5 c 128,-1,16
 1379 807 1379 807 1275 751.5 c 128,-1,17
 1171 696 1171 696 1014 687 c 1,18,-1
 1014 693 l 1,19,20
 1092 686 1092 686 1135 658 c 128,-1,21
 1178 630 1178 630 1199.5 576 c 128,-1,22
 1221 522 1221 522 1231 436 c 2,23,-1
 1257 255 l 2,24,25
 1266 189 1266 189 1280.5 158 c 128,-1,26
 1295 127 1295 127 1321 118 c 128,-1,27
 1347 109 1347 109 1391 109 c 1,28,-1
 1362 0 l 1,29,30
 1246 -7 1246 -7 1175 -2.5 c 128,-1,31
 1104 2 1104 2 1065.5 24.5 c 128,-1,32
 1027 47 1027 47 1010 92 c 128,-1,33
 993 137 993 137 985 210 c 2,34,-1
 957 429 l 2,35,36
 948 512 948 512 934 552 c 128,-1,37
 920 592 920 592 890 605 c 128,-1,38
 860 618 860 618 801 618 c 2,39,-1
 443 618 l 1,40,-1
 477 766 l 1,41,-1
 886 766 l 2,0,1
439 135 m 1,42,-1
 601 87 l 1,43,-1
 575 0 l 1,44,-1
 -47 0 l 1,45,-1
 -20 87 l 1,46,-1
 158 137 l 1,47,-1
 502 1260 l 1,48,-1
 340 1309 l 1,49,-1
 366 1396 l 1,50,-1
 825 1396 l 1,51,-1
 439 135 l 1,42,-1
EndSplineSet
EndChar

StartChar: S
Encoding: 83 83 23
Width: 1262
GlyphClass: 2
Flags: W
AnchorPoint: "Anchor-4" 562 0 basechar 0
LayerCount: 2
Fore
SplineSet
1126 1192 m 1,0,1
 1080 1227 1080 1227 1009 1247 c 128,-1,2
 938 1267 938 1267 854 1267 c 0,3,4
 738 1267 738 1267 668.5 1241 c 128,-1,5
 599 1215 599 1215 568 1168 c 128,-1,6
 537 1121 537 1121 537 1056 c 0,7,8
 537 993 537 993 573 955 c 128,-1,9
 609 917 609 917 673 890.5 c 128,-1,10
 737 864 737 864 818 833 c 0,11,12
 900 803 900 803 972 761.5 c 128,-1,13
 1044 720 1044 720 1089 653.5 c 128,-1,14
 1134 587 1134 587 1134 478 c 0,15,16
 1134 325 1134 325 1057 212.5 c 128,-1,17
 980 100 980 100 831.5 38.5 c 128,-1,18
 683 -23 683 -23 466 -23 c 0,19,20
 343 -23 343 -23 253.5 -8 c 128,-1,21
 164 7 164 7 89 33 c 1,22,-1
 84 443 l 1,23,-1
 208 443 l 1,24,-1
 346 37 l 1,25,-1
 209 177 l 1,26,27
 268 157 268 157 335 145 c 128,-1,28
 402 133 402 133 482 133 c 0,29,30
 615 133 615 133 702 165 c 128,-1,31
 789 197 789 197 832.5 256.5 c 128,-1,32
 876 316 876 316 876 396 c 0,33,34
 876 453 876 453 849.5 491 c 128,-1,35
 823 529 823 529 777.5 555.5 c 128,-1,36
 732 582 732 582 675.5 603 c 128,-1,37
 619 624 619 624 559 648 c 0,38,39
 480 679 480 679 418 717.5 c 128,-1,40
 356 756 356 756 321.5 815.5 c 128,-1,41
 287 875 287 875 287 969 c 0,42,43
 287 1106 287 1106 354.5 1206.5 c 128,-1,44
 422 1307 422 1307 554.5 1363 c 128,-1,45
 687 1419 687 1419 882 1419 c 0,46,47
 985 1419 985 1419 1074 1400.5 c 128,-1,48
 1163 1382 1163 1382 1234 1342 c 1,49,-1
 1115 1357 l 1,50,-1
 1240 1471 l 1,51,-1
 1339 1471 l 1,52,-1
 1235 966 l 1,53,-1
 1107 966 l 1,54,-1
 1072 1280 l 1,55,-1
 1126 1192 l 1,0,1
EndSplineSet
EndChar

StartChar: T
Encoding: 84 84 24
Width: 1478
GlyphClass: 2
Flags: W
AnchorPoint: "Anchor-4" 604 0 basechar 0
LayerCount: 2
Fore
SplineSet
1460 1233 m 1,0,-1
 453 1233 l 1,1,-1
 570 1274 l 1,2,-1
 319 930 l 1,3,-1
 188 935 l 1,4,-1
 405 1483 l 1,5,-1
 507 1483 l 1,6,-1
 568 1369 l 1,7,-1
 453 1396 l 1,8,-1
 1548 1396 l 1,9,-1
 1415 1369 l 1,10,-1
 1550 1483 l 1,11,-1
 1651 1483 l 1,12,-1
 1567 931 l 1,13,-1
 1444 931 l 1,14,-1
 1404 1280 l 1,15,-1
 1460 1233 l 1,0,-1
850 1318 m 1,16,-1
 1132 1318 l 1,17,-1
 769 135 l 1,18,-1
 930 87 l 1,19,-1
 904 0 l 1,20,-1
 283 0 l 1,21,-1
 309 87 l 1,22,-1
 488 137 l 1,23,-1
 850 1318 l 1,16,-1
EndSplineSet
EndChar

StartChar: U
Encoding: 85 85 25
Width: 1619
GlyphClass: 2
Flags: W
AnchorPoint: "Anchor-4" 678 0 basechar 0
AnchorPoint: "Anchor-3" 853 0 basechar 0
AnchorPoint: "Anchor-2" 1647 1396 basechar 0
LayerCount: 2
Fore
SplineSet
517 531 m 2,0,1
 480 410 480 410 501 331.5 c 128,-1,2
 522 253 522 253 596 215 c 128,-1,3
 670 177 670 177 791 177 c 0,4,5
 907 177 907 177 991 211 c 128,-1,6
 1075 245 1075 245 1133.5 320 c 128,-1,7
 1192 395 1192 395 1230 521 c 2,8,-1
 1457 1260 l 1,9,-1
 1289 1309 l 1,10,-1
 1314 1396 l 1,11,-1
 1823 1396 l 1,12,-1
 1797 1309 l 1,13,-1
 1619 1260 l 1,14,-1
 1388 505 l 2,15,16
 1331 317 1331 317 1242.5 200.5 c 128,-1,17
 1154 84 1154 84 1026 30.5 c 128,-1,18
 898 -23 898 -23 721 -23 c 0,19,20
 518 -23 518 -23 390.5 41 c 128,-1,21
 263 105 263 105 224 237 c 128,-1,22
 185 369 185 369 248 573 c 2,23,-1
 459 1260 l 1,24,-1
 297 1309 l 1,25,-1
 323 1396 l 1,26,-1
 944 1396 l 1,27,-1
 918 1309 l 1,28,-1
 740 1258 l 1,29,-1
 517 531 l 2,0,1
EndSplineSet
EndChar

StartChar: V
Encoding: 86 86 26
Width: 1539
GlyphClass: 2
Flags: W
AnchorPoint: "Anchor-4" 670 0 basechar 0
LayerCount: 2
Fore
SplineSet
389 1259 m 1,0,-1
 234 1309 l 1,1,-1
 261 1396 l 1,2,-1
 881 1396 l 1,3,-1
 853 1309 l 1,4,-1
 672 1260 l 1,5,-1
 749 113 l 1,6,-1
 701 110 l 1,7,-1
 1406 1261 l 1,8,-1
 1251 1309 l 1,9,-1
 1278 1396 l 1,10,-1
 1788 1396 l 1,11,-1
 1761 1309 l 1,12,-1
 1598 1261 l 1,13,-1
 790 -14 l 1,14,-1
 493 -14 l 1,15,-1
 389 1259 l 1,0,-1
EndSplineSet
EndChar

StartChar: W
Encoding: 87 87 27
Width: 2132
GlyphClass: 2
Flags: W
AnchorPoint: "Anchor-4" 962 0 basechar 0
LayerCount: 2
Fore
SplineSet
2011 1260 m 1,0,-1
 1855 1309 l 1,1,-1
 1882 1396 l 1,2,-1
 2379 1396 l 1,3,-1
 2353 1309 l 1,4,-1
 2191 1260 l 1,5,-1
 1537 -3 l 1,6,-1
 1222 -3 l 1,7,-1
 1249 1150 l 1,8,-1
 1299 1165 l 1,9,-1
 615 -3 l 1,10,-1
 299 -3 l 1,11,-1
 405 1255 l 1,12,-1
 251 1308 l 1,13,-1
 277 1396 l 1,14,-1
 896 1396 l 1,15,-1
 870 1308 l 1,16,-1
 693 1257 l 1,17,-1
 586 146 l 1,18,-1
 533 147 l 1,19,-1
 1248 1399 l 1,20,-1
 1549 1399 l 1,21,-1
 1513 126 l 1,22,-1
 1447 128 l 1,23,-1
 2011 1260 l 1,0,-1
EndSplineSet
EndChar

StartChar: X
Encoding: 88 88 28
Width: 1596
GlyphClass: 2
Flags: W
AnchorPoint: "Anchor-4" 644 0 basechar 0
LayerCount: 2
Fore
SplineSet
814 634 m 1,0,-1
 281 137 l 1,1,-1
 424 87 l 1,2,-1
 398 0 l 1,3,-1
 -116 0 l 1,4,-1
 -90 87 l 1,5,-1
 77 139 l 1,6,-1
 757 759 l 1,7,-1
 892 802 l 1,8,-1
 1378 1259 l 1,9,-1
 1235 1309 l 1,10,-1
 1261 1396 l 1,11,-1
 1775 1396 l 1,12,-1
 1748 1309 l 1,13,-1
 1581 1257 l 1,14,-1
 948 677 l 1,15,-1
 814 634 l 1,0,-1
997 139 m 1,16,-1
 754 641 l 1,17,-1
 732 685 l 1,18,-1
 453 1256 l 1,19,-1
 302 1309 l 1,20,-1
 328 1396 l 1,21,-1
 961 1396 l 1,22,-1
 934 1308 l 1,23,-1
 769 1260 l 1,24,-1
 977 832 l 1,25,-1
 1000 787 l 1,26,-1
 1313 144 l 1,27,-1
 1466 87 l 1,28,-1
 1438 0 l 1,29,-1
 798 0 l 1,30,-1
 825 87 l 1,31,-1
 997 139 l 1,16,-1
EndSplineSet
EndChar

StartChar: Y
Encoding: 89 89 29
Width: 1507
GlyphClass: 2
Flags: W
AnchorPoint: "Anchor-4" 632 0 basechar 0
LayerCount: 2
Fore
SplineSet
1363 1259 m 1,0,-1
 1210 1309 l 1,1,-1
 1237 1396 l 1,2,-1
 1750 1396 l 1,3,-1
 1722 1309 l 1,4,-1
 1564 1261 l 1,5,-1
 937 593 l 1,6,-1
 796 135 l 1,7,-1
 958 87 l 1,8,-1
 932 0 l 1,9,-1
 311 0 l 1,10,-1
 337 87 l 1,11,-1
 515 137 l 1,12,-1
 653 587 l 1,13,-1
 400 1255 l 1,14,-1
 245 1309 l 1,15,-1
 271 1396 l 1,16,-1
 875 1396 l 1,17,-1
 849 1309 l 1,18,-1
 682 1256 l 1,19,-1
 893 668 l 1,20,-1
 825 669 l 1,21,-1
 1363 1259 l 1,0,-1
EndSplineSet
EndChar

StartChar: Z
Encoding: 90 90 30
Width: 1355
GlyphClass: 2
Flags: W
AnchorPoint: "Anchor-4" 526 0 basechar 0
LayerCount: 2
Fore
SplineSet
1486 1396 m 1,0,-1
 1445 1263 l 1,1,-1
 308 88 l 1,2,-1
 217 155 l 1,3,-1
 912 155 l 1,4,-1
 1139 439 l 1,5,-1
 1259 436 l 1,6,-1
 1033 -76 l 1,7,-1
 931 -76 l 1,8,-1
 882 0 l 1,9,-1
 -21 0 l 1,10,-1
 18 132 l 1,11,-1
 1153 1306 l 1,12,-1
 1260 1240 l 1,13,-1
 564 1240 l 1,14,-1
 377 971 l 1,15,-1
 254 977 l 1,16,-1
 425 1469 l 1,17,-1
 515 1469 l 1,18,-1
 588 1396 l 1,19,-1
 1486 1396 l 1,0,-1
EndSplineSet
EndChar

StartChar: Aogonek
Encoding: 260 260 39
Width: 1586
GlyphClass: 1
Flags: W
LayerCount: 2
Fore
SplineSet
389 455 m 1,0,-1
 439 606 l 1,1,-1
 1118 606 l 1,2,-1
 1067 455 l 1,3,-1
 389 455 l 1,0,-1
1317 137 m 1,4,-1
 1472 87 l 1,5,-1
 1445 0 l 1,6,-1
 826 0 l 1,7,-1
 853 87 l 1,8,-1
 1035 136 l 1,9,-1
 944 1282 l 1,10,-1
 991 1285 l 1,11,-1
 256 135 l 1,12,-1
 408 87 l 1,13,-1
 381 0 l 1,14,-1
 -129 0 l 1,15,-1
 -102 87 l 1,16,-1
 64 135 l 1,17,-1
 902 1409 l 1,18,-1
 1199 1409 l 1,19,-1
 1317 137 l 1,4,-1
1030 -294 m 0,20,21
 1030 -328 1030 -328 1050.5 -346.5 c 128,-1,22
 1071 -365 1071 -365 1112 -365 c 0,23,24
 1141 -365 1141 -365 1169.5 -356.5 c 128,-1,25
 1198 -348 1198 -348 1242 -323 c 1,26,-1
 1247 -390 l 1,27,28
 1176 -442 1176 -442 1125 -461.5 c 128,-1,29
 1074 -481 1074 -481 1020 -481 c 0,30,31
 948 -481 948 -481 913 -442.5 c 128,-1,32
 878 -404 878 -404 878 -348 c 0,33,34
 878 -312 878 -312 890.5 -275.5 c 128,-1,35
 903 -239 903 -239 938.5 -191 c 128,-1,36
 974 -143 974 -143 1042 -72 c 2,37,-1
 1162 53 l 1,38,-1
 1239 53 l 1,39,-1
 1130 -91 l 2,40,41
 1089 -145 1089 -145 1067.5 -182 c 128,-1,42
 1046 -219 1046 -219 1038 -245 c 128,-1,43
 1030 -271 1030 -271 1030 -294 c 0,20,21
EndSplineSet
EndChar

StartChar: AE
Encoding: 198 198 55
Width: 2200
GlyphClass: 2
Flags: W
AnchorPoint: "Anchor-4" 1012 0 basechar 0
LayerCount: 2
Fore
SplineSet
244 135 m 1,0,-1
 397 87 l 1,1,-1
 370 0 l 1,2,-1
 -154 0 l 1,3,-1
 -127 87 l 1,4,-1
 38 135 l 1,5,-1
 1058 1253 l 1,6,-1
 864 1308 l 1,7,-1
 891 1396 l 1,8,-1
 1583 1396 l 1,9,-1
 1156 0 l 1,10,-1
 711 0 l 1,11,-1
 738 87 l 1,12,-1
 916 137 l 1,13,-1
 1259 1256 l 1,14,-1
 1260 1253 l 1,15,-1
 244 135 l 1,0,-1
1751 -78 m 1,16,-1
 1699 0 l 1,17,-1
 1008 0 l 1,18,-1
 1057 155 l 1,19,-1
 1800 155 l 1,20,-1
 1660 77 l 1,21,-1
 1998 434 l 1,22,-1
 2123 429 l 1,23,-1
 1856 -78 l 1,24,-1
 1751 -78 l 1,16,-1
469 470 m 1,25,-1
 519 622 l 1,26,-1
 1145 622 l 1,27,-1
 1095 470 l 1,28,-1
 469 470 l 1,25,-1
1632 470 m 1,29,-1
 1671 655 l 1,30,-1
 1208 655 l 1,31,-1
 1254 802 l 1,32,-1
 1716 802 l 1,33,-1
 1789 984 l 1,34,-1
 1914 984 l 1,35,-1
 1835 727 l 1,36,-1
 1757 470 l 1,37,-1
 1632 470 l 1,29,-1
2085 1007 m 1,38,-1
 2079 1321 l 1,39,-1
 2124 1240 l 1,40,-1
 1386 1240 l 1,41,-1
 1435 1396 l 1,42,-1
 2119 1396 l 1,43,-1
 2236 1469 l 1,44,-1
 2328 1469 l 1,45,-1
 2213 1007 l 1,46,-1
 2085 1007 l 1,38,-1
EndSplineSet
EndChar

StartChar: Ccedilla
Encoding: 199 199 57
Width: 1495
GlyphClass: 1
Flags: W
LayerCount: 2
Fore
SplineSet
1176 196 m 1,0,-1
 996 88 l 1,1,-1
 1262 435 l 1,2,-1
 1397 435 l 1,3,-1
 1243 48 l 1,4,5
 1154 16 1154 16 1039.5 -3.5 c 128,-1,6
 925 -23 925 -23 792 -23 c 0,7,8
 578 -23 578 -23 437.5 46 c 128,-1,9
 297 115 297 115 228.5 241.5 c 128,-1,10
 160 368 160 368 160 538 c 0,11,12
 160 690 160 690 200.5 824 c 128,-1,13
 241 958 241 958 321 1067 c 128,-1,14
 401 1176 401 1176 517.5 1255 c 128,-1,15
 634 1334 634 1334 786.5 1376.5 c 128,-1,16
 939 1419 939 1419 1125 1419 c 0,17,18
 1193 1419 1193 1419 1254 1412 c 128,-1,19
 1315 1405 1315 1405 1370.5 1392 c 128,-1,20
 1426 1379 1426 1379 1476 1359 c 1,21,-1
 1360 1353 l 1,22,-1
 1501 1471 l 1,23,-1
 1600 1471 l 1,24,-1
 1487 935 l 1,25,-1
 1352 935 l 1,26,-1
 1325 1283 l 1,27,-1
 1379 1176 l 1,28,29
 1317 1218 1317 1218 1248.5 1234.5 c 128,-1,30
 1180 1251 1180 1251 1096 1251 c 0,31,32
 967 1251 967 1251 862.5 1217.5 c 128,-1,33
 758 1184 758 1184 680 1122 c 128,-1,34
 602 1060 602 1060 549.5 973.5 c 128,-1,35
 497 887 497 887 471 781.5 c 128,-1,36
 445 676 445 676 445 556 c 0,37,38
 445 415 445 415 494 322 c 128,-1,39
 543 229 543 229 636.5 183 c 128,-1,40
 730 137 730 137 862 137 c 0,41,42
 934 137 934 137 1015.5 152.5 c 128,-1,43
 1097 168 1097 168 1176 196 c 1,0,-1
577 -403 m 0,44,45
 634 -403 634 -403 664 -377 c 128,-1,46
 694 -351 694 -351 694 -309 c 0,47,48
 694 -277 694 -277 655.5 -255 c 128,-1,49
 617 -233 617 -233 508 -217 c 1,50,-1
 515 -192 l 1,51,-1
 738 34 l 1,52,-1
 842 34 l 1,53,-1
 623 -186 l 1,54,-1
 641 -99 l 1,55,56
 757 -121 757 -121 800 -161.5 c 128,-1,57
 843 -202 843 -202 843 -255 c 0,58,59
 843 -318 843 -318 809.5 -369.5 c 128,-1,60
 776 -421 776 -421 707.5 -451 c 128,-1,61
 639 -481 639 -481 534 -481 c 0,62,63
 458 -481 458 -481 427 -462 c 128,-1,64
 396 -443 396 -443 396 -410 c 0,65,66
 396 -384 396 -384 411.5 -366 c 128,-1,67
 427 -348 427 -348 452 -348 c 0,68,69
 466 -348 466 -348 481.5 -361.5 c 128,-1,70
 497 -375 497 -375 520 -389 c 128,-1,71
 543 -403 543 -403 577 -403 c 0,44,45
EndSplineSet
EndChar

StartChar: Dcroat
Encoding: 272 272 63
Width: 1619
GlyphClass: 1
Flags: W
LayerCount: 2
Fore
SplineSet
148 632 m 1,0,-1
 193 777 l 1,1,-1
 933 777 l 1,2,-1
 888 632 l 1,3,-1
 148 632 l 1,0,-1
645 155 m 2,4,5
 774 155 774 155 878 194 c 128,-1,6
 982 233 982 233 1061.5 302.5 c 128,-1,7
 1141 372 1141 372 1195 466 c 128,-1,8
 1249 560 1249 560 1276 671.5 c 128,-1,9
 1303 783 1303 783 1303 904 c 0,10,11
 1303 1010 1303 1010 1263.5 1085.5 c 128,-1,12
 1224 1161 1224 1161 1138 1200.5 c 128,-1,13
 1052 1240 1052 1240 912 1240 c 2,14,-1
 639 1240 l 1,15,-1
 672 1396 l 1,16,-1
 949 1396 l 2,17,18
 1182 1396 1182 1396 1322 1335 c 128,-1,19
 1462 1274 1462 1274 1524.5 1160 c 128,-1,20
 1587 1046 1587 1046 1587 888 c 0,21,22
 1587 688 1587 688 1523 525 c 128,-1,23
 1459 362 1459 362 1336.5 244.5 c 128,-1,24
 1214 127 1214 127 1038.5 63.5 c 128,-1,25
 863 0 863 0 642 0 c 2,26,-1
 246 0 l 1,27,-1
 310 155 l 1,28,-1
 645 155 l 2,4,5
506 1260 m 1,29,-1
 343 1309 l 1,30,-1
 370 1396 l 1,31,-1
 828 1396 l 1,32,-1
 401 0 l 1,33,-1
 -43 0 l 1,34,-1
 -17 87 l 1,35,-1
 161 137 l 1,36,-1
 506 1260 l 1,29,-1
EndSplineSet
EndChar

StartChar: Eogonek
Encoding: 280 280 71
Width: 1442
GlyphClass: 1
Flags: W
LayerCount: 2
Fore
SplineSet
502 1260 m 1,0,-1
 340 1309 l 1,1,-1
 366 1396 l 1,2,-1
 825 1396 l 1,3,-1
 398 0 l 1,4,-1
 -47 0 l 1,5,-1
 -20 87 l 1,6,-1
 158 137 l 1,7,-1
 502 1260 l 1,0,-1
874 470 m 1,8,-1
 913 655 l 1,9,-1
 450 655 l 1,10,-1
 496 802 l 1,11,-1
 958 802 l 1,12,-1
 1031 984 l 1,13,-1
 1156 984 l 1,14,-1
 1077 727 l 1,15,-1
 999 470 l 1,16,-1
 874 470 l 1,8,-1
1455 1007 m 1,17,-1
 1327 1007 l 1,18,-1
 1321 1321 l 1,19,-1
 1366 1240 l 1,20,-1
 628 1240 l 1,21,-1
 676 1396 l 1,22,-1
 1361 1396 l 1,23,-1
 1478 1469 l 1,24,-1
 1570 1469 l 1,25,-1
 1455 1007 l 1,17,-1
993 -78 m 1,26,-1
 941 0 l 1,27,-1
 250 0 l 1,28,-1
 299 155 l 1,29,-1
 1042 155 l 1,30,-1
 902 77 l 1,31,-1
 1240 434 l 1,32,-1
 1365 429 l 1,33,-1
 1098 -78 l 1,34,-1
 993 -78 l 1,26,-1
792 -294 m 0,35,36
 792 -328 792 -328 812.5 -346.5 c 128,-1,37
 833 -365 833 -365 874 -365 c 0,38,39
 904 -365 904 -365 932 -356.5 c 128,-1,40
 960 -348 960 -348 1004 -323 c 1,41,-1
 1010 -390 l 1,42,43
 938 -442 938 -442 887 -461.5 c 128,-1,44
 836 -481 836 -481 782 -481 c 0,45,46
 710 -481 710 -481 675 -442.5 c 128,-1,47
 640 -404 640 -404 640 -348 c 0,48,49
 640 -310 640 -310 652 -274 c 128,-1,50
 664 -238 664 -238 699.5 -191.5 c 128,-1,51
 735 -145 735 -145 807 -78 c 2,52,-1
 943 53 l 1,53,-1
 1020 53 l 1,54,-1
 895 -98 l 2,55,56
 851 -151 851 -151 829 -186 c 128,-1,57
 807 -221 807 -221 799.5 -246 c 128,-1,58
 792 -271 792 -271 792 -294 c 0,35,36
EndSplineSet
EndChar

StartChar: Hbar
Encoding: 294 294 89
Width: 1737
GlyphClass: 1
Flags: W
LayerCount: 2
Fore
SplineSet
441 634 m 1,0,-1
 485 789 l 1,1,-1
 1427 789 l 1,2,-1
 1384 634 l 1,3,-1
 441 634 l 1,0,-1
253 978 m 1,4,-1
 298 1123 l 1,5,-1
 1829 1123 l 1,6,-1
 1784 978 l 1,7,-1
 253 978 l 1,4,-1
504 1260 m 1,8,-1
 342 1309 l 1,9,-1
 369 1396 l 1,10,-1
 989 1396 l 1,11,-1
 963 1309 l 1,12,-1
 786 1258 l 1,13,-1
 441 135 l 1,14,-1
 603 87 l 1,15,-1
 577 0 l 1,16,-1
 -45 0 l 1,17,-1
 -18 87 l 1,18,-1
 160 137 l 1,19,-1
 504 1260 l 1,8,-1
1419 1260 m 1,20,-1
 1257 1309 l 1,21,-1
 1283 1396 l 1,22,-1
 1904 1396 l 1,23,-1
 1878 1309 l 1,24,-1
 1700 1258 l 1,25,-1
 1356 135 l 1,26,-1
 1518 87 l 1,27,-1
 1491 0 l 1,28,-1
 871 0 l 1,29,-1
 897 87 l 1,30,-1
 1075 137 l 1,31,-1
 1419 1260 l 1,20,-1
EndSplineSet
EndChar

StartChar: Iogonek
Encoding: 302 302 97
Width: 818
GlyphClass: 1
Flags: W
LayerCount: 2
Fore
SplineSet
502 1260 m 1,0,-1
 340 1309 l 1,1,-1
 366 1396 l 1,2,-1
 987 1396 l 1,3,-1
 961 1309 l 1,4,-1
 783 1258 l 1,5,-1
 439 135 l 1,6,-1
 601 87 l 1,7,-1
 575 0 l 1,8,-1
 -47 0 l 1,9,-1
 -20 87 l 1,10,-1
 158 137 l 1,11,-1
 502 1260 l 1,0,-1
135 -293 m 0,12,13
 135 -327 135 -327 155 -346 c 128,-1,14
 175 -365 175 -365 216 -365 c 0,15,16
 246 -365 246 -365 274 -356.5 c 128,-1,17
 302 -348 302 -348 347 -323 c 1,18,-1
 352 -390 l 1,19,20
 281 -442 281 -442 230 -461.5 c 128,-1,21
 179 -481 179 -481 125 -481 c 0,22,23
 52 -481 52 -481 17.5 -442 c 128,-1,24
 -17 -403 -17 -403 -17 -347 c 0,25,26
 -17 -309 -17 -309 -4.5 -272 c 128,-1,27
 8 -235 8 -235 44 -187 c 128,-1,28
 80 -139 80 -139 150 -72 c 2,29,-1
 275 54 l 1,30,-1
 352 54 l 1,31,-1
 236 -92 l 2,32,33
 194 -145 194 -145 171.5 -181.5 c 128,-1,34
 149 -218 149 -218 142 -244 c 128,-1,35
 135 -270 135 -270 135 -293 c 0,12,13
EndSplineSet
EndChar

StartChar: Lslash
Encoding: 321 321 107
Width: 1338
GlyphClass: 1
Flags: W
LayerCount: 2
Fore
SplineSet
810 1258 m 1,0,-1
 424 0 l 1,1,-1
 -20 0 l 1,2,-1
 6 87 l 1,3,-1
 184 138 l 1,4,-1
 528 1259 l 1,5,-1
 366 1309 l 1,6,-1
 393 1396 l 1,7,-1
 1014 1396 l 1,8,-1
 988 1309 l 1,9,-1
 810 1258 l 1,0,-1
847 82 m 1,10,-1
 1160 473 l 1,11,-1
 1286 468 l 1,12,-1
 1049 -79 l 1,13,-1
 944 -79 l 1,14,-1
 883 0 l 1,15,-1
 191 0 l 1,16,-1
 240 155 l 1,17,-1
 971 155 l 1,18,-1
 847 82 l 1,10,-1
1051 988 m 1,19,-1
 999 819 l 1,20,-1
 537 599 l 1,21,-1
 423 587 l 1,22,-1
 104 436 l 1,23,-1
 156 604 l 1,24,-1
 474 756 l 1,25,-1
 588 767 l 1,26,-1
 1051 988 l 1,19,-1
EndSplineSet
EndChar

StartChar: Eng
Encoding: 330 330 114
Width: 1638
GlyphClass: 1
Flags: W
LayerCount: 2
Fore
SplineSet
1225 329 m 1,0,-1
 1098 -77 l 1,1,-1
 626 1264 l 1,2,-1
 666 1267 l 1,3,-1
 319 136 l 1,4,-1
 487 87 l 1,5,-1
 462 0 l 1,6,-1
 -47 0 l 1,7,-1
 -22 87 l 1,8,-1
 157 135 l 1,9,-1
 500 1250 l 1,10,-1
 341 1311 l 1,11,-1
 366 1396 l 1,12,-1
 856 1396 l 1,13,-1
 1225 329 l 1,0,-1
1203 -122 m 2,14,15
 1166 -244 1166 -244 1106.5 -324 c 128,-1,16
 1047 -404 1047 -404 962 -442.5 c 128,-1,17
 877 -481 877 -481 761 -481 c 0,18,19
 650 -481 650 -481 593 -441.5 c 128,-1,20
 536 -402 536 -402 536 -340 c 0,21,22
 536 -287 536 -287 565 -249.5 c 128,-1,23
 594 -212 594 -212 642 -212 c 0,24,25
 656 -212 656 -212 672.5 -226 c 128,-1,26
 689 -240 689 -240 711 -259 c 128,-1,27
 733 -278 733 -278 763 -292.5 c 128,-1,28
 793 -307 793 -307 833 -307 c 0,29,30
 880 -307 880 -307 919.5 -290 c 128,-1,31
 959 -273 959 -273 990.5 -230.5 c 128,-1,32
 1022 -188 1022 -188 1045 -112 c 2,33,-1
 1465 1260 l 1,34,-1
 1298 1309 l 1,35,-1
 1323 1396 l 1,36,-1
 1831 1396 l 1,37,-1
 1806 1309 l 1,38,-1
 1627 1260 l 1,39,-1
 1203 -122 l 2,14,15
EndSplineSet
EndChar

StartChar: Ohorn
Encoding: 416 416 123
Width: 1646
GlyphClass: 2
Flags: W
AnchorPoint: "Anchor-4" 674 0 basechar 0
LayerCount: 2
Fore
SplineSet
431 495 m 0,0,1
 431 327 431 327 512.5 236.5 c 128,-1,2
 594 146 594 146 760 146 c 0,3,4
 848 146 848 146 924.5 174.5 c 128,-1,5
 1001 203 1001 203 1065 255 c 128,-1,6
 1129 307 1129 307 1179 377 c 128,-1,7
 1229 447 1229 447 1263.5 531.5 c 128,-1,8
 1298 616 1298 616 1316 709.5 c 128,-1,9
 1334 803 1334 803 1334 900 c 0,10,11
 1334 1068 1334 1068 1253 1158.5 c 128,-1,12
 1172 1249 1172 1249 1005 1249 c 0,13,14
 918 1249 918 1249 841 1221 c 128,-1,15
 764 1193 764 1193 700 1141 c 128,-1,16
 636 1089 636 1089 586 1018.5 c 128,-1,17
 536 948 536 948 501.5 864 c 128,-1,18
 467 780 467 780 449 686.5 c 128,-1,19
 431 593 431 593 431 495 c 0,0,1
1611 875 m 0,20,21
 1611 730 1611 730 1571 596 c 128,-1,22
 1531 462 1531 462 1455 349.5 c 128,-1,23
 1379 237 1379 237 1273.5 153 c 128,-1,24
 1168 69 1168 69 1036.5 23 c 128,-1,25
 905 -23 905 -23 753 -23 c 0,26,27
 557 -23 557 -23 423.5 42.5 c 128,-1,28
 290 108 290 108 222 230 c 128,-1,29
 154 352 154 352 154 520 c 0,30,31
 154 666 154 666 194.5 799.5 c 128,-1,32
 235 933 235 933 310.5 1046 c 128,-1,33
 386 1159 386 1159 492 1242.5 c 128,-1,34
 598 1326 598 1326 729.5 1372.5 c 128,-1,35
 861 1419 861 1419 1012 1419 c 0,36,37
 1082 1419 1082 1419 1132.5 1413 c 128,-1,38
 1183 1407 1183 1407 1224.5 1400 c 128,-1,39
 1266 1393 1266 1393 1306.5 1387.5 c 128,-1,40
 1347 1382 1347 1382 1396 1382 c 0,41,42
 1486 1382 1486 1382 1526 1414.5 c 128,-1,43
 1566 1447 1566 1447 1566 1506 c 0,44,45
 1566 1542 1566 1542 1554 1567.5 c 128,-1,46
 1542 1593 1542 1593 1542 1605 c 0,47,48
 1542 1631 1542 1631 1573.5 1658 c 128,-1,49
 1605 1685 1605 1685 1653 1685 c 256,50,51
 1701 1685 1701 1685 1732 1655.5 c 128,-1,52
 1763 1626 1763 1626 1763 1566 c 0,53,54
 1763 1432 1763 1432 1680.5 1357 c 128,-1,55
 1598 1282 1598 1282 1418 1287 c 1,56,-1
 1421 1303 l 1,57,58
 1521 1226 1521 1226 1566 1116.5 c 128,-1,59
 1611 1007 1611 1007 1611 875 c 0,20,21
EndSplineSet
EndChar

StartChar: uni01EA
Encoding: 490 490 124
Width: 1642
GlyphClass: 1
Flags: W
LayerCount: 2
Fore
SplineSet
431 495 m 0,0,1
 431 327 431 327 512.5 236.5 c 128,-1,2
 594 146 594 146 760 146 c 0,3,4
 848 146 848 146 924.5 174.5 c 128,-1,5
 1001 203 1001 203 1065 255 c 128,-1,6
 1129 307 1129 307 1179 377 c 128,-1,7
 1229 447 1229 447 1263.5 531.5 c 128,-1,8
 1298 616 1298 616 1316 709.5 c 128,-1,9
 1334 803 1334 803 1334 900 c 0,10,11
 1334 1068 1334 1068 1253 1158.5 c 128,-1,12
 1172 1249 1172 1249 1005 1249 c 0,13,14
 918 1249 918 1249 841 1221 c 128,-1,15
 764 1193 764 1193 700 1141 c 128,-1,16
 636 1089 636 1089 586 1018.5 c 128,-1,17
 536 948 536 948 501.5 864 c 128,-1,18
 467 780 467 780 449 686.5 c 128,-1,19
 431 593 431 593 431 495 c 0,0,1
1611 875 m 0,20,21
 1611 730 1611 730 1571 596 c 128,-1,22
 1531 462 1531 462 1455 349.5 c 128,-1,23
 1379 237 1379 237 1273.5 153 c 128,-1,24
 1168 69 1168 69 1036.5 23 c 128,-1,25
 905 -23 905 -23 753 -23 c 0,26,27
 557 -23 557 -23 423.5 42.5 c 128,-1,28
 290 108 290 108 222 230 c 128,-1,29
 154 352 154 352 154 520 c 0,30,31
 154 666 154 666 194.5 799.5 c 128,-1,32
 235 933 235 933 310.5 1046 c 128,-1,33
 386 1159 386 1159 492 1242.5 c 128,-1,34
 598 1326 598 1326 729.5 1372.5 c 128,-1,35
 861 1419 861 1419 1012 1419 c 0,36,37
 1209 1419 1209 1419 1342 1353.5 c 128,-1,38
 1475 1288 1475 1288 1543 1166 c 128,-1,39
 1611 1044 1611 1044 1611 875 c 0,20,21
558 -294 m 0,40,41
 558 -328 558 -328 578.5 -346.5 c 128,-1,42
 599 -365 599 -365 640 -365 c 0,43,44
 669 -365 669 -365 697.5 -356.5 c 128,-1,45
 726 -348 726 -348 770 -323 c 1,46,-1
 775 -390 l 1,47,48
 704 -442 704 -442 653 -461.5 c 128,-1,49
 602 -481 602 -481 548 -481 c 0,50,51
 476 -481 476 -481 441 -442.5 c 128,-1,52
 406 -404 406 -404 406 -348 c 0,53,54
 406 -312 406 -312 418 -275 c 128,-1,55
 430 -238 430 -238 467 -190.5 c 128,-1,56
 504 -143 504 -143 577 -75 c 2,57,-1
 712 53 l 1,58,-1
 789 53 l 1,59,-1
 665 -95 l 2,60,61
 620 -148 620 -148 597 -184 c 128,-1,62
 574 -220 574 -220 566 -245.5 c 128,-1,63
 558 -271 558 -271 558 -294 c 0,40,41
EndSplineSet
EndChar

StartChar: Oslash
Encoding: 216 216 142
Width: 1665
GlyphClass: 2
Flags: W
AnchorPoint: "Anchor-4" 686 0 basechar 0
LayerCount: 2
Fore
SplineSet
1834 1396 m 1,0,-1
 1503 1119 l 1,1,-1
 1416 1058 l 1,2,-1
 446 223 l 1,3,-1
 377 167 l 1,4,-1
 178 0 l 1,5,-1
 -45 0 l 1,6,-1
 287 278 l 1,7,-1
 371 337 l 1,8,-1
 1341 1172 l 1,9,-1
 1412 1229 l 1,10,-1
 1610 1396 l 1,11,-1
 1834 1396 l 1,0,-1
443 495 m 0,12,13
 443 327 443 327 524 236.5 c 128,-1,14
 605 146 605 146 771 146 c 0,15,16
 859 146 859 146 936 174.5 c 128,-1,17
 1013 203 1013 203 1077 255 c 128,-1,18
 1141 307 1141 307 1191 377 c 128,-1,19
 1241 447 1241 447 1275.5 531.5 c 128,-1,20
 1310 616 1310 616 1328 709.5 c 128,-1,21
 1346 803 1346 803 1346 900 c 0,22,23
 1346 1068 1346 1068 1264.5 1158.5 c 128,-1,24
 1183 1249 1183 1249 1017 1249 c 0,25,26
 929 1249 929 1249 852 1221 c 128,-1,27
 775 1193 775 1193 711.5 1141 c 128,-1,28
 648 1089 648 1089 598 1018.5 c 128,-1,29
 548 948 548 948 513.5 864 c 128,-1,30
 479 780 479 780 461 686.5 c 128,-1,31
 443 593 443 593 443 495 c 0,12,13
1623 875 m 0,32,33
 1623 730 1623 730 1582.5 596 c 128,-1,34
 1542 462 1542 462 1466.5 349.5 c 128,-1,35
 1391 237 1391 237 1285 153 c 128,-1,36
 1179 69 1179 69 1047.5 23 c 128,-1,37
 916 -23 916 -23 765 -23 c 0,38,39
 569 -23 569 -23 435.5 42.5 c 128,-1,40
 302 108 302 108 234 230 c 128,-1,41
 166 352 166 352 166 520 c 0,42,43
 166 666 166 666 206 799.5 c 128,-1,44
 246 933 246 933 322 1046 c 128,-1,45
 398 1159 398 1159 503.5 1242.5 c 128,-1,46
 609 1326 609 1326 740.5 1372.5 c 128,-1,47
 872 1419 872 1419 1024 1419 c 0,48,49
 1220 1419 1220 1419 1353.5 1353.5 c 128,-1,50
 1487 1288 1487 1288 1555 1166 c 128,-1,51
 1623 1044 1623 1044 1623 875 c 0,32,33
EndSplineSet
EndChar

StartChar: OE
Encoding: 338 338 144
Width: 2239
GlyphClass: 1
Flags: W
LayerCount: 2
Fore
SplineSet
1341 1396 m 1,0,-1
 1623 1396 l 1,1,-1
 1194 0 l 1,2,-1
 912 0 l 1,3,-1
 1341 1396 l 1,0,-1
1095 1396 m 2,4,-1
 2158 1396 l 1,5,-1
 2275 1469 l 1,6,-1
 2366 1469 l 1,7,-1
 2252 1007 l 1,8,-1
 2124 1007 l 1,9,-1
 2118 1321 l 1,10,-1
 2163 1240 l 1,11,-1
 1095 1240 l 2,12,13
 959 1240 959 1240 852.5 1200.5 c 128,-1,14
 746 1161 746 1161 667.5 1090.5 c 128,-1,15
 589 1020 589 1020 537.5 926 c 128,-1,16
 486 832 486 832 461 723 c 128,-1,17
 436 614 436 614 436 498 c 0,18,19
 436 392 436 392 476.5 315 c 128,-1,20
 517 238 517 238 605.5 196.5 c 128,-1,21
 694 155 694 155 839 155 c 2,22,-1
 1839 155 l 1,23,-1
 1699 77 l 1,24,-1
 2036 434 l 1,25,-1
 2162 429 l 1,26,-1
 1895 -78 l 1,27,-1
 1790 -78 l 1,28,-1
 1738 0 l 1,29,-1
 783 0 l 2,30,31
 558 0 558 0 419 61 c 128,-1,32
 280 122 280 122 216.5 234 c 128,-1,33
 153 346 153 346 153 499 c 0,34,35
 153 693 153 693 214.5 856.5 c 128,-1,36
 276 1020 276 1020 396 1141 c 128,-1,37
 516 1262 516 1262 692 1329 c 128,-1,38
 868 1396 868 1396 1095 1396 c 2,4,-1
1796 470 m 1,39,-1
 1671 470 l 1,40,-1
 1710 655 l 1,41,-1
 1247 655 l 1,42,-1
 1292 802 l 1,43,-1
 1755 802 l 1,44,-1
 1828 984 l 1,45,-1
 1953 984 l 1,46,-1
 1874 727 l 1,47,-1
 1796 470 l 1,39,-1
EndSplineSet
EndChar

StartChar: Scedilla
Encoding: 350 350 152
Width: 1262
GlyphClass: 1
Flags: W
LayerCount: 2
Fore
SplineSet
1126 1192 m 1,0,1
 1080 1227 1080 1227 1009 1247 c 128,-1,2
 938 1267 938 1267 854 1267 c 0,3,4
 738 1267 738 1267 668.5 1241 c 128,-1,5
 599 1215 599 1215 568 1168 c 128,-1,6
 537 1121 537 1121 537 1056 c 0,7,8
 537 993 537 993 573 955 c 128,-1,9
 609 917 609 917 673 890.5 c 128,-1,10
 737 864 737 864 818 833 c 0,11,12
 900 803 900 803 972 761.5 c 128,-1,13
 1044 720 1044 720 1089 653.5 c 128,-1,14
 1134 587 1134 587 1134 478 c 0,15,16
 1134 325 1134 325 1057 212.5 c 128,-1,17
 980 100 980 100 831.5 38.5 c 128,-1,18
 683 -23 683 -23 466 -23 c 0,19,20
 343 -23 343 -23 253.5 -8 c 128,-1,21
 164 7 164 7 89 33 c 1,22,-1
 84 443 l 1,23,-1
 208 443 l 1,24,-1
 346 37 l 1,25,-1
 209 177 l 1,26,27
 268 157 268 157 335 145 c 128,-1,28
 402 133 402 133 482 133 c 0,29,30
 615 133 615 133 702 165 c 128,-1,31
 789 197 789 197 832.5 256.5 c 128,-1,32
 876 316 876 316 876 396 c 0,33,34
 876 453 876 453 849.5 491 c 128,-1,35
 823 529 823 529 777.5 555.5 c 128,-1,36
 732 582 732 582 675.5 603 c 128,-1,37
 619 624 619 624 559 648 c 0,38,39
 480 679 480 679 418 717.5 c 128,-1,40
 356 756 356 756 321.5 815.5 c 128,-1,41
 287 875 287 875 287 969 c 0,42,43
 287 1106 287 1106 354.5 1206.5 c 128,-1,44
 422 1307 422 1307 554.5 1363 c 128,-1,45
 687 1419 687 1419 882 1419 c 0,46,47
 985 1419 985 1419 1074 1400.5 c 128,-1,48
 1163 1382 1163 1382 1234 1342 c 1,49,-1
 1115 1357 l 1,50,-1
 1240 1471 l 1,51,-1
 1339 1471 l 1,52,-1
 1235 966 l 1,53,-1
 1107 966 l 1,54,-1
 1072 1280 l 1,55,-1
 1126 1192 l 1,0,1
359 -481 m 0,56,57
 283 -481 283 -481 251.5 -462 c 128,-1,58
 220 -443 220 -443 220 -410 c 0,59,60
 220 -384 220 -384 236 -366 c 128,-1,61
 252 -348 252 -348 277 -348 c 0,62,63
 291 -348 291 -348 306.5 -361.5 c 128,-1,64
 322 -375 322 -375 345 -389 c 128,-1,65
 368 -403 368 -403 402 -403 c 0,66,67
 459 -403 459 -403 488.5 -377 c 128,-1,68
 518 -351 518 -351 518 -309 c 0,69,70
 518 -277 518 -277 480 -255 c 128,-1,71
 442 -233 442 -233 332 -217 c 1,72,-1
 340 -192 l 1,73,-1
 562 34 l 1,74,-1
 667 34 l 1,75,-1
 448 -186 l 1,76,-1
 465 -99 l 1,77,78
 581 -121 581 -121 624.5 -161.5 c 128,-1,79
 668 -202 668 -202 668 -255 c 0,80,81
 668 -318 668 -318 634.5 -369.5 c 128,-1,82
 601 -421 601 -421 532.5 -451 c 128,-1,83
 464 -481 464 -481 359 -481 c 0,56,57
EndSplineSet
Substitution2: "'locl' Localized Forms in Latin lookup 1 subtable" uni0218
Substitution2: "'locl' Localized Forms in Latin lookup 0 subtable" uni0218
EndChar

StartChar: uni0162
Encoding: 354 354 156
Width: 1478
GlyphClass: 1
Flags: W
LayerCount: 2
Fore
SplineSet
1460 1233 m 1,0,-1
 453 1233 l 1,1,-1
 570 1274 l 1,2,-1
 319 930 l 1,3,-1
 188 935 l 1,4,-1
 405 1483 l 1,5,-1
 507 1483 l 1,6,-1
 568 1369 l 1,7,-1
 453 1396 l 1,8,-1
 1548 1396 l 1,9,-1
 1415 1369 l 1,10,-1
 1550 1483 l 1,11,-1
 1651 1483 l 1,12,-1
 1567 931 l 1,13,-1
 1444 931 l 1,14,-1
 1404 1280 l 1,15,-1
 1460 1233 l 1,0,-1
850 1318 m 1,16,-1
 1132 1318 l 1,17,-1
 769 135 l 1,18,-1
 930 87 l 1,19,-1
 904 0 l 1,20,-1
 283 0 l 1,21,-1
 309 87 l 1,22,-1
 488 137 l 1,23,-1
 850 1318 l 1,16,-1
401 -481 m 0,24,25
 325 -481 325 -481 294 -462 c 128,-1,26
 263 -443 263 -443 263 -410 c 0,27,28
 263 -384 263 -384 279 -366 c 128,-1,29
 295 -348 295 -348 320 -348 c 0,30,31
 333 -348 333 -348 349 -361.5 c 128,-1,32
 365 -375 365 -375 387.5 -389 c 128,-1,33
 410 -403 410 -403 444 -403 c 0,34,35
 501 -403 501 -403 531 -377 c 128,-1,36
 561 -351 561 -351 561 -309 c 0,37,38
 561 -277 561 -277 522.5 -255 c 128,-1,39
 484 -233 484 -233 375 -217 c 1,40,-1
 383 -192 l 1,41,-1
 605 34 l 1,42,-1
 710 34 l 1,43,-1
 491 -186 l 1,44,-1
 508 -99 l 1,45,46
 624 -121 624 -121 667.5 -161.5 c 128,-1,47
 711 -202 711 -202 711 -255 c 0,48,49
 711 -318 711 -318 677 -369.5 c 128,-1,50
 643 -421 643 -421 574.5 -451 c 128,-1,51
 506 -481 506 -481 401 -481 c 0,24,25
EndSplineSet
EndChar

StartChar: Tbar
Encoding: 358 358 158
Width: 1482
GlyphClass: 1
Flags: W
LayerCount: 2
Fore
SplineSet
354 620 m 1,0,-1
 398 765 l 1,1,-1
 1246 765 l 1,2,-1
 1201 620 l 1,3,-1
 354 620 l 1,0,-1
1461 1233 m 1,4,-1
 454 1233 l 1,5,-1
 570 1274 l 1,6,-1
 320 930 l 1,7,-1
 189 935 l 1,8,-1
 405 1483 l 1,9,-1
 507 1483 l 1,10,-1
 569 1369 l 1,11,-1
 454 1396 l 1,12,-1
 1548 1396 l 1,13,-1
 1416 1369 l 1,14,-1
 1551 1483 l 1,15,-1
 1652 1483 l 1,16,-1
 1567 931 l 1,17,-1
 1444 931 l 1,18,-1
 1405 1280 l 1,19,-1
 1461 1233 l 1,4,-1
851 1318 m 1,20,-1
 1132 1318 l 1,21,-1
 770 135 l 1,22,-1
 930 87 l 1,23,-1
 905 0 l 1,24,-1
 283 0 l 1,25,-1
 310 87 l 1,26,-1
 489 137 l 1,27,-1
 851 1318 l 1,20,-1
EndSplineSet
EndChar

StartChar: Uogonek
Encoding: 370 370 169
Width: 1619
GlyphClass: 1
Flags: W
LayerCount: 2
Fore
SplineSet
517 531 m 2,0,1
 480 410 480 410 501 331.5 c 128,-1,2
 522 253 522 253 596.5 215 c 128,-1,3
 671 177 671 177 793 177 c 0,4,5
 909 177 909 177 992.5 211 c 128,-1,6
 1076 245 1076 245 1134 320 c 128,-1,7
 1192 395 1192 395 1230 521 c 2,8,-1
 1457 1260 l 1,9,-1
 1289 1309 l 1,10,-1
 1314 1396 l 1,11,-1
 1823 1396 l 1,12,-1
 1797 1309 l 1,13,-1
 1619 1260 l 1,14,-1
 1388 505 l 2,15,16
 1331 317 1331 317 1242.5 200.5 c 128,-1,17
 1154 84 1154 84 1026 30.5 c 128,-1,18
 898 -23 898 -23 721 -23 c 0,19,20
 518 -23 518 -23 390.5 41 c 128,-1,21
 263 105 263 105 224 237 c 128,-1,22
 185 369 185 369 248 573 c 2,23,-1
 459 1260 l 1,24,-1
 297 1309 l 1,25,-1
 323 1396 l 1,26,-1
 944 1396 l 1,27,-1
 918 1309 l 1,28,-1
 740 1258 l 1,29,-1
 517 531 l 2,0,1
590 -294 m 0,30,31
 590 -328 590 -328 610.5 -346.5 c 128,-1,32
 631 -365 631 -365 671 -365 c 0,33,34
 701 -365 701 -365 729 -356.5 c 128,-1,35
 757 -348 757 -348 802 -323 c 1,36,-1
 807 -390 l 1,37,38
 736 -442 736 -442 685 -461.5 c 128,-1,39
 634 -481 634 -481 580 -481 c 0,40,41
 507 -481 507 -481 472.5 -442.5 c 128,-1,42
 438 -404 438 -404 438 -348 c 0,43,44
 438 -311 438 -311 449.5 -274.5 c 128,-1,45
 461 -238 461 -238 497.5 -191.5 c 128,-1,46
 534 -145 534 -145 607 -78 c 2,47,-1
 746 53 l 1,48,-1
 823 53 l 1,49,-1
 695 -98 l 2,50,51
 650 -151 650 -151 627.5 -186 c 128,-1,52
 605 -221 605 -221 597.5 -246 c 128,-1,53
 590 -271 590 -271 590 -294 c 0,30,31
EndSplineSet
EndChar

StartChar: Uhorn
Encoding: 431 431 170
Width: 1648
GlyphClass: 2
Flags: W
AnchorPoint: "Anchor-4" 678 0 basechar 0
LayerCount: 2
Fore
SplineSet
517 531 m 2,0,1
 480 410 480 410 501 331.5 c 128,-1,2
 522 253 522 253 596.5 215 c 128,-1,3
 671 177 671 177 793 177 c 0,4,5
 909 177 909 177 992.5 211 c 128,-1,6
 1076 245 1076 245 1134 320 c 128,-1,7
 1192 395 1192 395 1230 521 c 2,8,-1
 1457 1260 l 1,9,-1
 1289 1309 l 1,10,-1
 1314 1396 l 1,11,-1
 1653 1396 l 2,12,13
 1759 1396 1759 1396 1799.5 1426.5 c 128,-1,14
 1840 1457 1840 1457 1840 1510 c 0,15,16
 1840 1543 1840 1543 1828 1568 c 128,-1,17
 1816 1593 1816 1593 1816 1605 c 0,18,19
 1816 1631 1816 1631 1848 1658 c 128,-1,20
 1880 1685 1880 1685 1927 1685 c 0,21,22
 1975 1685 1975 1685 2006 1656 c 128,-1,23
 2037 1627 2037 1627 2037 1574 c 0,24,25
 2037 1497 2037 1497 1996 1428.5 c 128,-1,26
 1955 1360 1955 1360 1863.5 1316.5 c 128,-1,27
 1772 1273 1772 1273 1621 1268 c 1,28,-1
 1388 505 l 2,29,30
 1331 317 1331 317 1242.5 200.5 c 128,-1,31
 1154 84 1154 84 1026 30.5 c 128,-1,32
 898 -23 898 -23 721 -23 c 0,33,34
 518 -23 518 -23 390.5 41 c 128,-1,35
 263 105 263 105 224 237 c 128,-1,36
 185 369 185 369 248 573 c 2,37,-1
 459 1260 l 1,38,-1
 297 1309 l 1,39,-1
 323 1396 l 1,40,-1
 944 1396 l 1,41,-1
 918 1309 l 1,42,-1
 740 1258 l 1,43,-1
 517 531 l 2,0,1
EndSplineSet
EndChar

StartChar: Thorn
Encoding: 222 222 195
Width: 1394
GlyphClass: 1
Flags: W
LayerCount: 2
Fore
SplineSet
767 440 m 2,0,1
 851 440 851 440 913.5 467 c 128,-1,2
 976 494 976 494 1017.5 542 c 128,-1,3
 1059 590 1059 590 1080 654 c 128,-1,4
 1101 718 1101 718 1101 793 c 0,5,6
 1101 850 1101 850 1075.5 890.5 c 128,-1,7
 1050 931 1050 931 993 951.5 c 128,-1,8
 936 972 936 972 841 972 c 2,9,-1
 524 972 l 1,10,-1
 558 1127 l 1,11,-1
 916 1127 l 2,12,13
 1081 1127 1081 1127 1182 1087.5 c 128,-1,14
 1283 1048 1283 1048 1329 975.5 c 128,-1,15
 1375 903 1375 903 1375 802 c 0,16,17
 1375 692 1375 692 1337.5 598 c 128,-1,18
 1300 504 1300 504 1223.5 433.5 c 128,-1,19
 1147 363 1147 363 1031.5 324 c 128,-1,20
 916 285 916 285 759 285 c 2,21,-1
 297 285 l 1,22,-1
 359 440 l 1,23,-1
 767 440 l 2,0,1
502 1260 m 1,24,-1
 340 1309 l 1,25,-1
 366 1396 l 1,26,-1
 987 1396 l 1,27,-1
 961 1309 l 1,28,-1
 783 1258 l 1,29,-1
 439 135 l 1,30,-1
 601 87 l 1,31,-1
 575 0 l 1,32,-1
 -47 0 l 1,33,-1
 -20 87 l 1,34,-1
 158 137 l 1,35,-1
 502 1260 l 1,24,-1
EndSplineSet
EndChar

StartChar: uni018F
Encoding: 399 399 197
Width: 1482
GlyphClass: 1
Flags: W
LayerCount: 2
Fore
SplineSet
178 697 m 1,0,-1
 1248 697 l 1,1,-1
 1200 541 l 1,2,-1
 336 541 l 1,3,-1
 417 617 l 1,4,5
 398 554 398 554 388 499 c 128,-1,6
 378 444 378 444 378 398 c 0,7,8
 378 275 378 275 445.5 210 c 128,-1,9
 513 145 513 145 653 145 c 0,10,11
 753 145 753 145 835.5 180.5 c 128,-1,12
 918 216 918 216 982 281 c 128,-1,13
 1046 346 1046 346 1090 433 c 128,-1,14
 1134 520 1134 520 1156.5 624.5 c 128,-1,15
 1179 729 1179 729 1179 844 c 0,16,17
 1179 968 1179 968 1133.5 1048 c 128,-1,18
 1088 1128 1088 1128 998.5 1167 c 128,-1,19
 909 1206 909 1206 775 1206 c 0,20,21
 683 1206 683 1206 602 1193.5 c 128,-1,22
 521 1181 521 1181 445 1156 c 128,-1,23
 369 1131 369 1131 290 1091 c 1,24,-1
 307 1212 l 1,25,26
 415 1284 415 1284 516.5 1329.5 c 128,-1,27
 618 1375 618 1375 711.5 1397 c 128,-1,28
 805 1419 805 1419 889 1419 c 0,29,30
 1065 1419 1065 1419 1190.5 1356 c 128,-1,31
 1316 1293 1316 1293 1383.5 1174.5 c 128,-1,32
 1451 1056 1451 1056 1451 890 c 0,33,34
 1451 738 1451 738 1411.5 601 c 128,-1,35
 1372 464 1372 464 1299 350 c 128,-1,36
 1226 236 1226 236 1124 152 c 128,-1,37
 1022 68 1022 68 896.5 22.5 c 128,-1,38
 771 -23 771 -23 628 -23 c 0,39,40
 468 -23 468 -23 358 29 c 128,-1,41
 248 81 248 81 191 180 c 128,-1,42
 134 279 134 279 134 422 c 0,43,44
 134 483 134 483 145 552 c 128,-1,45
 156 621 156 621 178 697 c 1,0,-1
EndSplineSet
EndChar

StartChar: a
Encoding: 97 97 204
Width: 1288
GlyphClass: 2
Flags: W
AnchorPoint: "Anchor-4" 477 0 basechar 0
AnchorPoint: "Anchor-3" 1095 0 basechar 0
AnchorPoint: "Anchor-0" 827 987 basechar 0
LayerCount: 2
Fore
SplineSet
708 100 m 2,0,-1
 842 455 l 1,1,-1
 828 455 l 1,2,3
 731 304 731 304 655 210 c 128,-1,4
 579 116 579 116 517 65.5 c 128,-1,5
 455 15 455 15 400 -4 c 128,-1,6
 345 -23 345 -23 291 -23 c 0,7,8
 218 -23 218 -23 160 4.5 c 128,-1,9
 102 32 102 32 67.5 87.5 c 128,-1,10
 33 143 33 143 33 225 c 0,11,12
 33 322 33 322 68 429.5 c 128,-1,13
 103 537 103 537 165 639.5 c 128,-1,14
 227 742 227 742 311 825 c 128,-1,15
 395 908 395 908 493.5 957.5 c 128,-1,16
 592 1007 592 1007 698 1007 c 0,17,18
 795 1007 795 1007 855.5 955.5 c 128,-1,19
 916 904 916 904 945 802 c 1,20,-1
 925 743 l 1,21,22
 895 811 895 811 850.5 839.5 c 128,-1,23
 806 868 806 868 750 868 c 0,24,25
 679 868 679 868 611.5 825.5 c 128,-1,26
 544 783 544 783 486 713.5 c 128,-1,27
 428 644 428 644 383.5 562.5 c 128,-1,28
 339 481 339 481 314.5 401 c 128,-1,29
 290 321 290 321 290 259 c 0,30,31
 290 203 290 203 320.5 175.5 c 128,-1,32
 351 148 351 148 404 148 c 0,33,34
 452 148 452 148 515.5 193.5 c 128,-1,35
 579 239 579 239 645 314 c 128,-1,36
 711 389 711 389 769 482.5 c 128,-1,37
 827 576 827 576 863 671 c 2,38,-1
 926 839 l 1,39,-1
 1052 987 l 1,40,-1
 1224 987 l 1,41,-1
 907 75 l 1,42,-1
 856 155 l 1,43,44
 911 151 911 151 968.5 160.5 c 128,-1,45
 1026 170 1026 170 1088 197 c 128,-1,46
 1150 224 1150 224 1218 272 c 1,47,-1
 1262 205 l 1,48,49
 1114 71 1114 71 1002.5 24 c 128,-1,50
 891 -23 891 -23 811 -23 c 0,51,52
 734 -23 734 -23 708.5 5.5 c 128,-1,53
 683 34 683 34 708 100 c 2,0,-1
EndSplineSet
Substitution2: "Single Substitution lookup 3 subtable" ordfeminine
EndChar

StartChar: b
Encoding: 98 98 205
Width: 1169
GlyphClass: 2
Flags: W
AnchorPoint: "Anchor-4" 383 0 basechar 0
LayerCount: 2
Fore
SplineSet
348 343 m 2,0,1
 339 313 339 313 334 286 c 128,-1,2
 329 259 329 259 329 237 c 0,3,4
 329 173 329 173 367 137.5 c 128,-1,5
 405 102 405 102 473 102 c 0,6,7
 530 102 530 102 586.5 135.5 c 128,-1,8
 643 169 643 169 692.5 227.5 c 128,-1,9
 742 286 742 286 780 361 c 128,-1,10
 818 436 818 436 840 519 c 128,-1,11
 862 602 862 602 862 685 c 0,12,13
 862 753 862 753 833 788.5 c 128,-1,14
 804 824 804 824 746 824 c 0,15,16
 708 824 708 824 665.5 804 c 128,-1,17
 623 784 623 784 580.5 748 c 128,-1,18
 538 712 538 712 499.5 663 c 128,-1,19
 461 614 461 614 429.5 555.5 c 128,-1,20
 398 497 398 497 377 432 c 2,21,-1
 348 343 l 2,0,1
372 1229 m 1,22,23
 353 1241 353 1241 321 1258 c 128,-1,24
 289 1275 289 1275 254 1293.5 c 128,-1,25
 219 1312 219 1312 190 1326 c 1,26,-1
 208 1396 l 1,27,-1
 657 1471 l 1,28,-1
 701 1471 l 1,29,-1
 397 648 l 1,30,-1
 415 654 l 1,31,32
 501 787 501 787 579.5 865 c 128,-1,33
 658 943 658 943 730.5 976.5 c 128,-1,34
 803 1010 803 1010 871 1010 c 0,35,36
 991 1010 991 1010 1057 931 c 128,-1,37
 1123 852 1123 852 1123 732 c 0,38,39
 1123 623 1123 623 1087.5 515 c 128,-1,40
 1052 407 1052 407 988 310 c 128,-1,41
 924 213 924 213 839 138 c 128,-1,42
 754 63 754 63 654 20 c 128,-1,43
 554 -23 554 -23 445 -23 c 0,44,45
 278 -23 278 -23 188.5 52 c 128,-1,46
 99 127 99 127 99 253 c 0,47,48
 99 283 99 283 104.5 316 c 128,-1,49
 110 349 110 349 120 385 c 2,50,-1
 372 1229 l 1,22,23
EndSplineSet
EndChar

StartChar: c
Encoding: 99 99 206
Width: 1003
GlyphClass: 2
Flags: W
AnchorPoint: "Anchor-4" 421 0 basechar 0
AnchorPoint: "Anchor-3" 735 0 basechar 0
AnchorPoint: "Anchor-0" 664 987 basechar 0
LayerCount: 2
Fore
SplineSet
653 891 m 0,0,1
 581 891 581 891 520.5 851.5 c 128,-1,2
 460 812 460 812 416 742 c 128,-1,3
 372 672 372 672 347.5 579.5 c 128,-1,4
 323 487 323 487 323 381 c 0,5,6
 323 254 323 254 369.5 204.5 c 128,-1,7
 416 155 416 155 515 155 c 0,8,9
 575 155 575 155 627.5 174.5 c 128,-1,10
 680 194 680 194 727 237 c 128,-1,11
 774 280 774 280 816 352 c 1,12,-1
 909 352 l 1,13,14
 854 221 854 221 785.5 138.5 c 128,-1,15
 717 56 717 56 630.5 16.5 c 128,-1,16
 544 -23 544 -23 433 -23 c 0,17,18
 252 -23 252 -23 161.5 64 c 128,-1,19
 71 151 71 151 71 330 c 0,20,21
 71 472 71 472 118 595.5 c 128,-1,22
 165 719 165 719 250 812.5 c 128,-1,23
 335 906 335 906 451.5 958 c 128,-1,24
 568 1010 568 1010 708 1010 c 0,25,26
 856 1010 856 1010 928.5 959.5 c 128,-1,27
 1001 909 1001 909 1001 836 c 0,28,29
 1001 777 1001 777 959 740 c 128,-1,30
 917 703 917 703 863 703 c 0,31,32
 846 703 846 703 823 729 c 128,-1,33
 800 755 800 755 770 798 c 0,34,35
 739 841 739 841 710 866 c 128,-1,36
 681 891 681 891 653 891 c 0,0,1
EndSplineSet
EndChar

StartChar: d
Encoding: 100 100 207
Width: 1289
GlyphClass: 2
Flags: W
AnchorPoint: "Anchor-4" 498 0 basechar 0
AnchorPoint: "Anchor-3" 1376 1448 basechar 0
AnchorPoint: "Anchor-1" 1127 1174 basechar 0
LayerCount: 2
Fore
SplineSet
926 744 m 1,0,1
 895 813 895 813 851 841.5 c 128,-1,2
 807 870 807 870 751 870 c 0,3,4
 679 870 679 870 611.5 827.5 c 128,-1,5
 544 785 544 785 486 715.5 c 128,-1,6
 428 646 428 646 383.5 564 c 128,-1,7
 339 482 339 482 314.5 402 c 128,-1,8
 290 322 290 322 290 259 c 0,9,10
 290 203 290 203 320.5 175.5 c 128,-1,11
 351 148 351 148 404 148 c 0,12,13
 444 148 444 148 495.5 179 c 128,-1,14
 547 210 547 210 603.5 265 c 128,-1,15
 660 320 660 320 714 392 c 128,-1,16
 768 464 768 464 812.5 547.5 c 128,-1,17
 857 631 857 631 885 719 c 2,18,-1
 1049 1227 l 1,19,20
 1031 1239 1031 1239 999.5 1257 c 128,-1,21
 968 1275 968 1275 933 1294 c 128,-1,22
 898 1313 898 1313 870 1326 c 1,23,-1
 887 1397 l 1,24,-1
 1334 1471 l 1,25,-1
 1378 1471 l 1,26,-1
 910 75 l 1,27,-1
 859 155 l 1,28,29
 914 151 914 151 971.5 160.5 c 128,-1,30
 1029 170 1029 170 1091 197 c 128,-1,31
 1153 224 1153 224 1221 272 c 1,32,-1
 1265 205 l 1,33,34
 1117 71 1117 71 1005.5 24 c 128,-1,35
 894 -23 894 -23 814 -23 c 0,36,37
 737 -23 737 -23 710.5 5.5 c 128,-1,38
 684 34 684 34 709 99 c 2,39,-1
 842 455 l 1,40,-1
 828 455 l 1,41,42
 731 304 731 304 655.5 210 c 128,-1,43
 580 116 580 116 517.5 65.5 c 128,-1,44
 455 15 455 15 400 -4 c 128,-1,45
 345 -23 345 -23 291 -23 c 0,46,47
 218 -23 218 -23 160 4.5 c 128,-1,48
 102 32 102 32 68 87.5 c 128,-1,49
 34 143 34 143 34 226 c 0,50,51
 34 323 34 323 68.5 430.5 c 128,-1,52
 103 538 103 538 165.5 640.5 c 128,-1,53
 228 743 228 743 312 826.5 c 128,-1,54
 396 910 396 910 494.5 959.5 c 128,-1,55
 593 1009 593 1009 699 1009 c 0,56,57
 796 1009 796 1009 856 957.5 c 128,-1,58
 916 906 916 906 946 804 c 1,59,-1
 926 744 l 1,0,1
EndSplineSet
EndChar

StartChar: e
Encoding: 101 101 208
Width: 1039
GlyphClass: 2
Flags: W
AnchorPoint: "Anchor-4" 420 0 basechar 0
AnchorPoint: "Anchor-3" 778 0 basechar 0
AnchorPoint: "Anchor-0" 662 987 basechar 0
LayerCount: 2
Fore
SplineSet
666 890 m 0,0,1
 611 890 611 890 560 866 c 128,-1,2
 509 842 509 842 465.5 797 c 128,-1,3
 422 752 422 752 390 689 c 128,-1,4
 358 626 358 626 340 548 c 128,-1,5
 322 470 322 470 322 381 c 0,6,7
 322 254 322 254 368 204.5 c 128,-1,8
 414 155 414 155 515 155 c 0,9,10
 575 155 575 155 629.5 173.5 c 128,-1,11
 684 192 684 192 733 233.5 c 128,-1,12
 782 275 782 275 826 344 c 1,13,-1
 919 344 l 1,14,15
 855 205 855 205 779.5 125 c 128,-1,16
 704 45 704 45 616.5 11 c 128,-1,17
 529 -23 529 -23 428 -23 c 0,18,19
 309 -23 309 -23 229.5 16 c 128,-1,20
 150 55 150 55 110 131.5 c 128,-1,21
 70 208 70 208 70 319 c 0,22,23
 70 436 70 436 100 540.5 c 128,-1,24
 130 645 130 645 187 730.5 c 128,-1,25
 244 816 244 816 322.5 879 c 128,-1,26
 401 942 401 942 498.5 976 c 128,-1,27
 596 1010 596 1010 708 1010 c 0,28,29
 816 1010 816 1010 882 978.5 c 128,-1,30
 948 947 948 947 978 893 c 128,-1,31
 1008 839 1008 839 1008 774 c 0,32,33
 1008 724 1008 724 992 671 c 128,-1,34
 976 618 976 618 947 573 c 1,35,36
 864 549 864 549 778.5 528 c 128,-1,37
 693 507 693 507 606.5 490 c 128,-1,38
 520 473 520 473 436 459 c 128,-1,39
 352 445 352 445 273 435 c 1,40,-1
 279 531 l 1,41,42
 423 558 423 558 517 581 c 128,-1,43
 611 604 611 604 665.5 625 c 128,-1,44
 720 646 720 646 746.5 668 c 128,-1,45
 773 690 773 690 780.5 715.5 c 128,-1,46
 788 741 788 741 788 773 c 0,47,48
 788 810 788 810 774.5 836 c 128,-1,49
 761 862 761 862 734 876 c 128,-1,50
 707 890 707 890 666 890 c 0,0,1
EndSplineSet
EndChar

StartChar: f
Encoding: 102 102 209
Width: 813
GlyphClass: 2
Flags: W
AnchorPoint: "Anchor-4" 32 -458 basechar 0
LayerCount: 2
Fore
SplineSet
130 862 m 1,0,-1
 134 987 l 1,1,-1
 912 987 l 1,2,-1
 908 862 l 1,3,-1
 130 862 l 1,0,-1
495 269 m 2,4,5
 453 69 453 69 392 -73 c 128,-1,6
 331 -215 331 -215 253 -305.5 c 128,-1,7
 175 -396 175 -396 83 -438.5 c 128,-1,8
 -9 -481 -9 -481 -114 -481 c 0,9,10
 -231 -481 -231 -481 -284.5 -437 c 128,-1,11
 -338 -393 -338 -393 -338 -316 c 0,12,13
 -338 -252 -338 -252 -295 -218 c 128,-1,14
 -252 -184 -252 -184 -162 -184 c 1,15,16
 -154 -230 -154 -230 -143.5 -263 c 128,-1,17
 -133 -296 -133 -296 -116 -318 c 0,18,19
 -99 -341 -99 -341 -77.5 -349 c 128,-1,20
 -56 -357 -56 -357 -27 -357 c 0,21,22
 12 -357 12 -357 46.5 -340 c 128,-1,23
 81 -323 81 -323 111 -283.5 c 128,-1,24
 141 -244 141 -244 166 -176.5 c 128,-1,25
 191 -109 191 -109 210 -7 c 2,26,-1
 393 956 l 2,27,28
 424 1119 424 1119 505.5 1234 c 128,-1,29
 587 1349 587 1349 709.5 1410 c 128,-1,30
 832 1471 832 1471 986 1471 c 0,31,32
 1086 1471 1086 1471 1149 1451 c 128,-1,33
 1212 1431 1212 1431 1242 1396.5 c 128,-1,34
 1272 1362 1272 1362 1272 1315 c 0,35,36
 1272 1253 1272 1253 1229.5 1219 c 128,-1,37
 1187 1185 1187 1185 1092 1185 c 1,38,39
 1081 1231 1081 1231 1068.5 1264 c 128,-1,40
 1056 1297 1056 1297 1037 1317 c 256,41,42
 1018 1337 1018 1337 992.5 1345 c 128,-1,43
 967 1353 967 1353 932 1353 c 0,44,45
 860 1353 860 1353 808 1324.5 c 128,-1,46
 756 1296 756 1296 720.5 1233.5 c 128,-1,47
 685 1171 685 1171 664 1071 c 2,48,-1
 495 269 l 2,4,5
EndSplineSet
EndChar

StartChar: g
Encoding: 103 103 210
Width: 1083
GlyphClass: 2
Flags: W
AnchorPoint: "Anchor-4" 367 -462 basechar 0
AnchorPoint: "Anchor-0" 613 987 basechar 0
LayerCount: 2
Fore
SplineSet
1107 823 m 0,0,1
 1096 823 1096 823 1077.5 830 c 128,-1,2
 1059 837 1059 837 1030 848 c 128,-1,3
 1001 859 1001 859 959.5 871.5 c 128,-1,4
 918 884 918 884 863 895 c 128,-1,5
 808 906 808 906 735 913 c 1,6,-1
 732 992 l 1,7,8
 836 988 836 988 929.5 992 c 128,-1,9
 1023 996 1023 996 1092.5 1001 c 128,-1,10
 1162 1006 1162 1006 1194 1006 c 0,11,12
 1207 1006 1207 1006 1214 1001 c 128,-1,13
 1221 996 1221 996 1221 984 c 0,14,15
 1221 966 1221 966 1209 939 c 128,-1,16
 1197 912 1197 912 1179 885.5 c 128,-1,17
 1161 859 1161 859 1141.5 841 c 128,-1,18
 1122 823 1122 823 1107 823 c 0,0,1
469 424 m 0,19,20
 514 424 514 424 553.5 443.5 c 128,-1,21
 593 463 593 463 624.5 497 c 128,-1,22
 656 531 656 531 678.5 574 c 128,-1,23
 701 617 701 617 713 665 c 128,-1,24
 725 713 725 713 725 761 c 0,25,26
 725 832 725 832 697 864.5 c 128,-1,27
 669 897 669 897 608 897 c 0,28,29
 562 897 562 897 522.5 877.5 c 128,-1,30
 483 858 483 858 451.5 824.5 c 128,-1,31
 420 791 420 791 398 748 c 128,-1,32
 376 705 376 705 363.5 656.5 c 128,-1,33
 351 608 351 608 352 560 c 0,34,35
 352 489 352 489 380 456 c 128,-1,36
 408 423 408 423 469 424 c 0,19,20
620 1010 m 0,37,38
 740 1010 740 1010 812.5 975 c 128,-1,39
 885 940 885 940 918 881.5 c 128,-1,40
 951 823 951 823 952 751 c 0,41,42
 952 664 952 664 916 585 c 128,-1,43
 880 506 880 506 814 444 c 128,-1,44
 748 382 748 382 657 346.5 c 128,-1,45
 566 311 566 311 457 311 c 0,46,47
 338 311 338 311 265 346 c 128,-1,48
 192 381 192 381 158.5 440 c 128,-1,49
 125 499 125 499 125 570 c 0,50,51
 124 657 124 657 160 736 c 128,-1,52
 196 815 196 815 262 877 c 128,-1,53
 328 939 328 939 419 974.5 c 128,-1,54
 510 1010 510 1010 620 1010 c 0,37,38
342 -481 m 0,55,56
 210 -481 210 -481 118 -463.5 c 128,-1,57
 26 -446 26 -446 -29.5 -415 c 128,-1,58
 -85 -384 -85 -384 -110.5 -341.5 c 128,-1,59
 -136 -299 -136 -299 -136 -250 c 0,60,61
 -136 -189 -136 -189 -102 -145 c 128,-1,62
 -68 -101 -68 -101 11.5 -70 c 128,-1,63
 91 -39 91 -39 230 -20 c 1,64,-1
 263 25 l 1,65,-1
 364 -38 l 1,66,67
 282 -40 282 -40 226.5 -53 c 128,-1,68
 171 -66 171 -66 137.5 -88 c 128,-1,69
 104 -110 104 -110 89.5 -140.5 c 128,-1,70
 75 -171 75 -171 75 -208 c 0,71,72
 75 -256 75 -256 106.5 -292.5 c 128,-1,73
 138 -329 138 -329 209.5 -349.5 c 128,-1,74
 281 -370 281 -370 400 -370 c 0,75,76
 501 -370 501 -370 568.5 -349.5 c 128,-1,77
 636 -329 636 -329 670 -294 c 128,-1,78
 704 -259 704 -259 704 -216 c 0,79,80
 704 -185 704 -185 689.5 -163.5 c 128,-1,81
 675 -142 675 -142 637.5 -124.5 c 128,-1,82
 600 -107 600 -107 532 -91.5 c 128,-1,83
 464 -76 464 -76 356 -59 c 0,84,85
 227 -39 227 -39 162.5 -8 c 128,-1,86
 98 23 98 23 77 62 c 128,-1,87
 56 101 56 101 56 146 c 0,88,89
 56 215 56 215 100 256.5 c 128,-1,90
 144 298 144 298 224.5 320.5 c 128,-1,91
 305 343 305 343 412 351 c 1,92,-1
 416 321 l 1,93,94
 316 318 316 318 278.5 296.5 c 128,-1,95
 241 275 241 275 241 240 c 0,96,97
 241 222 241 222 251 208.5 c 128,-1,98
 261 195 261 195 290 183 c 128,-1,99
 319 171 319 171 375.5 159.5 c 128,-1,100
 432 148 432 148 525 133 c 0,101,102
 680 109 680 109 768 70 c 128,-1,103
 856 31 856 31 891.5 -22 c 128,-1,104
 927 -75 927 -75 927 -146 c 0,105,106
 927 -219 927 -219 893 -280 c 128,-1,107
 859 -341 859 -341 788 -386 c 128,-1,108
 717 -431 717 -431 606.5 -456 c 128,-1,109
 496 -481 496 -481 342 -481 c 0,55,56
EndSplineSet
EndChar

StartChar: h
Encoding: 104 104 211
Width: 1286
GlyphClass: 2
Flags: W
AnchorPoint: "Anchor-4" 490 0 basechar 0
AnchorPoint: "Anchor-1" 532 1174 basechar 0
LayerCount: 2
Fore
SplineSet
351 220 m 2,0,-1
 281 0 l 1,1,-1
 25 0 l 1,2,-1
 396 1229 l 1,3,4
 378 1240 378 1240 346.5 1257.5 c 128,-1,5
 315 1275 315 1275 279.5 1293.5 c 128,-1,6
 244 1312 244 1312 215 1326 c 1,7,-1
 233 1397 l 1,8,-1
 680 1471 l 1,9,-1
 724 1471 l 1,10,-1
 345 458 l 1,11,-1
 371 461 l 1,12,13
 445 614 445 614 515.5 719.5 c 128,-1,14
 586 825 586 825 656 889 c 128,-1,15
 726 953 726 953 798.5 981.5 c 128,-1,16
 871 1010 871 1010 950 1010 c 0,17,18
 1060 1010 1060 1010 1110.5 958 c 128,-1,19
 1161 906 1161 906 1161 828 c 0,20,21
 1161 787 1161 787 1148 731.5 c 128,-1,22
 1135 676 1135 676 1100 589 c 2,23,-1
 892 83 l 1,24,-1
 848 159 l 1,25,26
 898 156 898 156 951.5 166 c 128,-1,27
 1005 176 1005 176 1066.5 202 c 128,-1,28
 1128 228 1128 228 1203 272 c 1,29,-1
 1248 202 l 1,30,31
 1145 115 1145 115 1057 65.5 c 128,-1,32
 969 16 969 16 895 -3.5 c 128,-1,33
 821 -23 821 -23 756 -23 c 0,34,35
 681 -23 681 -23 653.5 10 c 128,-1,36
 626 43 626 43 657 119 c 2,37,-1
 859 611 l 2,38,39
 882 668 882 668 890 698 c 128,-1,40
 898 728 898 728 898 749 c 0,41,42
 898 777 898 777 878.5 793.5 c 128,-1,43
 859 810 859 810 816 810 c 0,44,45
 756 810 756 810 692 769 c 128,-1,46
 628 728 628 728 566.5 650.5 c 128,-1,47
 505 573 505 573 450 464 c 128,-1,48
 395 355 395 355 351 220 c 2,0,-1
EndSplineSet
EndChar

StartChar: i
Encoding: 105 105 212
Width: 754
GlyphClass: 2
Flags: W
AnchorPoint: "Anchor-4" 236 0 basechar 0
AnchorPoint: "Anchor-3" 420 0 basechar 0
AnchorPoint: "Anchor-0" 671 1406 basechar 0
LayerCount: 2
Fore
SplineSet
126 148 m 2,0,-1
 419 899 l 1,1,-1
 471 828 l 1,2,3
 416 831 416 831 359 819 c 128,-1,4
 302 807 302 807 238.5 777 c 128,-1,5
 175 747 175 747 100 694 c 1,6,-1
 49 763 l 1,7,8
 164 864 164 864 253.5 917.5 c 128,-1,9
 343 971 343 971 413.5 990.5 c 128,-1,10
 484 1010 484 1010 541 1010 c 0,11,12
 633 1010 633 1010 658 970 c 128,-1,13
 683 930 683 930 647 839 c 2,14,-1
 353 83 l 1,15,-1
 298 161 l 1,16,17
 355 157 355 157 412.5 166 c 128,-1,18
 470 175 470 175 529.5 200.5 c 128,-1,19
 589 226 589 226 653 269 c 1,20,-1
 698 199 l 1,21,22
 598 113 598 113 512 64.5 c 128,-1,23
 426 16 426 16 353.5 -3.5 c 128,-1,24
 281 -23 281 -23 218 -23 c 0,25,26
 133 -23 133 -23 109.5 12.5 c 128,-1,27
 86 48 86 48 126 148 c 2,0,-1
469 1308 m 0,28,29
 469 1354 469 1354 490.5 1390.5 c 128,-1,30
 512 1427 512 1427 556 1448.5 c 128,-1,31
 600 1470 600 1470 668 1470 c 0,32,33
 751 1470 751 1470 793.5 1436.5 c 128,-1,34
 836 1403 836 1403 836 1347 c 0,35,36
 836 1300 836 1300 814.5 1263.5 c 128,-1,37
 793 1227 793 1227 749 1205.5 c 128,-1,38
 705 1184 705 1184 637 1184 c 0,39,40
 554 1184 554 1184 511.5 1217.5 c 128,-1,41
 469 1251 469 1251 469 1308 c 0,28,29
EndSplineSet
EndChar

StartChar: j
Encoding: 106 106 213
Width: 684
GlyphClass: 2
Flags: W
AnchorPoint: "Anchor-4" -41 -458 basechar 0
AnchorPoint: "Anchor-0" 623 1406 basechar 0
LayerCount: 2
Fore
SplineSet
441 1308 m 0,0,1
 441 1354 441 1354 462.5 1390.5 c 128,-1,2
 484 1427 484 1427 528 1448.5 c 128,-1,3
 572 1470 572 1470 639 1470 c 0,4,5
 723 1470 723 1470 765 1436.5 c 128,-1,6
 807 1403 807 1403 807 1347 c 0,7,8
 807 1300 807 1300 785.5 1263.5 c 128,-1,9
 764 1227 764 1227 720.5 1205.5 c 128,-1,10
 677 1184 677 1184 609 1184 c 0,11,12
 526 1184 526 1184 483.5 1217.5 c 128,-1,13
 441 1251 441 1251 441 1308 c 0,0,1
412 152 m 2,14,15
 348 -63 348 -63 251.5 -203.5 c 128,-1,16
 155 -344 155 -344 39.5 -412.5 c 128,-1,17
 -76 -481 -76 -481 -199 -481 c 0,18,19
 -302 -481 -302 -481 -346.5 -437.5 c 128,-1,20
 -391 -394 -391 -394 -391 -329 c 0,21,22
 -391 -273 -391 -273 -355.5 -235 c 128,-1,23
 -320 -197 -320 -197 -268 -197 c 0,24,25
 -260 -197 -260 -197 -239.5 -217.5 c 128,-1,26
 -219 -238 -219 -238 -190 -269 c 0,27,28
 -161 -299 -161 -299 -140.5 -316 c 128,-1,29
 -120 -333 -120 -333 -108 -333 c 0,30,31
 -78 -333 -78 -333 -49.5 -319 c 128,-1,32
 -21 -305 -21 -305 7.5 -268 c 128,-1,33
 36 -231 36 -231 66.5 -160.5 c 128,-1,34
 97 -90 97 -90 131 24 c 2,35,-1
 391 899 l 1,36,-1
 443 828 l 1,37,38
 394 831 394 831 341 819 c 128,-1,39
 288 807 288 807 226 776 c 128,-1,40
 164 745 164 745 86 690 c 1,41,-1
 36 760 l 1,42,43
 143 854 143 854 228 909 c 128,-1,44
 313 964 313 964 383 987 c 128,-1,45
 453 1010 453 1010 513 1010 c 0,46,47
 574 1010 574 1010 602.5 993.5 c 128,-1,48
 631 977 631 977 633.5 939.5 c 128,-1,49
 636 902 636 902 617 839 c 2,50,-1
 412 152 l 2,14,15
EndSplineSet
EndChar

StartChar: k
Encoding: 107 107 214
Width: 1232
GlyphClass: 2
Flags: W
AnchorPoint: "Anchor-4" 505 0 basechar 0
LayerCount: 2
Fore
SplineSet
722 1471 m 1,0,-1
 274 0 l 1,1,-1
 23 0 l 1,2,-1
 399 1229 l 1,3,4
 381 1241 381 1241 349 1258.5 c 128,-1,5
 317 1276 317 1276 282 1294 c 128,-1,6
 247 1312 247 1312 218 1326 c 1,7,-1
 235 1397 l 1,8,-1
 678 1471 l 1,9,-1
 722 1471 l 1,0,-1
426 543 m 1,10,-1
 441 575 l 1,11,12
 582 710 582 710 680.5 795 c 128,-1,13
 779 880 779 880 849 927 c 128,-1,14
 919 974 919 974 974.5 992 c 128,-1,15
 1030 1010 1030 1010 1086 1010 c 0,16,17
 1166 1010 1166 1010 1205.5 970.5 c 128,-1,18
 1245 931 1245 931 1245 873 c 0,19,20
 1245 813 1245 813 1218 774 c 128,-1,21
 1191 735 1191 735 1153 716 c 128,-1,22
 1115 697 1115 697 1081 697 c 0,23,24
 1073 697 1073 697 1058 717 c 128,-1,25
 1043 737 1043 737 1025 764 c 0,26,27
 1008 790 1008 790 990 807 c 128,-1,28
 972 824 972 824 956 824 c 0,29,30
 933 824 933 824 902 811.5 c 128,-1,31
 871 799 871 799 824.5 769.5 c 128,-1,32
 778 740 778 740 710 687.5 c 128,-1,33
 642 635 642 635 545 555 c 1,34,-1
 625 674 l 1,35,36
 691 513 691 513 736.5 412.5 c 128,-1,37
 782 312 782 312 814 257.5 c 128,-1,38
 846 203 846 203 871 182.5 c 128,-1,39
 896 162 896 162 921 162 c 0,40,41
 943 162 943 162 969 176.5 c 128,-1,42
 995 191 995 191 1029.5 221.5 c 128,-1,43
 1064 252 1064 252 1109 299 c 1,44,-1
 1163 242 l 1,45,46
 1084 145 1084 145 1016.5 86.5 c 128,-1,47
 949 28 949 28 892.5 2.5 c 128,-1,48
 836 -23 836 -23 788 -23 c 0,49,50
 746 -23 746 -23 708 1.5 c 128,-1,51
 670 26 670 26 629 88.5 c 128,-1,52
 588 151 588 151 539 261.5 c 128,-1,53
 490 372 490 372 426 543 c 1,10,-1
EndSplineSet
EndChar

StartChar: l
Encoding: 108 108 215
Width: 691
GlyphClass: 2
Flags: W
AnchorPoint: "Anchor-4" 198 0 basechar 0
AnchorPoint: "Anchor-3" 734 1448 basechar 0
LayerCount: 2
Fore
SplineSet
411 1229 m 1,0,1
 394 1241 394 1241 362 1258.5 c 128,-1,2
 330 1276 330 1276 295 1294 c 128,-1,3
 260 1312 260 1312 231 1326 c 1,4,-1
 248 1397 l 1,5,-1
 692 1471 l 1,6,-1
 736 1471 l 1,7,-1
 302 81 l 1,8,-1
 249 164 l 1,9,10
 306 159 306 159 364.5 168 c 128,-1,11
 423 177 423 177 484 202.5 c 128,-1,12
 545 228 545 228 609 271 c 1,13,-1
 654 201 l 1,14,15
 551 113 551 113 465 64 c 128,-1,16
 379 15 379 15 307 -4 c 128,-1,17
 235 -23 235 -23 172 -23 c 0,18,19
 95 -23 95 -23 70 13.5 c 128,-1,20
 45 50 45 50 75 147 c 2,21,-1
 411 1229 l 1,0,1
EndSplineSet
EndChar

StartChar: m
Encoding: 109 109 216
Width: 1940
GlyphClass: 2
Flags: W
AnchorPoint: "Anchor-4" 844 0 basechar 0
AnchorPoint: "Anchor-0" 1146 987 basechar 0
LayerCount: 2
Fore
SplineSet
1544 83 m 1,0,-1
 1500 159 l 1,1,2
 1551 156 1551 156 1604 166 c 128,-1,3
 1657 176 1657 176 1718.5 202 c 128,-1,4
 1780 228 1780 228 1855 272 c 1,5,-1
 1900 202 l 1,6,7
 1797 115 1797 115 1709.5 65.5 c 128,-1,8
 1622 16 1622 16 1547.5 -3.5 c 128,-1,9
 1473 -23 1473 -23 1408 -23 c 0,10,11
 1333 -23 1333 -23 1305.5 10 c 128,-1,12
 1278 43 1278 43 1309 119 c 2,13,-1
 1513 614 l 2,14,15
 1536 670 1536 670 1544.5 700 c 128,-1,16
 1553 730 1553 730 1553 749 c 0,17,18
 1553 778 1553 778 1535 795 c 128,-1,19
 1517 812 1517 812 1474 812 c 0,20,21
 1418 812 1418 812 1360 772.5 c 128,-1,22
 1302 733 1302 733 1245 658.5 c 128,-1,23
 1188 584 1188 584 1135 478 c 128,-1,24
 1082 372 1082 372 1036 238 c 2,25,-1
 957 0 l 1,26,-1
 699 0 l 1,27,-1
 907 615 l 2,28,29
 920 653 920 653 927.5 678.5 c 128,-1,30
 935 704 935 704 938 721 c 128,-1,31
 941 738 941 738 941 751 c 0,32,33
 941 779 941 779 923.5 795.5 c 128,-1,34
 906 812 906 812 866 812 c 0,35,36
 810 812 810 812 754 771.5 c 128,-1,37
 698 731 698 731 644 654 c 128,-1,38
 590 577 590 577 540 467.5 c 128,-1,39
 490 358 490 358 445 220 c 2,40,-1
 374 0 l 1,41,-1
 119 0 l 1,42,-1
 367 817 l 1,43,44
 364 817 364 817 361 817 c 128,-1,45
 358 817 358 817 355 817 c 0,46,47
 297 817 297 817 251 804.5 c 128,-1,48
 205 792 205 792 166 759.5 c 128,-1,49
 127 727 127 727 87 666 c 1,50,-1
 60 676 l 1,51,52
 95 807 95 807 151 879.5 c 128,-1,53
 207 952 207 952 286.5 980.5 c 128,-1,54
 366 1009 366 1009 467 1009 c 0,55,56
 493 1009 493 1009 514 1008 c 128,-1,57
 535 1007 535 1007 557 1005.5 c 128,-1,58
 579 1004 579 1004 605 1001 c 1,59,-1
 436 459 l 1,60,-1
 463 461 l 1,61,62
 539 626 539 626 605 733.5 c 128,-1,63
 671 841 671 841 731 901 c 128,-1,64
 791 961 791 961 849 985.5 c 128,-1,65
 907 1010 907 1010 966 1010 c 0,66,67
 1060 1010 1060 1010 1101.5 967.5 c 128,-1,68
 1143 925 1143 925 1143 853 c 0,69,70
 1143 811 1143 811 1131 761.5 c 128,-1,71
 1119 712 1119 712 1094 638 c 2,72,-1
 1038 466 l 1,73,-1
 1063 466 l 1,74,75
 1138 625 1138 625 1206 730.5 c 128,-1,76
 1274 836 1274 836 1339.5 897.5 c 128,-1,77
 1405 959 1405 959 1470.5 985 c 128,-1,78
 1536 1011 1536 1011 1604 1011 c 0,79,80
 1713 1011 1713 1011 1764 959.5 c 128,-1,81
 1815 908 1815 908 1815 831 c 0,82,83
 1815 790 1815 790 1802 733.5 c 128,-1,84
 1789 677 1789 677 1752 589 c 2,85,-1
 1544 83 l 1,0,-1
EndSplineSet
EndChar

StartChar: n
Encoding: 110 110 217
Width: 1380
GlyphClass: 2
Flags: W
AnchorPoint: "Anchor-4" 582 0 basechar 0
AnchorPoint: "Anchor-0" 833 987 basechar 0
LayerCount: 2
Fore
SplineSet
87 666 m 1,0,-1
 60 676 l 1,1,2
 95 807 95 807 151 879.5 c 128,-1,3
 207 952 207 952 286.5 980.5 c 128,-1,4
 366 1009 366 1009 467 1009 c 0,5,6
 493 1009 493 1009 514.5 1008 c 128,-1,7
 536 1007 536 1007 558 1005.5 c 128,-1,8
 580 1004 580 1004 606 1001 c 1,9,-1
 435 454 l 1,10,-1
 462 456 l 1,11,12
 537 611 537 611 607.5 717 c 128,-1,13
 678 823 678 823 748.5 887.5 c 128,-1,14
 819 952 819 952 892 981 c 128,-1,15
 965 1010 965 1010 1044 1010 c 0,16,17
 1154 1010 1154 1010 1204.5 958 c 128,-1,18
 1255 906 1255 906 1255 828 c 0,19,20
 1255 787 1255 787 1242 731.5 c 128,-1,21
 1229 676 1229 676 1193 589 c 2,22,-1
 986 83 l 1,23,-1
 942 159 l 1,24,25
 992 156 992 156 1045.5 166 c 128,-1,26
 1099 176 1099 176 1160.5 202 c 128,-1,27
 1222 228 1222 228 1297 272 c 1,28,-1
 1342 202 l 1,29,30
 1239 115 1239 115 1151 65.5 c 128,-1,31
 1063 16 1063 16 989 -3.5 c 128,-1,32
 915 -23 915 -23 849 -23 c 0,33,34
 774 -23 774 -23 746.5 10 c 128,-1,35
 719 43 719 43 751 119 c 2,36,-1
 953 611 l 2,37,38
 975 668 975 668 983.5 698 c 128,-1,39
 992 728 992 728 992 749 c 0,40,41
 992 777 992 777 972.5 793.5 c 128,-1,42
 953 810 953 810 910 810 c 0,43,44
 849 810 849 810 785.5 769 c 128,-1,45
 722 728 722 728 660.5 650.5 c 128,-1,46
 599 573 599 573 544 464 c 128,-1,47
 489 355 489 355 445 220 c 2,48,-1
 374 0 l 1,49,-1
 119 0 l 1,50,-1
 367 817 l 1,51,52
 364 817 364 817 361 817 c 128,-1,53
 358 817 358 817 355 817 c 0,54,55
 297 817 297 817 251 804.5 c 128,-1,56
 205 792 205 792 166 759.5 c 128,-1,57
 127 727 127 727 87 666 c 1,0,-1
EndSplineSet
EndChar

StartChar: o
Encoding: 111 111 218
Width: 1146
GlyphClass: 2
Flags: W
AnchorPoint: "Anchor-4" 421 0 basechar 0
AnchorPoint: "Anchor-3" 551 0 basechar 0
AnchorPoint: "Anchor-2" 872 987 basechar 0
AnchorPoint: "Anchor-0" 711 987 basechar 0
LayerCount: 2
Fore
SplineSet
685 1010 m 0,0,1
 816 1010 816 1010 902 964 c 128,-1,2
 988 918 988 918 1030.5 837 c 128,-1,3
 1073 756 1073 756 1073 651 c 0,4,5
 1073 517 1073 517 1028.5 396 c 128,-1,6
 984 275 984 275 902.5 180.5 c 128,-1,7
 821 86 821 86 708.5 31.5 c 128,-1,8
 596 -23 596 -23 460 -23 c 0,9,10
 329 -23 329 -23 243 23 c 128,-1,11
 157 69 157 69 114 150.5 c 128,-1,12
 71 232 71 232 71 337 c 0,13,14
 71 470 71 470 116 591.5 c 128,-1,15
 161 713 161 713 242.5 807 c 128,-1,16
 324 901 324 901 436.5 955.5 c 128,-1,17
 549 1010 549 1010 685 1010 c 0,0,1
469 123 m 0,18,19
 532 123 532 123 587 155.5 c 128,-1,20
 642 188 642 188 685.5 244.5 c 128,-1,21
 729 301 729 301 760 373.5 c 128,-1,22
 791 446 791 446 807.5 526.5 c 128,-1,23
 824 607 824 607 824 687 c 0,24,25
 824 776 824 776 786 820 c 128,-1,26
 748 864 748 864 675 864 c 0,27,28
 612 864 612 864 557.5 831.5 c 128,-1,29
 503 799 503 799 459.5 743 c 128,-1,30
 416 687 416 687 385 614 c 128,-1,31
 354 541 354 541 337.5 460.5 c 128,-1,32
 321 380 321 380 321 300 c 0,33,34
 321 212 321 212 359 167.5 c 128,-1,35
 397 123 397 123 469 123 c 0,18,19
EndSplineSet
Substitution2: "Single Substitution lookup 3 subtable" ordmasculine
EndChar

StartChar: p
Encoding: 112 112 219
Width: 1290
GlyphClass: 2
Flags: W
AnchorPoint: "Anchor-4" 115 -458 basechar 0
AnchorPoint: "Anchor-0" 792 987 basechar 0
LayerCount: 2
Fore
SplineSet
443 299 m 2,0,1
 436 274 436 274 433.5 256.5 c 128,-1,2
 431 239 431 239 431 225 c 0,3,4
 431 168 431 168 470.5 131 c 128,-1,5
 510 94 510 94 591 94 c 0,6,7
 651 94 651 94 706 126.5 c 128,-1,8
 761 159 761 159 808.5 216 c 128,-1,9
 856 273 856 273 891.5 345.5 c 128,-1,10
 927 418 927 418 946.5 499 c 128,-1,11
 966 580 966 580 966 661 c 0,12,13
 966 749 966 749 934.5 787.5 c 128,-1,14
 903 826 903 826 841 826 c 0,15,16
 799 826 799 826 754.5 802 c 128,-1,17
 710 778 710 778 666.5 736 c 128,-1,18
 623 694 623 694 585 641.5 c 128,-1,19
 547 589 547 589 519 532.5 c 128,-1,20
 491 476 491 476 476 423 c 2,21,-1
 443 299 l 2,0,1
312 137 m 1,22,-1
 412 137 l 1,23,-1
 272 -338 l 1,24,-1
 445 -378 l 1,25,-1
 420 -458 l 1,26,-1
 -142 -458 l 1,27,-1
 -118 -378 l 1,28,-1
 25 -338 l 1,29,-1
 366 818 l 1,30,31
 364 818 364 818 361 818 c 128,-1,32
 358 818 358 818 355 818 c 0,33,34
 295 818 295 818 249 805 c 128,-1,35
 203 792 203 792 163 759.5 c 128,-1,36
 123 727 123 727 84 666 c 1,37,-1
 58 676 l 1,38,39
 92 807 92 807 149 879.5 c 128,-1,40
 206 952 206 952 286.5 981 c 128,-1,41
 367 1010 367 1010 469 1010 c 0,42,43
 507 1010 507 1010 537.5 1008 c 128,-1,44
 568 1006 568 1006 603 1001 c 1,45,-1
 485 623 l 1,46,-1
 503 628 l 1,47,48
 580 764 580 764 655.5 848 c 128,-1,49
 731 932 731 932 806.5 971 c 128,-1,50
 882 1010 882 1010 960 1010 c 0,51,52
 1094 1010 1094 1010 1163 927 c 128,-1,53
 1232 844 1232 844 1232 711 c 0,54,55
 1232 599 1232 599 1200.5 491.5 c 128,-1,56
 1169 384 1169 384 1111.5 291 c 128,-1,57
 1054 198 1054 198 975 127.5 c 128,-1,58
 896 57 896 57 800.5 17 c 128,-1,59
 705 -23 705 -23 598 -23 c 0,60,61
 485 -23 485 -23 407 17.5 c 128,-1,62
 329 58 329 58 312 137 c 1,22,-1
EndSplineSet
EndChar

StartChar: q
Encoding: 113 113 220
Width: 1212
GlyphClass: 2
Flags: W
AnchorPoint: "Anchor-4" 656 -458 basechar 0
AnchorPoint: "Anchor-0" 790 987 basechar 0
LayerCount: 2
Fore
SplineSet
565 -339 m 1,0,-1
 801 379 l 1,1,-1
 789 379 l 1,2,3
 703 250 703 250 633.5 170 c 128,-1,4
 564 90 564 90 505.5 48.5 c 128,-1,5
 447 7 447 7 394.5 -8 c 128,-1,6
 342 -23 342 -23 291 -23 c 0,7,8
 218 -23 218 -23 160 4.5 c 128,-1,9
 102 32 102 32 67.5 87.5 c 128,-1,10
 33 143 33 143 33 225 c 0,11,12
 33 322 33 322 68 429.5 c 128,-1,13
 103 537 103 537 165 639.5 c 128,-1,14
 227 742 227 742 311 825 c 128,-1,15
 395 908 395 908 493.5 957.5 c 128,-1,16
 592 1007 592 1007 698 1007 c 0,17,18
 795 1007 795 1007 855.5 955.5 c 128,-1,19
 916 904 916 904 945 802 c 1,20,-1
 925 743 l 1,21,22
 895 811 895 811 850.5 839.5 c 128,-1,23
 806 868 806 868 750 868 c 0,24,25
 679 868 679 868 611.5 825.5 c 128,-1,26
 544 783 544 783 486 713.5 c 128,-1,27
 428 644 428 644 383.5 562.5 c 128,-1,28
 339 481 339 481 314.5 401 c 128,-1,29
 290 321 290 321 290 259 c 0,30,31
 290 203 290 203 321.5 175.5 c 128,-1,32
 353 148 353 148 407 148 c 0,33,34
 457 148 457 148 520 187.5 c 128,-1,35
 583 227 583 227 646 294 c 128,-1,36
 709 361 709 361 763 447 c 128,-1,37
 817 533 817 533 850 626 c 2,38,-1
 921 825 l 1,39,-1
 1019 987 l 1,40,-1
 1204 987 l 1,41,-1
 819 -336 l 1,42,-1
 954 -378 l 1,43,-1
 930 -458 l 1,44,-1
 361 -458 l 1,45,-1
 384 -378 l 1,46,-1
 565 -339 l 1,0,-1
EndSplineSet
EndChar

StartChar: r
Encoding: 114 114 221
Width: 1050
GlyphClass: 2
Flags: W
AnchorPoint: "Anchor-4" 247 0 basechar 0
AnchorPoint: "Anchor-0" 670 987 basechar 0
LayerCount: 2
Fore
SplineSet
367 817 m 1,0,1
 364 817 364 817 361 817 c 128,-1,2
 358 817 358 817 355 817 c 0,3,4
 297 817 297 817 251 804.5 c 128,-1,5
 205 792 205 792 166 759.5 c 128,-1,6
 127 727 127 727 87 666 c 1,7,-1
 60 676 l 1,8,9
 95 807 95 807 151 879.5 c 128,-1,10
 207 952 207 952 286.5 980.5 c 128,-1,11
 366 1009 366 1009 467 1009 c 0,12,13
 495 1009 495 1009 517.5 1008 c 128,-1,14
 540 1007 540 1007 562 1005.5 c 128,-1,15
 584 1004 584 1004 608 1001 c 1,16,-1
 450 500 l 1,17,-1
 477 502 l 1,18,19
 571 692 571 692 652.5 803 c 128,-1,20
 734 914 734 914 811.5 962 c 128,-1,21
 889 1010 889 1010 970 1010 c 0,22,23
 1053 1010 1053 1010 1091 971.5 c 128,-1,24
 1129 933 1129 933 1129 877 c 256,25,26
 1129 821 1129 821 1101.5 779 c 128,-1,27
 1074 737 1074 737 1037 714 c 128,-1,28
 1000 691 1000 691 971 691 c 0,29,30
 965 691 965 691 947 707 c 128,-1,31
 929 723 929 723 907 744 c 0,32,33
 886 766 886 766 865 781.5 c 128,-1,34
 844 797 844 797 830 797 c 0,35,36
 796 797 796 797 756.5 769.5 c 128,-1,37
 717 742 717 742 675.5 691.5 c 128,-1,38
 634 641 634 641 593.5 571 c 128,-1,39
 553 501 553 501 515.5 416 c 128,-1,40
 478 331 478 331 448 235 c 2,41,-1
 374 0 l 1,42,-1
 118 0 l 1,43,-1
 367 817 l 1,0,1
EndSplineSet
EndChar

StartChar: s
Encoding: 115 115 222
Width: 940
GlyphClass: 2
Flags: W
AnchorPoint: "Anchor-4" 382 0 basechar 0
AnchorPoint: "Anchor-0" 591 987 basechar 0
LayerCount: 2
Fore
SplineSet
206 285 m 1,0,1
 216 230 216 230 227.5 195 c 128,-1,2
 239 160 239 160 261 134 c 0,3,4
 282 108 282 108 308 99.5 c 128,-1,5
 334 91 334 91 372 91 c 0,6,7
 440 91 440 91 491.5 109 c 128,-1,8
 543 127 543 127 572.5 161.5 c 128,-1,9
 602 196 602 196 602 247 c 0,10,11
 602 283 602 283 586.5 311.5 c 128,-1,12
 571 340 571 340 529 368 c 128,-1,13
 487 396 487 396 403 429 c 0,14,15
 321 463 321 463 273 500 c 128,-1,16
 225 537 225 537 205 582.5 c 128,-1,17
 185 628 185 628 185 688 c 0,18,19
 185 784 185 784 238 856.5 c 128,-1,20
 291 929 291 929 389.5 969.5 c 128,-1,21
 488 1010 488 1010 626 1010 c 0,22,23
 724 1010 724 1010 788.5 990.5 c 128,-1,24
 853 971 853 971 884.5 935 c 128,-1,25
 916 899 916 899 916 848 c 0,26,27
 916 810 916 810 898 782 c 128,-1,28
 880 754 880 754 842.5 738.5 c 128,-1,29
 805 723 805 723 746 723 c 1,30,31
 734 770 734 770 719.5 800.5 c 128,-1,32
 705 831 705 831 684 854 c 0,33,34
 662 876 662 876 636.5 885.5 c 128,-1,35
 611 895 611 895 577 895 c 0,36,37
 491 895 491 895 441 862 c 128,-1,38
 391 829 391 829 391 772 c 0,39,40
 391 742 391 742 405 717 c 128,-1,41
 419 692 419 692 461 664 c 128,-1,42
 503 636 503 636 588 597 c 0,43,44
 673 559 673 559 720 517.5 c 128,-1,45
 767 476 767 476 785.5 428 c 128,-1,46
 804 380 804 380 804 322 c 0,47,48
 804 214 804 214 745 136.5 c 128,-1,49
 686 59 686 59 579 18 c 128,-1,50
 472 -23 472 -23 328 -23 c 0,51,52
 214 -23 214 -23 146 0.5 c 128,-1,53
 78 24 78 24 47 64 c 128,-1,54
 16 104 16 104 16 153 c 0,55,56
 16 196 16 196 33 225 c 128,-1,57
 50 254 50 254 91.5 269.5 c 128,-1,58
 133 285 133 285 206 285 c 1,0,1
EndSplineSet
EndChar

StartChar: t
Encoding: 116 116 223
Width: 845
GlyphClass: 2
Flags: W
AnchorPoint: "Anchor-4" 347 0 basechar 0
AnchorPoint: "Anchor-3" 772 1487 basechar 0
LayerCount: 2
Fore
SplineSet
139 862 m 1,0,-1
 145 987 l 1,1,-1
 896 987 l 1,2,-1
 892 862 l 1,3,-1
 139 862 l 1,0,-1
457 367 m 2,4,5
 443 321 443 321 434.5 289.5 c 128,-1,6
 426 258 426 258 422.5 238 c 128,-1,7
 419 218 419 218 419 206 c 0,8,9
 419 182 419 182 428.5 174 c 128,-1,10
 438 166 438 166 456 166 c 0,11,12
 478 166 478 166 510 179 c 128,-1,13
 542 192 542 192 589.5 224.5 c 128,-1,14
 637 257 637 257 702 314 c 1,15,-1
 758 248 l 1,16,17
 683 170 683 170 617 118 c 128,-1,18
 551 66 551 66 494.5 35 c 128,-1,19
 438 4 438 4 389.5 -9.5 c 128,-1,20
 341 -23 341 -23 300 -23 c 0,21,22
 235 -23 235 -23 199 12.5 c 128,-1,23
 163 48 163 48 163 125 c 0,24,25
 163 162 163 162 174 215.5 c 128,-1,26
 185 269 185 269 211 350 c 2,27,-1
 480 1212 l 1,28,-1
 726 1212 l 1,29,-1
 457 367 l 2,4,5
EndSplineSet
EndChar

StartChar: u
Encoding: 117 117 224
Width: 1339
GlyphClass: 2
Flags: W
AnchorPoint: "Anchor-4" 550 0 basechar 0
AnchorPoint: "Anchor-3" 1128 0 basechar 0
AnchorPoint: "Anchor-2" 1185 987 basechar 0
AnchorPoint: "Anchor-0" 781 987 basechar 0
LayerCount: 2
Fore
SplineSet
781 99 m 2,0,-1
 901 459 l 1,1,-1
 879 456 l 1,2,3
 795 305 795 305 727 210 c 128,-1,4
 659 115 659 115 599 64.5 c 128,-1,5
 539 14 539 14 480 -4.5 c 128,-1,6
 421 -23 421 -23 355 -23 c 0,7,8
 247 -23 247 -23 196 27.5 c 128,-1,9
 145 78 145 78 145 156 c 0,10,11
 145 195 145 195 158 252 c 128,-1,12
 171 309 171 309 209 408 c 2,13,-1
 399 904 l 1,14,-1
 445 830 l 1,15,16
 390 831 390 831 334 816 c 128,-1,17
 278 801 278 801 219.5 769.5 c 128,-1,18
 161 738 161 738 97 687 c 1,19,-1
 45 755 l 1,20,21
 147 855 147 855 234 910.5 c 128,-1,22
 321 966 321 966 394.5 988 c 128,-1,23
 468 1010 468 1010 529 1010 c 0,24,25
 611 1010 611 1010 635.5 968.5 c 128,-1,26
 660 927 660 927 625 837 c 2,27,-1
 437 352 l 2,28,29
 420 306 420 306 411.5 276 c 128,-1,30
 403 246 403 246 403 226 c 0,31,32
 403 197 403 197 423.5 182 c 128,-1,33
 444 167 444 167 481 167 c 0,34,35
 519 167 519 167 566.5 190 c 128,-1,36
 614 213 614 213 666.5 267 c 128,-1,37
 719 321 719 321 772.5 414 c 128,-1,38
 826 507 826 507 876 648 c 2,39,-1
 1000 987 l 1,40,-1
 1256 987 l 1,41,-1
 962 74 l 1,42,-1
 908 155 l 1,43,44
 962 151 962 151 1019 161.5 c 128,-1,45
 1076 172 1076 172 1139.5 199.5 c 128,-1,46
 1203 227 1203 227 1273 275 c 1,47,-1
 1318 207 l 1,48,49
 1170 73 1170 73 1057.5 25 c 128,-1,50
 945 -23 945 -23 873 -23 c 0,51,52
 807 -23 807 -23 783.5 5.5 c 128,-1,53
 760 34 760 34 781 99 c 2,0,-1
EndSplineSet
EndChar

StartChar: v
Encoding: 118 118 225
Width: 1207
GlyphClass: 2
Flags: W
AnchorPoint: "Anchor-4" 483 0 basechar 0
AnchorPoint: "Anchor-0" 750 987 basechar 0
LayerCount: 2
Fore
SplineSet
1148 794 m 0,0,1
 1148 662 1148 662 1110.5 541 c 128,-1,2
 1073 420 1073 420 1006 317 c 128,-1,3
 939 214 939 214 851.5 138 c 128,-1,4
 764 62 764 62 663.5 19.5 c 128,-1,5
 563 -23 563 -23 457 -23 c 0,6,7
 318 -23 318 -23 247.5 32.5 c 128,-1,8
 177 88 177 88 177 190 c 0,9,10
 177 252 177 252 203 329 c 2,11,-1
 370 817 l 1,12,13
 367 817 367 817 364 817 c 128,-1,14
 361 817 361 817 358 817 c 0,15,16
 300 817 300 817 254.5 804.5 c 128,-1,17
 209 792 209 792 170 759 c 128,-1,18
 131 726 131 726 91 666 c 1,19,-1
 64 676 l 1,20,21
 93 774 93 774 131.5 838.5 c 128,-1,22
 170 903 170 903 223 940.5 c 128,-1,23
 276 978 276 978 347 994 c 128,-1,24
 418 1010 418 1010 511 1010 c 0,25,26
 541 1010 541 1010 566 1009 c 128,-1,27
 591 1008 591 1008 616.5 1006 c 128,-1,28
 642 1004 642 1004 671 1001 c 1,29,-1
 442 324 l 2,30,31
 433 298 433 298 428.5 276 c 128,-1,32
 424 254 424 254 424 236 c 0,33,34
 424 188 424 188 456 166 c 128,-1,35
 488 144 488 144 550 144 c 0,36,37
 610 144 610 144 670.5 171 c 128,-1,38
 731 198 731 198 785 245.5 c 128,-1,39
 839 293 839 293 882 355 c 128,-1,40
 925 417 925 417 949 488 c 128,-1,41
 973 559 973 559 973 632 c 0,42,43
 973 688 973 688 950 722.5 c 128,-1,44
 927 757 927 757 896 777.5 c 128,-1,45
 865 798 865 798 841.5 813.5 c 128,-1,46
 818 829 818 829 818 847 c 0,47,48
 818 923 818 923 865 966.5 c 128,-1,49
 912 1010 912 1010 985 1010 c 256,50,51
 1058 1010 1058 1010 1103 957.5 c 128,-1,52
 1148 905 1148 905 1148 794 c 0,0,1
EndSplineSet
EndChar

StartChar: w
Encoding: 119 119 226
Width: 1721
GlyphClass: 2
Flags: W
AnchorPoint: "Anchor-4" 770 0 basechar 0
AnchorPoint: "Anchor-0" 1056 987 basechar 0
LayerCount: 2
Fore
SplineSet
960 987 m 1,0,-1
 1202 987 l 1,1,-1
 1012 326 l 2,2,3
 1005 298 1005 298 1001 275 c 128,-1,4
 997 252 997 252 997 233 c 0,5,6
 997 185 997 185 1023 164.5 c 128,-1,7
 1049 144 1049 144 1098 144 c 0,8,9
 1153 144 1153 144 1209 171 c 128,-1,10
 1265 198 1265 198 1315 246 c 128,-1,11
 1365 294 1365 294 1404 356 c 128,-1,12
 1443 418 1443 418 1466 488.5 c 128,-1,13
 1489 559 1489 559 1489 632 c 0,14,15
 1489 687 1489 687 1465.5 721 c 128,-1,16
 1442 755 1442 755 1410.5 775.5 c 128,-1,17
 1379 796 1379 796 1355.5 811 c 128,-1,18
 1332 826 1332 826 1332 845 c 0,19,20
 1332 918 1332 918 1380 964 c 128,-1,21
 1428 1010 1428 1010 1500 1010 c 0,22,23
 1548 1010 1548 1010 1584 987.5 c 128,-1,24
 1620 965 1620 965 1639.5 917.5 c 128,-1,25
 1659 870 1659 870 1659 794 c 0,26,27
 1659 658 1659 658 1624.5 535.5 c 128,-1,28
 1590 413 1590 413 1529 311 c 128,-1,29
 1468 209 1468 209 1389 134 c 128,-1,30
 1310 59 1310 59 1220 18 c 128,-1,31
 1130 -23 1130 -23 1039 -23 c 0,32,33
 938 -23 938 -23 884 18 c 128,-1,34
 830 59 830 59 830 151 c 0,35,36
 830 179 830 179 835.5 212 c 128,-1,37
 841 245 841 245 852 283 c 2,38,-1
 898 439 l 1,39,-1
 878 438 l 1,40,41
 825 308 825 308 768.5 219 c 128,-1,42
 712 130 712 130 652.5 77 c 128,-1,43
 593 24 593 24 530.5 0.5 c 128,-1,44
 468 -23 468 -23 402 -23 c 0,45,46
 291 -23 291 -23 232 31.5 c 128,-1,47
 173 86 173 86 173 184 c 0,48,49
 173 251 173 251 201 333 c 2,50,-1
 366 817 l 1,51,52
 362 817 362 817 360 817 c 128,-1,53
 358 817 358 817 354 817 c 0,54,55
 296 817 296 817 251 804.5 c 128,-1,56
 206 792 206 792 166.5 759 c 128,-1,57
 127 726 127 726 87 666 c 1,58,-1
 60 676 l 1,59,60
 89 774 89 774 128 838.5 c 128,-1,61
 167 903 167 903 220 940.5 c 128,-1,62
 273 978 273 978 344 994 c 128,-1,63
 415 1010 415 1010 507 1010 c 0,64,65
 537 1010 537 1010 562.5 1008.5 c 128,-1,66
 588 1007 588 1007 613.5 1005.5 c 128,-1,67
 639 1004 639 1004 667 1001 c 1,68,-1
 433 306 l 2,69,70
 424 280 424 280 419.5 258 c 128,-1,71
 415 236 415 236 415 219 c 0,72,73
 415 180 415 180 438.5 162.5 c 128,-1,74
 462 145 462 145 507 145 c 0,75,76
 563 145 563 145 622 184.5 c 128,-1,77
 681 224 681 224 735.5 313 c 128,-1,78
 790 402 790 402 834 551 c 2,79,-1
 960 987 l 1,0,-1
EndSplineSet
EndChar

StartChar: x
Encoding: 120 120 227
Width: 1230
GlyphClass: 2
Flags: W
AnchorPoint: "Anchor-4" 464 0 basechar 0
AnchorPoint: "Anchor-0" 759 987 basechar 0
LayerCount: 2
Fore
SplineSet
663 446 m 1,0,-1
 602 437 l 1,1,-1
 408 192 l 2,2,3
 341 110 341 110 290.5 63 c 128,-1,4
 240 16 240 16 193.5 -3.5 c 128,-1,5
 147 -23 147 -23 94 -23 c 0,6,7
 19 -23 19 -23 -20.5 15.5 c 128,-1,8
 -60 54 -60 54 -60 112 c 0,9,10
 -60 163 -60 163 -35.5 201 c 128,-1,11
 -11 239 -11 239 21 260.5 c 128,-1,12
 53 282 53 282 76 282 c 0,13,14
 85 282 85 282 100.5 268.5 c 128,-1,15
 116 255 116 255 134 237 c 256,16,17
 152 219 152 219 169.5 206 c 128,-1,18
 187 193 187 193 199 193 c 0,19,20
 218 193 218 193 247 209.5 c 128,-1,21
 276 226 276 226 318.5 265 c 128,-1,22
 361 304 361 304 419 374 c 2,23,-1
 567 551 l 1,24,-1
 627 553 l 1,25,-1
 812 794 l 2,26,27
 879 879 879 879 930.5 926 c 128,-1,28
 982 973 982 973 1028.5 991.5 c 128,-1,29
 1075 1010 1075 1010 1126 1010 c 0,30,31
 1202 1010 1202 1010 1241.5 971.5 c 128,-1,32
 1281 933 1281 933 1281 875 c 0,33,34
 1281 825 1281 825 1256 786.5 c 128,-1,35
 1231 748 1231 748 1199 726.5 c 128,-1,36
 1167 705 1167 705 1144 705 c 0,37,38
 1137 705 1137 705 1120.5 718.5 c 128,-1,39
 1104 732 1104 732 1086 751 c 0,40,41
 1067 770 1067 770 1050 782 c 128,-1,42
 1033 794 1033 794 1022 794 c 0,43,44
 1000 794 1000 794 966.5 774.5 c 128,-1,45
 933 755 933 755 891 715 c 128,-1,46
 849 675 849 675 800 614 c 2,47,-1
 663 446 l 1,0,-1
1159 272 m 1,48,49
 1060 156 1060 156 983 91.5 c 128,-1,50
 906 27 906 27 845 2 c 128,-1,51
 784 -23 784 -23 731 -23 c 0,52,53
 692 -23 692 -23 666 -10 c 128,-1,54
 640 3 640 3 623.5 33 c 128,-1,55
 607 63 607 63 594 116 c 2,56,-1
 421 789 l 2,57,58
 416 811 416 811 412 818 c 128,-1,59
 408 825 408 825 400 825 c 0,60,61
 371 825 371 825 312 775.5 c 128,-1,62
 253 726 253 726 177 623 c 1,63,-1
 108 669 l 1,64,65
 181 795 181 795 248.5 870 c 128,-1,66
 316 945 316 945 380 977.5 c 128,-1,67
 444 1010 444 1010 506 1010 c 0,68,69
 547 1010 547 1010 573 997 c 128,-1,70
 599 984 599 984 616 953.5 c 128,-1,71
 633 923 633 923 646 871 c 2,72,-1
 816 205 l 2,73,74
 824 174 824 174 828.5 165.5 c 128,-1,75
 833 157 833 157 843 157 c 0,76,77
 862 157 862 157 898 173 c 128,-1,78
 934 189 934 189 986 226 c 128,-1,79
 1038 263 1038 263 1103 325 c 1,80,-1
 1159 272 l 1,48,49
EndSplineSet
EndChar

StartChar: y
Encoding: 121 121 228
Width: 1190
GlyphClass: 2
Flags: W
AnchorPoint: "Anchor-4" 894 -127 basechar 0
AnchorPoint: "Anchor-0" 701 987 basechar 0
LayerCount: 2
Fore
SplineSet
120 544 m 1,0,-1
 38 576 l 1,1,2
 91 711 91 711 141 796.5 c 128,-1,3
 191 882 191 882 237.5 928.5 c 128,-1,4
 284 975 284 975 328 992.5 c 128,-1,5
 372 1010 372 1010 414 1010 c 0,6,7
 444 1010 444 1010 465.5 997.5 c 128,-1,8
 487 985 487 985 506 955 c 128,-1,9
 525 925 525 925 546 871 c 0,10,11
 568 817 568 817 599.5 704 c 128,-1,12
 631 591 631 591 669 414 c 128,-1,13
 707 237 707 237 747 -10 c 1,14,-1
 554 -202 l 1,15,16
 525 -37 525 -37 499.5 92.5 c 128,-1,17
 474 222 474 222 451 321.5 c 128,-1,18
 428 421 428 421 409.5 494.5 c 128,-1,19
 391 568 391 568 375 621 c 0,20,21
 355 692 355 692 343 727 c 128,-1,22
 331 762 331 762 322.5 773.5 c 128,-1,23
 314 785 314 785 305 785 c 0,24,25
 289 785 289 785 261.5 761.5 c 128,-1,26
 234 738 234 738 198 685.5 c 128,-1,27
 162 633 162 633 120 544 c 1,0,-1
607 -36 m 1,28,-1
 649 -9 l 1,29,30
 711 83 711 83 762.5 187.5 c 128,-1,31
 814 292 814 292 853 413.5 c 128,-1,32
 892 535 892 535 916.5 677.5 c 128,-1,33
 941 820 941 820 948 988 c 1,34,35
 984 998 984 998 1021 1002 c 128,-1,36
 1058 1006 1058 1006 1100 1006 c 0,37,38
 1143 1005 1143 1005 1164.5 991 c 128,-1,39
 1186 977 1186 977 1183 949 c 0,40,41
 1172 872 1172 872 1150.5 788 c 128,-1,42
 1129 704 1129 704 1096.5 614 c 128,-1,43
 1064 524 1064 524 1021.5 429.5 c 128,-1,44
 979 335 979 335 926 238 c 128,-1,45
 873 141 873 141 810 43 c 0,46,47
 702 -125 702 -125 585 -242 c 128,-1,48
 468 -359 468 -359 351.5 -420 c 128,-1,49
 235 -481 235 -481 128 -481 c 0,50,51
 34 -481 34 -481 -7.5 -436 c 128,-1,52
 -49 -391 -49 -391 -49 -325 c 0,53,54
 -49 -267 -49 -267 -10 -227.5 c 128,-1,55
 29 -188 29 -188 80 -188 c 0,56,57
 88 -188 88 -188 106 -204 c 128,-1,58
 124 -220 124 -220 149 -244 c 0,59,60
 174 -269 174 -269 198.5 -287.5 c 128,-1,61
 223 -306 223 -306 239 -306 c 0,62,63
 286 -306 286 -306 346.5 -277.5 c 128,-1,64
 407 -249 407 -249 474 -189.5 c 128,-1,65
 541 -130 541 -130 607 -36 c 1,28,-1
EndSplineSet
EndChar

StartChar: z
Encoding: 122 122 229
Width: 1082
GlyphClass: 2
Flags: W
AnchorPoint: "Anchor-4" 424 0 basechar 0
AnchorPoint: "Anchor-0" 649 987 basechar 0
LayerCount: 2
Fore
SplineSet
9 60 m 1,0,-1
 1007 1018 l 1,1,-1
 1087 931 l 1,2,-1
 88 -26 l 1,3,-1
 9 60 l 1,0,-1
179 629 m 1,4,-1
 98 674 l 1,5,6
 168 801 168 801 228 874 c 128,-1,7
 288 947 288 947 344.5 977.5 c 128,-1,8
 401 1008 401 1008 456 1006.5 c 128,-1,9
 511 1005 511 1005 570 985 c 2,10,-1
 922 863 l 1,11,-1
 751 665 l 1,12,-1
 499 757 l 2,13,14
 439 778 439 778 400.5 787 c 128,-1,15
 362 796 362 796 331.5 784.5 c 128,-1,16
 301 773 301 773 266 736 c 128,-1,17
 231 699 231 699 179 629 c 1,4,-1
517 11 m 2,18,-1
 216 164 l 1,19,-1
 410 347 l 1,20,-1
 617 236 l 2,21,22
 671 207 671 207 708 195.5 c 128,-1,23
 745 184 745 184 779.5 193 c 128,-1,24
 814 202 814 202 858 236.5 c 128,-1,25
 902 271 902 271 970 335 c 1,26,-1
 1025 282 l 1,27,28
 930 161 930 161 858 92.5 c 128,-1,29
 786 24 786 24 729 -2 c 128,-1,30
 672 -28 672 -28 621 -21.5 c 128,-1,31
 570 -15 570 -15 517 11 c 2,18,-1
EndSplineSet
EndChar

StartChar: aogonek
Encoding: 261 261 238
Width: 1296
GlyphClass: 1
Flags: W
LayerCount: 2
Fore
SplineSet
1262 205 m 1,0,1
 1223 164 1223 164 1182 123.5 c 128,-1,2
 1141 83 1141 83 1098 43 c 2,3,-1
 960 -86 l 2,4,5
 904 -139 904 -139 876 -175.5 c 128,-1,6
 848 -212 848 -212 839 -239.5 c 128,-1,7
 830 -267 830 -267 830 -292 c 0,8,9
 830 -327 830 -327 851 -346 c 128,-1,10
 872 -365 872 -365 913 -365 c 0,11,12
 943 -365 943 -365 971.5 -356.5 c 128,-1,13
 1000 -348 1000 -348 1044 -323 c 1,14,-1
 1049 -390 l 1,15,16
 978 -442 978 -442 927 -461.5 c 128,-1,17
 876 -481 876 -481 822 -481 c 0,18,19
 749 -481 749 -481 713.5 -442 c 128,-1,20
 678 -403 678 -403 678 -346 c 0,21,22
 678 -306 678 -306 693.5 -268 c 128,-1,23
 709 -230 709 -230 753 -181.5 c 128,-1,24
 797 -133 797 -133 879 -65 c 2,25,-1
 1014 50 l 1,26,-1
 1024 33 l 1,27,28
 959 1 959 1 906 -11 c 128,-1,29
 853 -23 853 -23 811 -23 c 0,30,31
 734 -23 734 -23 708.5 5.5 c 128,-1,32
 683 34 683 34 708 100 c 2,33,-1
 842 455 l 1,34,-1
 828 455 l 1,35,36
 731 304 731 304 655 210 c 128,-1,37
 579 116 579 116 517 65.5 c 128,-1,38
 455 15 455 15 400 -4 c 128,-1,39
 345 -23 345 -23 291 -23 c 0,40,41
 218 -23 218 -23 160 4.5 c 128,-1,42
 102 32 102 32 67.5 87.5 c 128,-1,43
 33 143 33 143 33 225 c 0,44,45
 33 322 33 322 68 429.5 c 128,-1,46
 103 537 103 537 165 639.5 c 128,-1,47
 227 742 227 742 311 825 c 128,-1,48
 395 908 395 908 493.5 957.5 c 128,-1,49
 592 1007 592 1007 698 1007 c 0,50,51
 795 1007 795 1007 855.5 955.5 c 128,-1,52
 916 904 916 904 945 802 c 1,53,-1
 925 743 l 1,54,55
 895 811 895 811 850.5 839.5 c 128,-1,56
 806 868 806 868 750 868 c 0,57,58
 679 868 679 868 611.5 825.5 c 128,-1,59
 544 783 544 783 486 713.5 c 128,-1,60
 428 644 428 644 383.5 562.5 c 128,-1,61
 339 481 339 481 314.5 401 c 128,-1,62
 290 321 290 321 290 259 c 0,63,64
 290 203 290 203 320.5 175.5 c 128,-1,65
 351 148 351 148 404 148 c 0,66,67
 452 148 452 148 515.5 193.5 c 128,-1,68
 579 239 579 239 645 314 c 128,-1,69
 711 389 711 389 769 482.5 c 128,-1,70
 827 576 827 576 863 671 c 2,71,-1
 926 839 l 1,72,-1
 1052 987 l 1,73,-1
 1224 987 l 1,74,-1
 907 75 l 1,75,-1
 856 155 l 1,76,77
 911 151 911 151 968.5 160.5 c 128,-1,78
 1026 170 1026 170 1088 197 c 128,-1,79
 1150 224 1150 224 1218 272 c 1,80,-1
 1262 205 l 1,0,1
EndSplineSet
EndChar

StartChar: ae
Encoding: 230 230 254
Width: 1775
GlyphClass: 2
Flags: W
AnchorPoint: "Anchor-4" 736 0 basechar 0
AnchorPoint: "Anchor-0" 1054 987 basechar 0
LayerCount: 2
Fore
SplineSet
1146 843 m 1,0,-1
 1125 838 l 1,1,2
 1193 916 1193 916 1284 963 c 128,-1,3
 1375 1010 1375 1010 1494 1010 c 0,4,5
 1585 1010 1585 1010 1639.5 978 c 128,-1,6
 1694 946 1694 946 1719.5 892.5 c 128,-1,7
 1745 839 1745 839 1745 774 c 0,8,9
 1745 723 1745 723 1728.5 670 c 128,-1,10
 1712 617 1712 617 1684 573 c 1,11,12
 1600 549 1600 549 1514 528 c 128,-1,13
 1428 507 1428 507 1341.5 490 c 128,-1,14
 1255 473 1255 473 1171.5 459 c 128,-1,15
 1088 445 1088 445 1009 435 c 1,16,-1
 1015 531 l 1,17,18
 1159 558 1159 558 1253 581 c 128,-1,19
 1347 604 1347 604 1402 625 c 128,-1,20
 1457 646 1457 646 1483 668 c 128,-1,21
 1509 690 1509 690 1516.5 715.5 c 128,-1,22
 1524 741 1524 741 1524 773 c 0,23,24
 1524 810 1524 810 1510.5 836 c 128,-1,25
 1497 862 1497 862 1470 876 c 128,-1,26
 1443 890 1443 890 1403 890 c 0,27,28
 1347 890 1347 890 1296 866 c 128,-1,29
 1245 842 1245 842 1201.5 796.5 c 128,-1,30
 1158 751 1158 751 1126 688 c 128,-1,31
 1094 625 1094 625 1076.5 547.5 c 128,-1,32
 1059 470 1059 470 1059 381 c 0,33,34
 1059 254 1059 254 1104.5 204.5 c 128,-1,35
 1150 155 1150 155 1251 155 c 0,36,37
 1312 155 1312 155 1366 173.5 c 128,-1,38
 1420 192 1420 192 1469 233.5 c 128,-1,39
 1518 275 1518 275 1562 344 c 1,40,-1
 1655 344 l 1,41,42
 1591 205 1591 205 1515.5 125 c 128,-1,43
 1440 45 1440 45 1352.5 11 c 128,-1,44
 1265 -23 1265 -23 1164 -23 c 0,45,46
 1028 -23 1028 -23 944.5 31.5 c 128,-1,47
 861 86 861 86 835 194 c 128,-1,48
 809 302 809 302 843 460 c 1,49,-1
 828 455 l 1,50,51
 731 305 731 305 655.5 211 c 128,-1,52
 580 117 580 117 518 66 c 128,-1,53
 456 15 456 15 401 -4 c 128,-1,54
 346 -23 346 -23 291 -23 c 0,55,56
 218 -23 218 -23 160 4.5 c 128,-1,57
 102 32 102 32 67.5 87.5 c 128,-1,58
 33 143 33 143 33 225 c 0,59,60
 33 322 33 322 68 429.5 c 128,-1,61
 103 537 103 537 165 639.5 c 128,-1,62
 227 742 227 742 311 825 c 128,-1,63
 395 908 395 908 493.5 957.5 c 128,-1,64
 592 1007 592 1007 698 1007 c 0,65,66
 795 1007 795 1007 855.5 955.5 c 128,-1,67
 916 904 916 904 945 802 c 1,68,-1
 925 743 l 1,69,70
 895 811 895 811 850.5 839.5 c 128,-1,71
 806 868 806 868 750 868 c 0,72,73
 679 868 679 868 611.5 825.5 c 128,-1,74
 544 783 544 783 486 713.5 c 128,-1,75
 428 644 428 644 383.5 562.5 c 128,-1,76
 339 481 339 481 314.5 401 c 128,-1,77
 290 321 290 321 290 259 c 0,78,79
 290 203 290 203 320.5 175.5 c 128,-1,80
 351 148 351 148 404 148 c 0,81,82
 452 148 452 148 515.5 193.5 c 128,-1,83
 579 239 579 239 645 314 c 128,-1,84
 711 389 711 389 769 482.5 c 128,-1,85
 827 576 827 576 863 671 c 2,86,-1
 926 839 l 1,87,-1
 1037 987 l 1,88,-1
 1178 987 l 1,89,-1
 1146 843 l 1,0,-1
EndSplineSet
EndChar

StartChar: ccedilla
Encoding: 231 231 256
Width: 1003
GlyphClass: 1
Flags: W
LayerCount: 2
Fore
SplineSet
218 -481 m 0,0,1
 142 -481 142 -481 110.5 -462 c 128,-1,2
 79 -443 79 -443 79 -410 c 0,3,4
 79 -384 79 -384 95 -366 c 128,-1,5
 111 -348 111 -348 136 -348 c 0,6,7
 150 -348 150 -348 165.5 -361.5 c 128,-1,8
 181 -375 181 -375 204 -389 c 128,-1,9
 227 -403 227 -403 261 -403 c 0,10,11
 318 -403 318 -403 347.5 -377 c 128,-1,12
 377 -351 377 -351 377 -309 c 0,13,14
 377 -277 377 -277 339 -255 c 128,-1,15
 301 -233 301 -233 191 -217 c 1,16,-1
 199 -192 l 1,17,-1
 421 34 l 1,18,-1
 526 34 l 1,19,-1
 307 -186 l 1,20,-1
 324 -99 l 1,21,22
 440 -121 440 -121 483.5 -161.5 c 128,-1,23
 527 -202 527 -202 527 -255 c 0,24,25
 527 -318 527 -318 493.5 -369.5 c 128,-1,26
 460 -421 460 -421 391.5 -451 c 128,-1,27
 323 -481 323 -481 218 -481 c 0,0,1
653 891 m 0,28,29
 581 891 581 891 520.5 851.5 c 128,-1,30
 460 812 460 812 416 742 c 128,-1,31
 372 672 372 672 347.5 579.5 c 128,-1,32
 323 487 323 487 323 381 c 0,33,34
 323 254 323 254 369.5 204.5 c 128,-1,35
 416 155 416 155 515 155 c 0,36,37
 575 155 575 155 627.5 174.5 c 128,-1,38
 680 194 680 194 727 237 c 128,-1,39
 774 280 774 280 816 352 c 1,40,-1
 909 352 l 1,41,42
 854 221 854 221 785.5 138.5 c 128,-1,43
 717 56 717 56 630.5 16.5 c 128,-1,44
 544 -23 544 -23 433 -23 c 0,45,46
 252 -23 252 -23 161.5 64 c 128,-1,47
 71 151 71 151 71 330 c 0,48,49
 71 472 71 472 118 595.5 c 128,-1,50
 165 719 165 719 250 812.5 c 128,-1,51
 335 906 335 906 451.5 958 c 128,-1,52
 568 1010 568 1010 708 1010 c 0,53,54
 856 1010 856 1010 928.5 959.5 c 128,-1,55
 1001 909 1001 909 1001 836 c 0,56,57
 1001 777 1001 777 959 740 c 128,-1,58
 917 703 917 703 863 703 c 0,59,60
 846 703 846 703 823 729 c 128,-1,61
 800 755 800 755 770 798 c 0,62,63
 739 841 739 841 710 866 c 128,-1,64
 681 891 681 891 653 891 c 0,28,29
EndSplineSet
EndChar

StartChar: dcroat
Encoding: 273 273 262
Width: 1289
GlyphClass: 1
Flags: W
LayerCount: 2
Fore
SplineSet
926 744 m 1,0,1
 895 813 895 813 851 841.5 c 128,-1,2
 807 870 807 870 751 870 c 0,3,4
 679 870 679 870 611.5 827.5 c 128,-1,5
 544 785 544 785 486 715.5 c 128,-1,6
 428 646 428 646 383.5 564 c 128,-1,7
 339 482 339 482 314.5 402 c 128,-1,8
 290 322 290 322 290 259 c 0,9,10
 290 203 290 203 320.5 175.5 c 128,-1,11
 351 148 351 148 404 148 c 0,12,13
 444 148 444 148 495.5 179.5 c 128,-1,14
 547 211 547 211 603.5 265.5 c 128,-1,15
 660 320 660 320 714 392 c 128,-1,16
 768 464 768 464 812.5 548 c 128,-1,17
 857 632 857 632 885 719 c 2,18,-1
 1063 1265 l 1,19,20
 1055 1271 1055 1271 1044.5 1277 c 128,-1,21
 1034 1283 1034 1283 1021.5 1290 c 128,-1,22
 1009 1297 1009 1297 995.5 1304 c 128,-1,23
 982 1311 982 1311 968 1317.5 c 128,-1,24
 954 1324 954 1324 941 1330.5 c 128,-1,25
 928 1337 928 1337 916 1343 c 1,26,-1
 934 1414 l 1,27,-1
 1334 1471 l 1,28,-1
 1378 1471 l 1,29,-1
 910 75 l 1,30,-1
 859 155 l 1,31,32
 914 151 914 151 971.5 160.5 c 128,-1,33
 1029 170 1029 170 1091 197 c 128,-1,34
 1153 224 1153 224 1221 272 c 1,35,-1
 1265 205 l 1,36,37
 1117 71 1117 71 1005.5 24 c 128,-1,38
 894 -23 894 -23 814 -23 c 0,39,40
 737 -23 737 -23 710.5 5.5 c 128,-1,41
 684 34 684 34 709 99 c 2,42,-1
 842 455 l 1,43,-1
 828 455 l 1,44,45
 731 304 731 304 655.5 210 c 128,-1,46
 580 116 580 116 517.5 65.5 c 128,-1,47
 455 15 455 15 400 -4 c 128,-1,48
 345 -23 345 -23 291 -23 c 0,49,50
 218 -23 218 -23 160 4.5 c 128,-1,51
 102 32 102 32 68 87.5 c 128,-1,52
 34 143 34 143 34 226 c 0,53,54
 34 323 34 323 68.5 430.5 c 128,-1,55
 103 538 103 538 165.5 640.5 c 128,-1,56
 228 743 228 743 312 826.5 c 128,-1,57
 396 910 396 910 494.5 959.5 c 128,-1,58
 593 1009 593 1009 699 1009 c 0,59,60
 796 1009 796 1009 856 957.5 c 128,-1,61
 916 906 916 906 946 804 c 1,62,-1
 926 744 l 1,0,1
726 1115 m 1,63,-1
 761 1232 l 1,64,-1
 1484 1232 l 1,65,-1
 1449 1115 l 1,66,-1
 726 1115 l 1,63,-1
EndSplineSet
EndChar

StartChar: eogonek
Encoding: 281 281 270
Width: 1039
GlyphClass: 1
Flags: W
LayerCount: 2
Fore
SplineSet
812 163 m 2,0,-1
 630 -65 l 2,1,2
 583 -123 583 -123 558.5 -165.5 c 128,-1,3
 534 -208 534 -208 524.5 -239 c 128,-1,4
 515 -270 515 -270 515 -293 c 0,5,6
 515 -327 515 -327 535.5 -346 c 128,-1,7
 556 -365 556 -365 597 -365 c 0,8,9
 626 -365 626 -365 654.5 -356.5 c 128,-1,10
 683 -348 683 -348 727 -323 c 1,11,-1
 733 -390 l 1,12,13
 661 -442 661 -442 610 -461.5 c 128,-1,14
 559 -481 559 -481 505 -481 c 0,15,16
 433 -481 433 -481 397.5 -443 c 128,-1,17
 362 -405 362 -405 362 -349 c 0,18,19
 362 -310 362 -310 377.5 -269.5 c 128,-1,20
 393 -229 393 -229 432.5 -175 c 128,-1,21
 472 -121 472 -121 545 -44 c 2,22,-1
 632 52 l 1,23,-1
 652 27 l 1,24,25
 601 1 601 1 544.5 -11 c 128,-1,26
 488 -23 488 -23 428 -23 c 0,27,28
 309 -23 309 -23 229.5 16 c 128,-1,29
 150 55 150 55 110 131.5 c 128,-1,30
 70 208 70 208 70 319 c 0,31,32
 70 436 70 436 100 540.5 c 128,-1,33
 130 645 130 645 187 730.5 c 128,-1,34
 244 816 244 816 323 879 c 128,-1,35
 402 942 402 942 499 976 c 128,-1,36
 596 1010 596 1010 708 1010 c 0,37,38
 816 1010 816 1010 882 978.5 c 128,-1,39
 948 947 948 947 978.5 893 c 128,-1,40
 1009 839 1009 839 1009 774 c 0,41,42
 1009 724 1009 724 993 671 c 128,-1,43
 977 618 977 618 948 573 c 1,44,45
 865 549 865 549 779 528 c 128,-1,46
 693 507 693 507 606.5 490 c 128,-1,47
 520 473 520 473 436 459 c 128,-1,48
 352 445 352 445 273 435 c 1,49,-1
 279 531 l 1,50,51
 423 558 423 558 517 581 c 128,-1,52
 611 604 611 604 666 625 c 128,-1,53
 721 646 721 646 747 668 c 128,-1,54
 773 690 773 690 780.5 715.5 c 128,-1,55
 788 741 788 741 788 773 c 0,56,57
 788 810 788 810 774.5 836 c 128,-1,58
 761 862 761 862 734 876 c 128,-1,59
 707 890 707 890 667 890 c 0,60,61
 612 890 612 890 560.5 866 c 128,-1,62
 509 842 509 842 465.5 797 c 128,-1,63
 422 752 422 752 390 689 c 128,-1,64
 358 626 358 626 340.5 548 c 128,-1,65
 323 470 323 470 323 381 c 0,66,67
 323 254 323 254 368.5 204.5 c 128,-1,68
 414 155 414 155 515 155 c 0,69,70
 576 155 576 155 630 173.5 c 128,-1,71
 684 192 684 192 733 233.5 c 128,-1,72
 782 275 782 275 826 344 c 1,73,-1
 919 344 l 1,74,75
 894 288 894 288 867.5 243.5 c 128,-1,76
 841 199 841 199 812 163 c 2,0,-1
EndSplineSet
EndChar

StartChar: hbar
Encoding: 295 295 288
Width: 1286
GlyphClass: 1
Flags: W
LayerCount: 2
Fore
SplineSet
351 220 m 2,0,-1
 281 0 l 1,1,-1
 25 0 l 1,2,-1
 407 1264 l 1,3,4
 394 1273 394 1273 375.5 1282.5 c 128,-1,5
 357 1292 357 1292 336 1302 c 128,-1,6
 315 1312 315 1312 293 1322.5 c 128,-1,7
 271 1333 271 1333 250 1343 c 1,8,-1
 267 1414 l 1,9,-1
 680 1471 l 1,10,-1
 724 1471 l 1,11,-1
 346 458 l 1,12,-1
 371 461 l 1,13,14
 446 614 446 614 516 719.5 c 128,-1,15
 586 825 586 825 656 889 c 128,-1,16
 726 953 726 953 799 981.5 c 128,-1,17
 872 1010 872 1010 950 1010 c 0,18,19
 1060 1010 1060 1010 1111 958 c 128,-1,20
 1162 906 1162 906 1162 828 c 0,21,22
 1162 787 1162 787 1148.5 731.5 c 128,-1,23
 1135 676 1135 676 1100 589 c 2,24,-1
 893 83 l 1,25,-1
 848 159 l 1,26,27
 899 156 899 156 952 166 c 128,-1,28
 1005 176 1005 176 1067 202 c 128,-1,29
 1129 228 1129 228 1203 272 c 1,30,-1
 1248 202 l 1,31,32
 1145 115 1145 115 1057.5 65.5 c 128,-1,33
 970 16 970 16 895.5 -3.5 c 128,-1,34
 821 -23 821 -23 756 -23 c 0,35,36
 681 -23 681 -23 653.5 10 c 128,-1,37
 626 43 626 43 657 119 c 2,38,-1
 859 611 l 2,39,40
 882 668 882 668 890 698 c 128,-1,41
 898 728 898 728 898 749 c 0,42,43
 898 777 898 777 878.5 793.5 c 128,-1,44
 859 810 859 810 816 810 c 0,45,46
 756 810 756 810 692 769 c 128,-1,47
 628 728 628 728 566.5 650.5 c 128,-1,48
 505 573 505 573 450 464 c 128,-1,49
 395 355 395 355 351 220 c 2,0,-1
172 1115 m 1,50,-1
 207 1232 l 1,51,-1
 930 1232 l 1,52,-1
 895 1115 l 1,53,-1
 172 1115 l 1,50,-1
EndSplineSet
EndChar

StartChar: dotlessi
Encoding: 305 305 289
Width: 754
GlyphClass: 2
Flags: W
AnchorPoint: "Anchor-4" 241 0 basechar 0
AnchorPoint: "Anchor-3" 422 0 basechar 0
AnchorPoint: "Anchor-0" 541 990 basechar 0
LayerCount: 2
Fore
SplineSet
126 148 m 2,0,-1
 419 899 l 1,1,-1
 471 828 l 1,2,3
 416 831 416 831 359 819 c 128,-1,4
 302 807 302 807 238.5 777 c 128,-1,5
 175 747 175 747 100 694 c 1,6,-1
 49 763 l 1,7,8
 164 864 164 864 253.5 917.5 c 128,-1,9
 343 971 343 971 413.5 990.5 c 128,-1,10
 484 1010 484 1010 541 1010 c 0,11,12
 633 1010 633 1010 658 970 c 128,-1,13
 683 930 683 930 647 839 c 2,14,-1
 353 83 l 1,15,-1
 298 161 l 1,16,17
 355 157 355 157 412.5 166 c 128,-1,18
 470 175 470 175 529.5 200.5 c 128,-1,19
 589 226 589 226 653 269 c 1,20,-1
 698 199 l 1,21,22
 598 113 598 113 512 64.5 c 128,-1,23
 426 16 426 16 353.5 -3.5 c 128,-1,24
 281 -23 281 -23 218 -23 c 0,25,26
 133 -23 133 -23 109.5 12.5 c 128,-1,27
 86 48 86 48 126 148 c 2,0,-1
EndSplineSet
Substitution2: "'case' Case-Sensitive Forms in Latin lookup 8 subtable" I
EndChar

StartChar: iogonek
Encoding: 303 303 297
Width: 758
GlyphClass: 1
Flags: W
LayerCount: 2
Fore
SplineSet
469 1308 m 0,0,1
 469 1354 469 1354 490.5 1390.5 c 128,-1,2
 512 1427 512 1427 556 1448.5 c 128,-1,3
 600 1470 600 1470 668 1470 c 0,4,5
 751 1470 751 1470 793.5 1436.5 c 128,-1,6
 836 1403 836 1403 836 1347 c 0,7,8
 836 1300 836 1300 814.5 1263.5 c 128,-1,9
 793 1227 793 1227 749 1205.5 c 128,-1,10
 705 1184 705 1184 637 1184 c 0,11,12
 554 1184 554 1184 511.5 1217.5 c 128,-1,13
 469 1251 469 1251 469 1308 c 0,0,1
521 63 m 2,14,-1
 307 -87 l 2,15,16
 252 -127 252 -127 219 -162 c 128,-1,17
 186 -197 186 -197 171.5 -229.5 c 128,-1,18
 157 -262 157 -262 157 -294 c 0,19,20
 157 -328 157 -328 177.5 -346.5 c 128,-1,21
 198 -365 198 -365 239 -365 c 0,22,23
 268 -365 268 -365 296.5 -356.5 c 128,-1,24
 325 -348 325 -348 369 -323 c 1,25,-1
 374 -390 l 1,26,27
 303 -442 303 -442 252 -461.5 c 128,-1,28
 201 -481 201 -481 147 -481 c 0,29,30
 75 -481 75 -481 40 -442.5 c 128,-1,31
 5 -404 5 -404 5 -348 c 0,32,33
 5 -309 5 -309 22 -267.5 c 128,-1,34
 39 -226 39 -226 86.5 -177.5 c 128,-1,35
 134 -129 134 -129 224 -73 c 1,36,-1
 347 12 l 1,37,-1
 353 -3 l 1,38,39
 317 -14 317 -14 283.5 -18.5 c 128,-1,40
 250 -23 250 -23 218 -23 c 0,41,42
 133 -23 133 -23 109.5 12.5 c 128,-1,43
 86 48 86 48 126 148 c 2,44,-1
 419 899 l 1,45,-1
 471 828 l 1,46,47
 416 831 416 831 359 819 c 128,-1,48
 302 807 302 807 238.5 777 c 128,-1,49
 175 747 175 747 100 694 c 1,50,-1
 49 763 l 1,51,52
 164 864 164 864 253.5 917.5 c 128,-1,53
 343 971 343 971 413.5 990.5 c 128,-1,54
 484 1010 484 1010 541 1010 c 0,55,56
 633 1010 633 1010 658 970 c 128,-1,57
 683 930 683 930 647 839 c 2,58,-1
 353 83 l 1,59,-1
 298 161 l 1,60,61
 355 157 355 157 412.5 166 c 128,-1,62
 470 175 470 175 529.5 200.5 c 128,-1,63
 589 226 589 226 653 269 c 1,64,-1
 698 199 l 1,65,66
 657 163 657 163 612.5 129.5 c 128,-1,67
 568 96 568 96 521 63 c 2,14,-1
EndSplineSet
EndChar

StartChar: uni0237
Encoding: 567 567 302
Width: 684
GlyphClass: 2
Flags: W
AnchorPoint: "Anchor-4" -44 -458 basechar 0
AnchorPoint: "Anchor-0" 492 990 basechar 0
LayerCount: 2
Fore
SplineSet
412 152 m 2,0,1
 348 -63 348 -63 251.5 -203.5 c 128,-1,2
 155 -344 155 -344 39.5 -412.5 c 128,-1,3
 -76 -481 -76 -481 -199 -481 c 0,4,5
 -302 -481 -302 -481 -346.5 -437.5 c 128,-1,6
 -391 -394 -391 -394 -391 -329 c 0,7,8
 -391 -273 -391 -273 -355.5 -235 c 128,-1,9
 -320 -197 -320 -197 -268 -197 c 0,10,11
 -260 -197 -260 -197 -239.5 -217.5 c 128,-1,12
 -219 -238 -219 -238 -190 -269 c 0,13,14
 -161 -299 -161 -299 -140.5 -316 c 128,-1,15
 -120 -333 -120 -333 -108 -333 c 0,16,17
 -78 -333 -78 -333 -49.5 -319 c 128,-1,18
 -21 -305 -21 -305 7.5 -268 c 128,-1,19
 36 -231 36 -231 66.5 -160.5 c 128,-1,20
 97 -90 97 -90 131 24 c 2,21,-1
 391 899 l 1,22,-1
 443 828 l 1,23,24
 394 831 394 831 341 819 c 128,-1,25
 288 807 288 807 226 776 c 128,-1,26
 164 745 164 745 86 690 c 1,27,-1
 36 760 l 1,28,29
 143 854 143 854 228 909 c 128,-1,30
 313 964 313 964 383 987 c 128,-1,31
 453 1010 453 1010 513 1010 c 0,32,33
 574 1010 574 1010 602.5 993.5 c 128,-1,34
 631 977 631 977 633.5 939.5 c 128,-1,35
 636 902 636 902 617 839 c 2,36,-1
 412 152 l 2,0,1
EndSplineSet
EndChar

StartChar: kgreenlandic
Encoding: 312 312 305
Width: 1324
GlyphClass: 1
Flags: W
LayerCount: 2
Fore
SplineSet
671 996 m 1,0,-1
 366 0 l 1,1,-1
 115 0 l 1,2,-1
 366 817 l 1,3,4
 364 817 364 817 360.5 817 c 128,-1,5
 357 817 357 817 354 817 c 0,6,7
 296 817 296 817 250.5 804.5 c 128,-1,8
 205 792 205 792 166 759 c 128,-1,9
 127 726 127 726 87 666 c 1,10,-1
 60 676 l 1,11,12
 89 774 89 774 128 838.5 c 128,-1,13
 167 903 167 903 220 940.5 c 128,-1,14
 273 978 273 978 344.5 994 c 128,-1,15
 416 1010 416 1010 510 1010 c 0,16,17
 555 1010 555 1010 594.5 1006.5 c 128,-1,18
 634 1003 634 1003 671 996 c 1,0,-1
1173 697 m 0,19,20
 1165 697 1165 697 1150.5 717 c 128,-1,21
 1136 737 1136 737 1117 764 c 0,22,23
 1100 790 1100 790 1082 807 c 128,-1,24
 1064 824 1064 824 1048 824 c 0,25,26
 1028 824 1028 824 999.5 811 c 128,-1,27
 971 798 971 798 925 764.5 c 128,-1,28
 879 731 879 731 807 668.5 c 128,-1,29
 735 606 735 606 628 508 c 1,30,-1
 708 627 l 1,31,32
 772 480 772 480 818 388 c 128,-1,33
 864 296 864 296 897.5 247 c 128,-1,34
 931 198 931 198 958 180 c 128,-1,35
 985 162 985 162 1012 162 c 0,36,37
 1035 162 1035 162 1061.5 176 c 128,-1,38
 1088 190 1088 190 1122.5 221 c 128,-1,39
 1157 252 1157 252 1201 299 c 1,40,-1
 1255 242 l 1,41,42
 1176 144 1176 144 1108.5 86 c 128,-1,43
 1041 28 1041 28 984.5 2.5 c 128,-1,44
 928 -23 928 -23 881 -23 c 0,45,46
 838 -23 838 -23 797.5 -1 c 128,-1,47
 757 21 757 21 714 77 c 128,-1,48
 671 133 671 133 620.5 234.5 c 128,-1,49
 570 336 570 336 509 496 c 1,50,-1
 523 528 l 1,51,52
 677 680 677 680 781.5 775.5 c 128,-1,53
 886 871 886 871 957 922 c 128,-1,54
 1028 973 1028 973 1079.5 991.5 c 128,-1,55
 1131 1010 1131 1010 1178 1010 c 0,56,57
 1258 1010 1258 1010 1297.5 970.5 c 128,-1,58
 1337 931 1337 931 1337 873 c 0,59,60
 1337 813 1337 813 1310 774 c 128,-1,61
 1283 735 1283 735 1245 716 c 128,-1,62
 1207 697 1207 697 1173 697 c 0,19,20
EndSplineSet
EndChar

StartChar: lslash
Encoding: 322 322 310
Width: 833
GlyphClass: 1
Flags: W
LayerCount: 2
Fore
SplineSet
95 569 m 1,0,-1
 378 736 l 1,1,-1
 454 731 l 1,2,-1
 827 953 l 1,3,-1
 780 797 l 1,4,-1
 410 577 l 1,5,-1
 334 583 l 1,6,-1
 48 413 l 1,7,-1
 95 569 l 1,0,-1
466 1229 m 1,8,9
 448 1241 448 1241 416 1258.5 c 128,-1,10
 384 1276 384 1276 349 1294 c 128,-1,11
 314 1312 314 1312 285 1326 c 1,12,-1
 303 1397 l 1,13,-1
 746 1471 l 1,14,-1
 790 1471 l 1,15,-1
 356 81 l 1,16,-1
 303 164 l 1,17,18
 360 159 360 159 418.5 168 c 128,-1,19
 477 177 477 177 538 202.5 c 128,-1,20
 599 228 599 228 663 271 c 1,21,-1
 708 201 l 1,22,23
 605 113 605 113 519 64 c 128,-1,24
 433 15 433 15 361 -4 c 128,-1,25
 289 -23 289 -23 226 -23 c 0,26,27
 149 -23 149 -23 124 13.5 c 128,-1,28
 99 50 99 50 129 147 c 2,29,-1
 466 1229 l 1,8,9
EndSplineSet
EndChar

StartChar: eng
Encoding: 331 331 315
Width: 1310
GlyphClass: 1
Flags: W
LayerCount: 2
Fore
SplineSet
487 -481 m 0,0,1
 391 -481 391 -481 349.5 -443 c 128,-1,2
 308 -405 308 -405 308 -346 c 0,3,4
 308 -292 308 -292 340.5 -258 c 128,-1,5
 373 -224 373 -224 419 -224 c 0,6,7
 426 -224 426 -224 444 -241.5 c 128,-1,8
 462 -259 462 -259 483 -283 c 256,9,10
 504 -307 504 -307 522 -323 c 128,-1,11
 540 -339 540 -339 550 -339 c 0,12,13
 575 -339 575 -339 597.5 -328 c 128,-1,14
 620 -317 620 -317 643.5 -285 c 128,-1,15
 667 -253 667 -253 694 -189 c 128,-1,16
 721 -125 721 -125 754 -19 c 2,17,-1
 943 602 l 2,18,19
 956 643 956 643 962.5 669 c 128,-1,20
 969 695 969 695 971 713.5 c 128,-1,21
 973 732 973 732 973 747 c 0,22,23
 973 775 973 775 952.5 792.5 c 128,-1,24
 932 810 932 810 890 810 c 0,25,26
 831 810 831 810 770.5 768.5 c 128,-1,27
 710 727 710 727 652 650 c 128,-1,28
 594 573 594 573 541.5 464 c 128,-1,29
 489 355 489 355 445 220 c 2,30,-1
 374 0 l 1,31,-1
 119 0 l 1,32,-1
 367 817 l 1,33,34
 364 817 364 817 361 817 c 128,-1,35
 358 817 358 817 355 817 c 0,36,37
 297 817 297 817 251 804.5 c 128,-1,38
 205 792 205 792 166 759.5 c 128,-1,39
 127 727 127 727 87 666 c 1,40,-1
 60 676 l 1,41,42
 95 807 95 807 151 879.5 c 128,-1,43
 207 952 207 952 286.5 980.5 c 128,-1,44
 366 1009 366 1009 467 1009 c 0,45,46
 493 1009 493 1009 514.5 1008 c 128,-1,47
 536 1007 536 1007 558 1005.5 c 128,-1,48
 580 1004 580 1004 606 1001 c 1,49,-1
 435 454 l 1,50,-1
 462 456 l 1,51,52
 537 610 537 610 604 716.5 c 128,-1,53
 671 823 671 823 736.5 887.5 c 128,-1,54
 802 952 802 952 871 981 c 128,-1,55
 940 1010 940 1010 1017 1010 c 0,56,57
 1127 1010 1127 1010 1180 960.5 c 128,-1,58
 1233 911 1233 911 1233 830 c 0,59,60
 1233 791 1233 791 1223 733.5 c 128,-1,61
 1213 676 1213 676 1183 584 c 2,62,-1
 1031 115 l 2,63,64
 965 -85 965 -85 877 -217.5 c 128,-1,65
 789 -350 789 -350 689.5 -415.5 c 128,-1,66
 590 -481 590 -481 487 -481 c 0,0,1
EndSplineSet
EndChar

StartChar: ohorn
Encoding: 417 417 324
Width: 1178
GlyphClass: 2
Flags: W
AnchorPoint: "Anchor-4" 421 0 basechar 0
AnchorPoint: "Anchor-0" 711 987 basechar 0
LayerCount: 2
Fore
SplineSet
469 123 m 0,0,1
 532 123 532 123 587 155.5 c 128,-1,2
 642 188 642 188 685.5 244.5 c 128,-1,3
 729 301 729 301 760 373.5 c 128,-1,4
 791 446 791 446 807.5 526.5 c 128,-1,5
 824 607 824 607 824 687 c 0,6,7
 824 776 824 776 786 820 c 128,-1,8
 748 864 748 864 675 864 c 0,9,10
 612 864 612 864 557.5 831.5 c 128,-1,11
 503 799 503 799 459.5 743 c 128,-1,12
 416 687 416 687 385 614 c 128,-1,13
 354 541 354 541 337.5 460.5 c 128,-1,14
 321 380 321 380 321 300 c 0,15,16
 321 212 321 212 359 167.5 c 128,-1,17
 397 123 397 123 469 123 c 0,0,1
1073 651 m 0,18,19
 1073 517 1073 517 1028.5 396 c 128,-1,20
 984 275 984 275 902.5 180.5 c 128,-1,21
 821 86 821 86 708.5 31.5 c 128,-1,22
 596 -23 596 -23 460 -23 c 0,23,24
 329 -23 329 -23 243 23 c 128,-1,25
 157 69 157 69 114 150.5 c 128,-1,26
 71 232 71 232 71 337 c 0,27,28
 71 470 71 470 116 591.5 c 128,-1,29
 161 713 161 713 242.5 807 c 128,-1,30
 324 901 324 901 436.5 955.5 c 128,-1,31
 549 1010 549 1010 685 1010 c 0,32,33
 739 1010 739 1010 780.5 1004 c 128,-1,34
 822 998 822 998 861 991.5 c 128,-1,35
 900 985 900 985 946 985 c 0,36,37
 1024 985 1024 985 1054.5 1016.5 c 128,-1,38
 1085 1048 1085 1048 1085 1102 c 0,39,40
 1085 1134 1085 1134 1073 1159.5 c 128,-1,41
 1061 1185 1061 1185 1061 1196 c 0,42,43
 1061 1223 1061 1223 1092.5 1249.5 c 128,-1,44
 1124 1276 1124 1276 1172 1276 c 256,45,46
 1220 1276 1220 1276 1248.5 1250 c 128,-1,47
 1277 1224 1277 1224 1277 1171 c 0,48,49
 1277 1083 1277 1083 1242 1021.5 c 128,-1,50
 1207 960 1207 960 1136.5 930 c 128,-1,51
 1066 900 1066 900 957 905 c 1,52,-1
 962 922 l 1,53,54
 1019 875 1019 875 1046 803.5 c 128,-1,55
 1073 732 1073 732 1073 651 c 0,18,19
EndSplineSet
EndChar

StartChar: uni01EB
Encoding: 491 491 325
Width: 1147
GlyphClass: 1
Flags: W
LayerCount: 2
Fore
SplineSet
685 1010 m 0,0,1
 816 1010 816 1010 902 964 c 128,-1,2
 988 918 988 918 1030.5 837 c 128,-1,3
 1073 756 1073 756 1073 651 c 0,4,5
 1073 517 1073 517 1028.5 396 c 128,-1,6
 984 275 984 275 902.5 180.5 c 128,-1,7
 821 86 821 86 708.5 31.5 c 128,-1,8
 596 -23 596 -23 460 -23 c 0,9,10
 329 -23 329 -23 243 23 c 128,-1,11
 157 69 157 69 114 150.5 c 128,-1,12
 71 232 71 232 71 337 c 0,13,14
 71 470 71 470 116 591.5 c 128,-1,15
 161 713 161 713 242.5 807 c 128,-1,16
 324 901 324 901 436.5 955.5 c 128,-1,17
 549 1010 549 1010 685 1010 c 0,0,1
469 123 m 0,18,19
 532 123 532 123 587 155.5 c 128,-1,20
 642 188 642 188 685.5 244.5 c 128,-1,21
 729 301 729 301 760 373.5 c 128,-1,22
 791 446 791 446 807.5 526.5 c 128,-1,23
 824 607 824 607 824 687 c 0,24,25
 824 776 824 776 786 820 c 128,-1,26
 748 864 748 864 675 864 c 0,27,28
 612 864 612 864 557.5 831.5 c 128,-1,29
 503 799 503 799 459.5 743 c 128,-1,30
 416 687 416 687 385 614 c 128,-1,31
 354 541 354 541 337.5 460.5 c 128,-1,32
 321 380 321 380 321 300 c 0,33,34
 321 212 321 212 359 167.5 c 128,-1,35
 397 123 397 123 469 123 c 0,18,19
395 -95 m 2,36,37
 349 -149 349 -149 324.5 -185.5 c 128,-1,38
 300 -222 300 -222 291.5 -247 c 128,-1,39
 283 -272 283 -272 283 -294 c 0,40,41
 283 -328 283 -328 303.5 -346.5 c 128,-1,42
 324 -365 324 -365 365 -365 c 0,43,44
 395 -365 395 -365 423 -356.5 c 128,-1,45
 451 -348 451 -348 495 -323 c 1,46,-1
 501 -390 l 1,47,48
 429 -442 429 -442 378 -461.5 c 128,-1,49
 327 -481 327 -481 273 -481 c 0,50,51
 201 -481 201 -481 166 -442.5 c 128,-1,52
 131 -404 131 -404 131 -348 c 0,53,54
 131 -311 131 -311 144.5 -274 c 128,-1,55
 158 -237 158 -237 196 -190 c 128,-1,56
 234 -143 234 -143 308 -76 c 2,57,-1
 437 45 l 1,58,-1
 514 45 l 1,59,-1
 395 -95 l 2,36,37
EndSplineSet
EndChar

StartChar: oslash
Encoding: 248 248 343
Width: 1189
GlyphClass: 2
Flags: W
AnchorPoint: "Anchor-4" 443 0 basechar 0
AnchorPoint: "Anchor-0" 733 987 basechar 0
LayerCount: 2
Fore
SplineSet
707 1010 m 0,0,1
 837 1010 837 1010 923.5 964 c 128,-1,2
 1010 918 1010 918 1052.5 837 c 128,-1,3
 1095 756 1095 756 1095 651 c 0,4,5
 1095 517 1095 517 1050.5 396 c 128,-1,6
 1006 275 1006 275 924.5 180.5 c 128,-1,7
 843 86 843 86 730.5 31.5 c 128,-1,8
 618 -23 618 -23 481 -23 c 0,9,10
 351 -23 351 -23 265 23 c 128,-1,11
 179 69 179 69 136 150.5 c 128,-1,12
 93 232 93 232 93 337 c 0,13,14
 93 470 93 470 137.5 591.5 c 128,-1,15
 182 713 182 713 264 807 c 128,-1,16
 346 901 346 901 458.5 955.5 c 128,-1,17
 571 1010 571 1010 707 1010 c 0,0,1
491 123 m 0,18,19
 554 123 554 123 608.5 155.5 c 128,-1,20
 663 188 663 188 707 244.5 c 128,-1,21
 751 301 751 301 782 373.5 c 128,-1,22
 813 446 813 446 829.5 526.5 c 128,-1,23
 846 607 846 607 846 687 c 0,24,25
 846 776 846 776 808 820 c 128,-1,26
 770 864 770 864 697 864 c 0,27,28
 634 864 634 864 579.5 831.5 c 128,-1,29
 525 799 525 799 481.5 743 c 128,-1,30
 438 687 438 687 407 614 c 128,-1,31
 376 541 376 541 359.5 460.5 c 128,-1,32
 343 380 343 380 343 300 c 0,33,34
 343 212 343 212 381 167.5 c 128,-1,35
 419 123 419 123 491 123 c 0,18,19
1077 987 m 1,36,-1
 1251 987 l 1,37,-1
 1009 781 l 1,38,-1
 954 750 l 1,39,-1
 308 158 l 1,40,-1
 259 127 l 1,41,-1
 111 0 l 1,42,-1
 -63 0 l 1,43,-1
 178 206 l 1,44,-1
 233 236 l 1,45,-1
 880 829 l 1,46,-1
 929 860 l 1,47,-1
 1077 987 l 1,36,-1
EndSplineSet
EndChar

StartChar: oe
Encoding: 339 339 345
Width: 1758
GlyphClass: 2
Flags: W
AnchorPoint: "Anchor-4" 767 0 basechar 0
AnchorPoint: "Anchor-0" 1040 987 basechar 0
LayerCount: 2
Fore
SplineSet
685 1010 m 0,0,1
 794 1010 794 1010 866.5 974 c 128,-1,2
 939 938 939 938 981.5 877 c 128,-1,3
 1024 816 1024 816 1040 741 c 1,4,-1
 920 742 l 1,5,6
 975 821 975 821 1054.5 882 c 128,-1,7
 1134 943 1134 943 1229.5 976.5 c 128,-1,8
 1325 1010 1325 1010 1427 1010 c 0,9,10
 1535 1010 1535 1010 1601 978.5 c 128,-1,11
 1667 947 1667 947 1697.5 893 c 128,-1,12
 1728 839 1728 839 1728 774 c 0,13,14
 1728 724 1728 724 1712 671 c 128,-1,15
 1696 618 1696 618 1667 573 c 1,16,17
 1584 549 1584 549 1498 528 c 128,-1,18
 1412 507 1412 507 1325.5 490 c 128,-1,19
 1239 473 1239 473 1155 459 c 128,-1,20
 1071 445 1071 445 992 435 c 1,21,-1
 998 531 l 1,22,23
 1142 558 1142 558 1236 581 c 128,-1,24
 1330 604 1330 604 1385 625 c 128,-1,25
 1440 646 1440 646 1466 668 c 128,-1,26
 1492 690 1492 690 1499.5 715.5 c 128,-1,27
 1507 741 1507 741 1507 773 c 0,28,29
 1507 810 1507 810 1493.5 836 c 128,-1,30
 1480 862 1480 862 1453 876 c 128,-1,31
 1426 890 1426 890 1386 890 c 0,32,33
 1331 890 1331 890 1279.5 866 c 128,-1,34
 1228 842 1228 842 1185 797 c 128,-1,35
 1142 752 1142 752 1109.5 689 c 128,-1,36
 1077 626 1077 626 1059.5 548 c 128,-1,37
 1042 470 1042 470 1042 381 c 0,38,39
 1042 254 1042 254 1087.5 204.5 c 128,-1,40
 1133 155 1133 155 1234 155 c 0,41,42
 1295 155 1295 155 1349 173.5 c 128,-1,43
 1403 192 1403 192 1452 233.5 c 128,-1,44
 1501 275 1501 275 1545 344 c 1,45,-1
 1638 344 l 1,46,47
 1574 205 1574 205 1498.5 125 c 128,-1,48
 1423 45 1423 45 1335.5 11 c 128,-1,49
 1248 -23 1248 -23 1147 -23 c 0,50,51
 1047 -23 1047 -23 979.5 10.5 c 128,-1,52
 912 44 912 44 873 105 c 128,-1,53
 834 166 834 166 821 249 c 1,54,-1
 931 248 l 1,55,56
 880 169 880 169 808.5 108 c 128,-1,57
 737 47 737 47 649 12 c 128,-1,58
 561 -23 561 -23 460 -23 c 0,59,60
 329 -23 329 -23 243 23 c 128,-1,61
 157 69 157 69 114 150.5 c 128,-1,62
 71 232 71 232 71 337 c 0,63,64
 71 470 71 470 116 591.5 c 128,-1,65
 161 713 161 713 242.5 807 c 128,-1,66
 324 901 324 901 436.5 955.5 c 128,-1,67
 549 1010 549 1010 685 1010 c 0,0,1
469 123 m 0,68,69
 532 123 532 123 587 155.5 c 128,-1,70
 642 188 642 188 685.5 244.5 c 128,-1,71
 729 301 729 301 760 373.5 c 128,-1,72
 791 446 791 446 807.5 526.5 c 128,-1,73
 824 607 824 607 824 687 c 0,74,75
 824 776 824 776 786 820 c 128,-1,76
 748 864 748 864 675 864 c 0,77,78
 612 864 612 864 557.5 831.5 c 128,-1,79
 503 799 503 799 459.5 743 c 128,-1,80
 416 687 416 687 385 614 c 128,-1,81
 354 541 354 541 337.5 460.5 c 128,-1,82
 321 380 321 380 321 300 c 0,83,84
 321 212 321 212 359 167.5 c 128,-1,85
 397 123 397 123 469 123 c 0,68,69
EndSplineSet
EndChar

StartChar: scedilla
Encoding: 351 351 353
Width: 940
GlyphClass: 1
Flags: W
LayerCount: 2
Fore
SplineSet
180 -481 m 0,0,1
 104 -481 104 -481 72.5 -462 c 128,-1,2
 41 -443 41 -443 41 -410 c 0,3,4
 41 -384 41 -384 57 -366 c 128,-1,5
 73 -348 73 -348 98 -348 c 0,6,7
 111 -348 111 -348 127 -361.5 c 128,-1,8
 143 -375 143 -375 165.5 -389 c 128,-1,9
 188 -403 188 -403 222 -403 c 0,10,11
 279 -403 279 -403 309 -377 c 128,-1,12
 339 -351 339 -351 339 -309 c 0,13,14
 339 -277 339 -277 300.5 -255 c 128,-1,15
 262 -233 262 -233 153 -217 c 1,16,-1
 161 -192 l 1,17,-1
 377 26 l 1,18,-1
 482 26 l 1,19,-1
 269 -186 l 1,20,-1
 286 -99 l 1,21,22
 402 -121 402 -121 445.5 -161.5 c 128,-1,23
 489 -202 489 -202 489 -255 c 0,24,25
 489 -318 489 -318 455.5 -369.5 c 128,-1,26
 422 -421 422 -421 353.5 -451 c 128,-1,27
 285 -481 285 -481 180 -481 c 0,0,1
206 285 m 1,28,29
 216 230 216 230 227.5 195 c 128,-1,30
 239 160 239 160 261 134 c 0,31,32
 282 108 282 108 308 99.5 c 128,-1,33
 334 91 334 91 372 91 c 0,34,35
 440 91 440 91 491.5 109 c 128,-1,36
 543 127 543 127 572.5 161.5 c 128,-1,37
 602 196 602 196 602 247 c 0,38,39
 602 283 602 283 586.5 311.5 c 128,-1,40
 571 340 571 340 529 368 c 128,-1,41
 487 396 487 396 403 429 c 0,42,43
 321 463 321 463 273 500 c 128,-1,44
 225 537 225 537 205 582.5 c 128,-1,45
 185 628 185 628 185 688 c 0,46,47
 185 784 185 784 238 856.5 c 128,-1,48
 291 929 291 929 389.5 969.5 c 128,-1,49
 488 1010 488 1010 626 1010 c 0,50,51
 724 1010 724 1010 788.5 990.5 c 128,-1,52
 853 971 853 971 884.5 935 c 128,-1,53
 916 899 916 899 916 848 c 0,54,55
 916 810 916 810 898 782 c 128,-1,56
 880 754 880 754 842.5 738.5 c 128,-1,57
 805 723 805 723 746 723 c 1,58,59
 734 770 734 770 719.5 800.5 c 128,-1,60
 705 831 705 831 684 854 c 0,61,62
 662 876 662 876 636.5 885.5 c 128,-1,63
 611 895 611 895 577 895 c 0,64,65
 491 895 491 895 441 862 c 128,-1,66
 391 829 391 829 391 772 c 0,67,68
 391 742 391 742 405 717 c 128,-1,69
 419 692 419 692 461 664 c 128,-1,70
 503 636 503 636 588 597 c 0,71,72
 673 559 673 559 720 517.5 c 128,-1,73
 767 476 767 476 785.5 428 c 128,-1,74
 804 380 804 380 804 322 c 0,75,76
 804 214 804 214 745 136.5 c 128,-1,77
 686 59 686 59 579 18 c 128,-1,78
 472 -23 472 -23 328 -23 c 0,79,80
 214 -23 214 -23 146 0.5 c 128,-1,81
 78 24 78 24 47 64 c 128,-1,82
 16 104 16 104 16 153 c 0,83,84
 16 196 16 196 33 225 c 128,-1,85
 50 254 50 254 91.5 269.5 c 128,-1,86
 133 285 133 285 206 285 c 1,28,29
EndSplineSet
Substitution2: "'locl' Localized Forms in Latin lookup 1 subtable" uni0219
Substitution2: "'locl' Localized Forms in Latin lookup 0 subtable" uni0219
EndChar

StartChar: germandbls
Encoding: 223 223 356
Width: 1467
GlyphClass: 1
Flags: W
LayerCount: 2
Fore
SplineSet
130 862 m 1,0,-1
 134 987 l 1,1,-1
 505 987 l 1,2,-1
 501 862 l 1,3,-1
 130 862 l 1,0,-1
495 269 m 2,4,5
 453 69 453 69 392 -73 c 128,-1,6
 331 -215 331 -215 253 -305.5 c 128,-1,7
 175 -396 175 -396 83 -438.5 c 128,-1,8
 -9 -481 -9 -481 -114 -481 c 0,9,10
 -231 -481 -231 -481 -284.5 -437 c 128,-1,11
 -338 -393 -338 -393 -338 -316 c 0,12,13
 -338 -252 -338 -252 -295 -218 c 128,-1,14
 -252 -184 -252 -184 -162 -184 c 1,15,16
 -154 -230 -154 -230 -143.5 -263 c 128,-1,17
 -133 -296 -133 -296 -116 -318 c 0,18,19
 -99 -341 -99 -341 -77.5 -349 c 128,-1,20
 -56 -357 -56 -357 -27 -357 c 0,21,22
 12 -357 12 -357 46.5 -340 c 128,-1,23
 81 -323 81 -323 111 -283.5 c 128,-1,24
 141 -244 141 -244 166 -176.5 c 128,-1,25
 191 -109 191 -109 210 -7 c 2,26,-1
 393 956 l 2,27,28
 426 1130 426 1130 504.5 1244 c 128,-1,29
 583 1358 583 1358 705 1414.5 c 128,-1,30
 827 1471 827 1471 991 1471 c 0,31,32
 1127 1471 1127 1471 1210.5 1440.5 c 128,-1,33
 1294 1410 1294 1410 1332.5 1356 c 128,-1,34
 1371 1302 1371 1302 1371 1231 c 0,35,36
 1371 1150 1371 1150 1327 1089 c 128,-1,37
 1283 1028 1283 1028 1181 970 c 0,38,39
 1113 932 1113 932 1076.5 902.5 c 128,-1,40
 1040 873 1040 873 1026.5 846.5 c 128,-1,41
 1013 820 1013 820 1013 789 c 0,42,43
 1013 766 1013 766 1024.5 742 c 128,-1,44
 1036 718 1036 718 1067.5 687 c 128,-1,45
 1099 656 1099 656 1160 611 c 0,46,47
 1251 543 1251 543 1289 475 c 128,-1,48
 1327 407 1327 407 1327 327 c 0,49,50
 1327 219 1327 219 1275.5 140 c 128,-1,51
 1224 61 1224 61 1128.5 19 c 128,-1,52
 1033 -23 1033 -23 901 -23 c 0,53,54
 739 -23 739 -23 671.5 27 c 128,-1,55
 604 77 604 77 604 151 c 0,56,57
 604 195 604 195 621.5 223.5 c 128,-1,58
 639 252 639 252 680.5 267 c 128,-1,59
 722 282 722 282 792 282 c 1,60,61
 801 225 801 225 813.5 191.5 c 128,-1,62
 826 158 826 158 844 133 c 0,63,64
 863 109 863 109 887.5 100 c 128,-1,65
 912 91 912 91 944 91 c 0,66,67
 998 91 998 91 1038 109 c 128,-1,68
 1078 127 1078 127 1100 163 c 128,-1,69
 1122 199 1122 199 1122 253 c 0,70,71
 1122 302 1122 302 1091 347 c 128,-1,72
 1060 392 1060 392 966 456 c 0,73,74
 873 521 873 521 838 577.5 c 128,-1,75
 803 634 803 634 803 700 c 0,76,77
 803 748 803 748 818.5 791 c 128,-1,78
 834 834 834 834 872.5 877.5 c 128,-1,79
 911 921 911 921 978 968 c 0,80,81
 1044 1015 1044 1015 1080.5 1055 c 128,-1,82
 1117 1095 1117 1095 1131.5 1133.5 c 128,-1,83
 1146 1172 1146 1172 1146 1214 c 0,84,85
 1146 1281 1146 1281 1103.5 1319.5 c 128,-1,86
 1061 1358 1061 1358 962 1358 c 0,87,88
 874 1358 874 1358 816 1329 c 128,-1,89
 758 1300 758 1300 722 1236.5 c 128,-1,90
 686 1173 686 1173 664 1071 c 2,91,-1
 495 269 l 2,4,5
EndSplineSet
EndChar

StartChar: uni0163
Encoding: 355 355 357
Width: 846
GlyphClass: 1
Flags: W
LayerCount: 2
Fore
SplineSet
139 862 m 1,0,-1
 145 987 l 1,1,-1
 896 987 l 1,2,-1
 892 862 l 1,3,-1
 139 862 l 1,0,-1
457 367 m 2,4,5
 443 321 443 321 434.5 289.5 c 128,-1,6
 426 258 426 258 422.5 238 c 128,-1,7
 419 218 419 218 419 206 c 0,8,9
 419 182 419 182 428.5 174 c 128,-1,10
 438 166 438 166 456 166 c 0,11,12
 478 166 478 166 510 179 c 128,-1,13
 542 192 542 192 589.5 224.5 c 128,-1,14
 637 257 637 257 702 314 c 1,15,-1
 758 248 l 1,16,17
 683 170 683 170 617 118 c 128,-1,18
 551 66 551 66 494.5 35 c 128,-1,19
 438 4 438 4 389.5 -9.5 c 128,-1,20
 341 -23 341 -23 300 -23 c 0,21,22
 235 -23 235 -23 199 12.5 c 128,-1,23
 163 48 163 48 163 125 c 0,24,25
 163 162 163 162 174 215.5 c 128,-1,26
 185 269 185 269 211 350 c 2,27,-1
 480 1212 l 1,28,-1
 726 1212 l 1,29,-1
 457 367 l 2,4,5
145 -481 m 0,30,31
 69 -481 69 -481 37.5 -462 c 128,-1,32
 6 -443 6 -443 6 -410 c 0,33,34
 6 -384 6 -384 22 -366 c 128,-1,35
 38 -348 38 -348 63 -348 c 0,36,37
 76 -348 76 -348 92 -361.5 c 128,-1,38
 108 -375 108 -375 130.5 -389 c 128,-1,39
 153 -403 153 -403 187 -403 c 0,40,41
 244 -403 244 -403 274 -377 c 128,-1,42
 304 -351 304 -351 304 -309 c 0,43,44
 304 -277 304 -277 265.5 -255 c 128,-1,45
 227 -233 227 -233 118 -217 c 1,46,-1
 126 -192 l 1,47,-1
 348 34 l 1,48,-1
 453 34 l 1,49,-1
 234 -186 l 1,50,-1
 251 -99 l 1,51,52
 367 -121 367 -121 410.5 -161.5 c 128,-1,53
 454 -202 454 -202 454 -255 c 0,54,55
 454 -318 454 -318 420.5 -369.5 c 128,-1,56
 387 -421 387 -421 318.5 -451 c 128,-1,57
 250 -481 250 -481 145 -481 c 0,30,31
EndSplineSet
EndChar

StartChar: tbar
Encoding: 359 359 359
Width: 877
GlyphClass: 1
Flags: W
LayerCount: 2
Fore
SplineSet
104 515 m 1,0,-1
 139 631 l 1,1,-1
 796 631 l 1,2,-1
 761 515 l 1,3,-1
 104 515 l 1,0,-1
165 862 m 1,4,-1
 171 987 l 1,5,-1
 923 987 l 1,6,-1
 918 862 l 1,7,-1
 165 862 l 1,4,-1
445 206 m 0,8,9
 445 182 445 182 454.5 174 c 128,-1,10
 464 166 464 166 483 166 c 0,11,12
 504 166 504 166 536.5 179 c 128,-1,13
 569 192 569 192 616 224.5 c 128,-1,14
 663 257 663 257 728 314 c 1,15,-1
 784 248 l 1,16,17
 709 170 709 170 643.5 118 c 128,-1,18
 578 66 578 66 521 35 c 128,-1,19
 464 4 464 4 416 -9.5 c 128,-1,20
 368 -23 368 -23 327 -23 c 0,21,22
 262 -23 262 -23 225.5 12.5 c 128,-1,23
 189 48 189 48 189 125 c 0,24,25
 189 162 189 162 200.5 215.5 c 128,-1,26
 212 269 212 269 237 350 c 2,27,-1
 506 1212 l 1,28,-1
 753 1212 l 1,29,-1
 484 367 l 2,30,31
 469 321 469 321 460.5 289.5 c 128,-1,32
 452 258 452 258 448.5 238 c 128,-1,33
 445 218 445 218 445 206 c 0,8,9
EndSplineSet
EndChar

StartChar: uogonek
Encoding: 371 371 370
Width: 1344
GlyphClass: 1
Flags: W
LayerCount: 2
Fore
SplineSet
1318 207 m 1,0,1
 1273 164 1273 164 1226.5 122.5 c 128,-1,2
 1180 81 1180 81 1130 38 c 2,3,-1
 1018 -60 l 2,4,5
 950 -119 950 -119 915.5 -160.5 c 128,-1,6
 881 -202 881 -202 869 -233 c 128,-1,7
 857 -264 857 -264 857 -292 c 0,8,9
 857 -327 857 -327 878 -346 c 128,-1,10
 899 -365 899 -365 940 -365 c 0,11,12
 970 -365 970 -365 998 -356.5 c 128,-1,13
 1026 -348 1026 -348 1071 -323 c 1,14,-1
 1076 -390 l 1,15,16
 1005 -442 1005 -442 954 -461.5 c 128,-1,17
 903 -481 903 -481 849 -481 c 0,18,19
 776 -481 776 -481 740.5 -442 c 128,-1,20
 705 -403 705 -403 705 -346 c 0,21,22
 705 -307 705 -307 720 -269 c 128,-1,23
 735 -231 735 -231 779 -183 c 128,-1,24
 823 -135 823 -135 907 -68 c 2,25,-1
 1045 44 l 1,26,-1
 1058 25 l 1,27,28
 1000 -2 1000 -2 954 -12.5 c 128,-1,29
 908 -23 908 -23 873 -23 c 0,30,31
 807 -23 807 -23 783.5 5.5 c 128,-1,32
 760 34 760 34 781 99 c 2,33,-1
 901 459 l 1,34,-1
 879 456 l 1,35,36
 795 305 795 305 727 210 c 128,-1,37
 659 115 659 115 599 64.5 c 128,-1,38
 539 14 539 14 480 -4.5 c 128,-1,39
 421 -23 421 -23 355 -23 c 0,40,41
 247 -23 247 -23 196 27.5 c 128,-1,42
 145 78 145 78 145 156 c 0,43,44
 145 195 145 195 158 252 c 128,-1,45
 171 309 171 309 209 408 c 2,46,-1
 399 904 l 1,47,-1
 445 830 l 1,48,49
 390 831 390 831 334 816 c 128,-1,50
 278 801 278 801 219.5 769.5 c 128,-1,51
 161 738 161 738 97 687 c 1,52,-1
 45 755 l 1,53,54
 147 855 147 855 234 910.5 c 128,-1,55
 321 966 321 966 394.5 988 c 128,-1,56
 468 1010 468 1010 529 1010 c 0,57,58
 611 1010 611 1010 635.5 968.5 c 128,-1,59
 660 927 660 927 625 837 c 2,60,-1
 437 352 l 2,61,62
 420 306 420 306 411.5 276 c 128,-1,63
 403 246 403 246 403 226 c 0,64,65
 403 197 403 197 423.5 182 c 128,-1,66
 444 167 444 167 481 167 c 0,67,68
 519 167 519 167 566.5 190 c 128,-1,69
 614 213 614 213 666.5 267 c 128,-1,70
 719 321 719 321 772.5 414 c 128,-1,71
 826 507 826 507 876 648 c 2,72,-1
 1000 987 l 1,73,-1
 1256 987 l 1,74,-1
 962 74 l 1,75,-1
 908 155 l 1,76,77
 962 151 962 151 1019 161.5 c 128,-1,78
 1076 172 1076 172 1139.5 199.5 c 128,-1,79
 1203 227 1203 227 1273 275 c 1,80,-1
 1318 207 l 1,0,1
EndSplineSet
EndChar

StartChar: uhorn
Encoding: 432 432 371
Width: 1418
GlyphClass: 2
Flags: W
AnchorPoint: "Anchor-4" 550 0 basechar 0
AnchorPoint: "Anchor-0" 781 987 basechar 0
LayerCount: 2
Fore
SplineSet
781 99 m 2,0,-1
 901 459 l 1,1,-1
 879 456 l 1,2,3
 795 305 795 305 727 210 c 128,-1,4
 659 115 659 115 599 64.5 c 128,-1,5
 539 14 539 14 480 -4.5 c 128,-1,6
 421 -23 421 -23 355 -23 c 0,7,8
 247 -23 247 -23 196 27.5 c 128,-1,9
 145 78 145 78 145 156 c 0,10,11
 145 195 145 195 158 252 c 128,-1,12
 171 309 171 309 209 408 c 2,13,-1
 399 904 l 1,14,-1
 445 830 l 1,15,16
 390 831 390 831 334 816 c 128,-1,17
 278 801 278 801 219.5 769.5 c 128,-1,18
 161 738 161 738 97 687 c 1,19,-1
 45 755 l 1,20,21
 147 855 147 855 234 910.5 c 128,-1,22
 321 966 321 966 394.5 988 c 128,-1,23
 468 1010 468 1010 529 1010 c 0,24,25
 611 1010 611 1010 635.5 968.5 c 128,-1,26
 660 927 660 927 625 837 c 2,27,-1
 437 352 l 2,28,29
 420 306 420 306 411.5 276 c 128,-1,30
 403 246 403 246 403 226 c 0,31,32
 403 197 403 197 423.5 182 c 128,-1,33
 444 167 444 167 481 167 c 0,34,35
 519 167 519 167 566.5 190 c 128,-1,36
 614 213 614 213 666.5 267 c 128,-1,37
 719 321 719 321 772.5 414 c 128,-1,38
 826 507 826 507 876 648 c 2,39,-1
 1000 987 l 1,40,-1
 1256 987 l 1,41,-1
 962 74 l 1,42,-1
 908 155 l 1,43,44
 962 151 962 151 1019 161.5 c 128,-1,45
 1076 172 1076 172 1139.5 199.5 c 128,-1,46
 1203 227 1203 227 1273 275 c 1,47,-1
 1318 207 l 1,48,49
 1170 73 1170 73 1057.5 25 c 128,-1,50
 945 -23 945 -23 873 -23 c 0,51,52
 807 -23 807 -23 783.5 5.5 c 128,-1,53
 760 34 760 34 781 99 c 2,0,-1
1559 1171 m 0,54,55
 1559 1093 1559 1093 1517 1031.5 c 128,-1,56
 1475 970 1475 970 1397 934 c 128,-1,57
 1319 898 1319 898 1211 898 c 2,58,-1
 1069 898 l 1,59,-1
 1098 987 l 1,60,-1
 1205 987 l 2,61,62
 1291 987 1291 987 1329 1017.5 c 128,-1,63
 1367 1048 1367 1048 1367 1102 c 0,64,65
 1367 1134 1367 1134 1355 1159.5 c 128,-1,66
 1343 1185 1343 1185 1343 1196 c 0,67,68
 1343 1223 1343 1223 1374.5 1249.5 c 128,-1,69
 1406 1276 1406 1276 1454 1276 c 256,70,71
 1502 1276 1502 1276 1530.5 1250 c 128,-1,72
 1559 1224 1559 1224 1559 1171 c 0,54,55
EndSplineSet
EndChar

StartChar: thorn
Encoding: 254 254 396
Width: 1194
GlyphClass: 1
Flags: W
LayerCount: 2
Fore
SplineSet
346 299 m 2,0,1
 339 274 339 274 336.5 256.5 c 128,-1,2
 334 239 334 239 334 225 c 0,3,4
 334 168 334 168 374 131 c 128,-1,5
 414 94 414 94 494 94 c 0,6,7
 554 94 554 94 609.5 126.5 c 128,-1,8
 665 159 665 159 712.5 216 c 128,-1,9
 760 273 760 273 795 345.5 c 128,-1,10
 830 418 830 418 849.5 499 c 128,-1,11
 869 580 869 580 869 661 c 0,12,13
 869 749 869 749 837.5 787.5 c 128,-1,14
 806 826 806 826 745 826 c 0,15,16
 703 826 703 826 658 802 c 128,-1,17
 613 778 613 778 570 736 c 128,-1,18
 527 694 527 694 489 641.5 c 128,-1,19
 451 589 451 589 422.5 532.5 c 128,-1,20
 394 476 394 476 380 423 c 2,21,-1
 346 299 l 2,0,1
389 623 m 1,22,-1
 406 628 l 1,23,24
 484 764 484 764 559 848 c 128,-1,25
 634 932 634 932 710 971 c 128,-1,26
 786 1010 786 1010 863 1010 c 0,27,28
 997 1010 997 1010 1066.5 927 c 128,-1,29
 1136 844 1136 844 1136 711 c 0,30,31
 1136 599 1136 599 1104.5 491.5 c 128,-1,32
 1073 384 1073 384 1015 291 c 128,-1,33
 957 198 957 198 878 127.5 c 128,-1,34
 799 57 799 57 703.5 17 c 128,-1,35
 608 -23 608 -23 502 -23 c 0,36,37
 389 -23 389 -23 311 17.5 c 128,-1,38
 233 58 233 58 216 137 c 1,39,-1
 315 137 l 1,40,-1
 176 -338 l 1,41,-1
 348 -378 l 1,42,-1
 323 -458 l 1,43,-1
 -238 -458 l 1,44,-1
 -215 -378 l 1,45,-1
 -71 -338 l 1,46,-1
 392 1229 l 1,47,48
 374 1241 374 1241 342 1258.5 c 128,-1,49
 310 1276 310 1276 275 1294 c 128,-1,50
 240 1312 240 1312 211 1326 c 1,51,-1
 229 1397 l 1,52,-1
 656 1471 l 1,53,-1
 700 1471 l 1,54,-1
 389 623 l 1,22,-1
EndSplineSet
EndChar

StartChar: eth
Encoding: 240 240 397
Width: 1151
GlyphClass: 1
Flags: W
LayerCount: 2
Fore
SplineSet
870 665 m 1,0,-1
 829 627 l 1,1,2
 859 797 859 797 848.5 918.5 c 128,-1,3
 838 1040 838 1040 782 1123.5 c 128,-1,4
 726 1207 726 1207 620 1262.5 c 128,-1,5
 514 1318 514 1318 354 1356 c 1,6,-1
 386 1471 l 1,7,8
 591 1438 591 1438 727.5 1372.5 c 128,-1,9
 864 1307 864 1307 944 1213.5 c 128,-1,10
 1024 1120 1024 1120 1057 1004.5 c 128,-1,11
 1090 889 1090 889 1088 757 c 0,12,13
 1086 592 1086 592 1039.5 450 c 128,-1,14
 993 308 993 308 909.5 202 c 128,-1,15
 826 96 826 96 711 36.5 c 128,-1,16
 596 -23 596 -23 456 -23 c 0,17,18
 327 -23 327 -23 240.5 21 c 128,-1,19
 154 65 154 65 111.5 143 c 128,-1,20
 69 221 69 221 69 322 c 0,21,22
 69 454 69 454 110.5 571.5 c 128,-1,23
 152 689 152 689 225 778.5 c 128,-1,24
 298 868 298 868 394 919 c 128,-1,25
 490 970 490 970 600 970 c 0,26,27
 696 970 696 970 756 930 c 128,-1,28
 816 890 816 890 843.5 821.5 c 128,-1,29
 871 753 871 753 870 665 c 1,0,-1
468 122 m 0,30,31
 531 122 531 122 585.5 153.5 c 128,-1,32
 640 185 640 185 683.5 239 c 128,-1,33
 727 293 727 293 758 362.5 c 128,-1,34
 789 432 789 432 805.5 510 c 128,-1,35
 822 588 822 588 822 665 c 0,36,37
 822 749 822 749 784 791.5 c 128,-1,38
 746 834 746 834 674 834 c 0,39,40
 611 834 611 834 556.5 802.5 c 128,-1,41
 502 771 502 771 458.5 717 c 128,-1,42
 415 663 415 663 384 593.5 c 128,-1,43
 353 524 353 524 336 446 c 128,-1,44
 319 368 319 368 319 291 c 0,45,46
 319 207 319 207 357.5 164.5 c 128,-1,47
 396 122 396 122 468 122 c 0,30,31
490 1025 m 1,48,-1
 437 1121 l 1,49,-1
 1040 1461 l 1,50,-1
 1092 1365 l 1,51,-1
 490 1025 l 1,48,-1
EndSplineSet
EndChar

StartChar: uni0259
Encoding: 601 601 398
Width: 1043
GlyphClass: 1
Flags: W
LayerCount: 2
Fore
SplineSet
375 97 m 0,0,1
 431 97 431 97 482 121 c 128,-1,2
 533 145 533 145 576 190 c 128,-1,3
 619 235 619 235 651.5 298 c 128,-1,4
 684 361 684 361 701.5 439 c 128,-1,5
 719 517 719 517 719 606 c 0,6,7
 719 734 719 734 673.5 783 c 128,-1,8
 628 832 628 832 527 832 c 0,9,10
 467 832 467 832 412.5 814 c 128,-1,11
 358 796 358 796 309 754.5 c 128,-1,12
 260 713 260 713 216 644 c 1,13,-1
 123 644 l 1,14,15
 187 782 187 782 262.5 862 c 128,-1,16
 338 942 338 942 426 976 c 128,-1,17
 514 1010 514 1010 614 1010 c 0,18,19
 733 1010 733 1010 812.5 971 c 128,-1,20
 892 932 892 932 932 856 c 128,-1,21
 972 780 972 780 972 668 c 0,22,23
 972 551 972 551 942 447 c 128,-1,24
 912 343 912 343 855 257 c 128,-1,25
 798 171 798 171 719 108 c 128,-1,26
 640 45 640 45 543 11 c 128,-1,27
 446 -23 446 -23 334 -23 c 0,28,29
 226 -23 226 -23 160 9 c 128,-1,30
 94 41 94 41 63.5 94.5 c 128,-1,31
 33 148 33 148 33 213 c 0,32,33
 33 264 33 264 49 316.5 c 128,-1,34
 65 369 65 369 94 414 c 1,35,36
 177 439 177 439 263 459.5 c 128,-1,37
 349 480 349 480 435.5 497 c 128,-1,38
 522 514 522 514 606 528 c 128,-1,39
 690 542 690 542 769 552 c 1,40,-1
 763 457 l 1,41,42
 619 429 619 429 525 406 c 128,-1,43
 431 383 431 383 376 362 c 128,-1,44
 321 341 321 341 295 319 c 128,-1,45
 269 297 269 297 261.5 271.5 c 128,-1,46
 254 246 254 246 254 214 c 0,47,48
 254 178 254 178 267.5 152 c 128,-1,49
 281 126 281 126 308.5 111.5 c 128,-1,50
 336 97 336 97 375 97 c 0,0,1
EndSplineSet
EndChar

StartChar: gravecomb
Encoding: 768 768 416
Width: 0
GlyphClass: 4
Flags: W
AnchorPoint: "Anchor-6" 296 1463 basemark 0
AnchorPoint: "Anchor-6" 152 991 mark 0
AnchorPoint: "Anchor-0" 152 991 mark 0
LayerCount: 2
Fore
SplineSet
259 1106 m 1,0,-1
 147 1106 l 1,1,-1
 -84 1390 l 1,2,-1
 -73 1433 l 1,3,-1
 168 1433 l 1,4,-1
 259 1106 l 1,0,-1
EndSplineSet
EndChar

StartChar: acutecomb
Encoding: 769 769 417
Width: 0
GlyphClass: 4
Flags: W
AnchorPoint: "Anchor-6" 296 1464 basemark 0
AnchorPoint: "Anchor-6" 152 991 mark 0
AnchorPoint: "Anchor-0" 152 991 mark 0
LayerCount: 2
Fore
SplineSet
114 1106 m 1,0,-1
 368 1433 l 1,1,-1
 642 1433 l 1,2,-1
 630 1390 l 1,3,-1
 241 1106 l 1,4,-1
 114 1106 l 1,0,-1
EndSplineSet
EndChar

StartChar: uni0302
Encoding: 770 770 418
Width: 0
GlyphClass: 4
Flags: W
AnchorPoint: "Anchor-6" 286 1433 basemark 0
AnchorPoint: "Anchor-6" 152 991 mark 0
AnchorPoint: "Anchor-0" 152 991 mark 0
LayerCount: 2
Fore
SplineSet
-146 1106 m 1,0,-1
 187 1433 l 1,1,-1
 385 1433 l 1,2,-1
 519 1106 l 1,3,-1
 378 1106 l 1,4,-1
 232 1312 l 1,5,-1
 290 1312 l 1,6,-1
 18 1106 l 1,7,-1
 -146 1106 l 1,0,-1
EndSplineSet
EndChar

StartChar: tildecomb
Encoding: 771 771 419
Width: 0
GlyphClass: 4
Flags: W
AnchorPoint: "Anchor-6" 262 1354 basemark 0
AnchorPoint: "Anchor-6" 152 991 mark 0
AnchorPoint: "Anchor-0" 152 991 mark 0
LayerCount: 2
Fore
SplineSet
592 1422 m 1,0,1
 544 1299 544 1299 504 1232 c 128,-1,2
 464 1165 464 1165 423 1138 c 128,-1,3
 382 1111 382 1111 332 1111 c 0,4,5
 291 1111 291 1111 262.5 1134 c 128,-1,6
 234 1157 234 1157 211.5 1186 c 128,-1,7
 189 1215 189 1215 168.5 1237.5 c 128,-1,8
 148 1260 148 1260 122 1260 c 0,9,10
 102 1260 102 1260 84 1249.5 c 128,-1,11
 66 1239 66 1239 46.5 1208.5 c 128,-1,12
 27 1178 27 1178 1 1117 c 1,13,-1
 -126 1117 l 1,14,15
 -77 1240 -77 1240 -37 1307 c 128,-1,16
 3 1374 3 1374 44 1400.5 c 128,-1,17
 85 1427 85 1427 135 1427 c 0,18,19
 176 1427 176 1427 204.5 1404.5 c 128,-1,20
 233 1382 233 1382 255 1353 c 128,-1,21
 277 1324 277 1324 298 1301.5 c 128,-1,22
 319 1279 319 1279 344 1279 c 0,23,24
 365 1279 365 1279 382.5 1289.5 c 128,-1,25
 400 1300 400 1300 419.5 1330.5 c 128,-1,26
 439 1361 439 1361 466 1422 c 1,27,-1
 592 1422 l 1,0,1
EndSplineSet
EndChar

StartChar: uni0304
Encoding: 772 772 420
Width: 0
GlyphClass: 4
Flags: W
AnchorPoint: "Anchor-6" 286 1433 basemark 0
AnchorPoint: "Anchor-6" 152 991 mark 0
AnchorPoint: "Anchor-0" 152 991 mark 0
LayerCount: 2
Fore
SplineSet
-72 1203 m 1,0,-1
 -31 1337 l 1,1,-1
 546 1337 l 1,2,-1
 505 1203 l 1,3,-1
 -72 1203 l 1,0,-1
EndSplineSet
EndChar

StartChar: uni0306
Encoding: 774 774 421
Width: 0
GlyphClass: 4
Flags: W
AnchorPoint: "Anchor-6" 286 1433 basemark 0
AnchorPoint: "Anchor-6" 152 991 mark 0
AnchorPoint: "Anchor-0" 152 991 mark 0
LayerCount: 2
Fore
SplineSet
224 1258 m 0,0,1
 282 1258 282 1258 325.5 1274 c 128,-1,2
 369 1290 369 1290 404.5 1328.5 c 128,-1,3
 440 1367 440 1367 474 1433 c 1,4,-1
 591 1433 l 1,5,6
 534 1306 534 1306 476.5 1233.5 c 128,-1,7
 419 1161 419 1161 351 1130.5 c 128,-1,8
 283 1100 283 1100 194 1100 c 0,9,10
 100 1100 100 1100 47 1134 c 128,-1,11
 -6 1168 -6 1168 -21 1241.5 c 128,-1,12
 -36 1315 -36 1315 -18 1433 c 1,13,-1
 81 1433 l 1,14,15
 76 1366 76 1366 88.5 1328 c 128,-1,16
 101 1290 101 1290 134 1274 c 128,-1,17
 167 1258 167 1258 224 1258 c 0,0,1
EndSplineSet
EndChar

StartChar: uni0307
Encoding: 775 775 422
Width: 0
GlyphClass: 4
Flags: W
AnchorPoint: "Anchor-6" 262 1354 basemark 0
AnchorPoint: "Anchor-6" 152 991 mark 0
AnchorPoint: "Anchor-0" 152 991 mark 0
LayerCount: 2
Fore
SplineSet
218 1142 m 0,0,1
 153 1142 153 1142 118 1171.5 c 128,-1,2
 83 1201 83 1201 83 1252 c 0,3,4
 83 1314 83 1314 124.5 1355.5 c 128,-1,5
 166 1397 166 1397 255 1397 c 0,6,7
 321 1397 321 1397 355.5 1368 c 128,-1,8
 390 1339 390 1339 390 1289 c 0,9,10
 390 1227 390 1227 348.5 1184.5 c 128,-1,11
 307 1142 307 1142 218 1142 c 0,0,1
EndSplineSet
EndChar

StartChar: uni0308
Encoding: 776 776 423
Width: 0
GlyphClass: 4
Flags: W
AnchorPoint: "Anchor-6" 262 1354 basemark 0
AnchorPoint: "Anchor-6" 152 991 mark 0
AnchorPoint: "Anchor-0" 152 991 mark 0
LayerCount: 2
Fore
SplineSet
4 1149 m 0,0,1
 -50 1149 -50 1149 -80 1176.5 c 128,-1,2
 -110 1204 -110 1204 -110 1252 c 0,3,4
 -110 1288 -110 1288 -94 1319.5 c 128,-1,5
 -78 1351 -78 1351 -44.5 1370.5 c 128,-1,6
 -11 1390 -11 1390 41 1390 c 0,7,8
 96 1390 96 1390 125.5 1363.5 c 128,-1,9
 155 1337 155 1337 155 1289 c 0,10,11
 155 1252 155 1252 139 1220 c 128,-1,12
 123 1188 123 1188 90 1168.5 c 128,-1,13
 57 1149 57 1149 4 1149 c 0,0,1
431 1149 m 0,14,15
 377 1149 377 1149 347 1176.5 c 128,-1,16
 317 1204 317 1204 317 1252 c 0,17,18
 317 1288 317 1288 333 1319.5 c 128,-1,19
 349 1351 349 1351 382.5 1370.5 c 128,-1,20
 416 1390 416 1390 468 1390 c 0,21,22
 522 1390 522 1390 552 1363.5 c 128,-1,23
 582 1337 582 1337 582 1289 c 0,24,25
 582 1252 582 1252 566 1220 c 128,-1,26
 550 1188 550 1188 517 1168.5 c 128,-1,27
 484 1149 484 1149 431 1149 c 0,14,15
EndSplineSet
EndChar

StartChar: hookabovecomb
Encoding: 777 777 424
Width: 0
GlyphClass: 4
Flags: W
AnchorPoint: "Anchor-6" 286 1433 basemark 0
AnchorPoint: "Anchor-6" 152 991 mark 0
AnchorPoint: "Anchor-0" 152 991 mark 0
LayerCount: 2
Fore
SplineSet
67 1329 m 1,0,-1
 117 1477 l 1,1,2
 255 1475 255 1475 328 1455.5 c 128,-1,3
 401 1436 401 1436 428.5 1403 c 128,-1,4
 456 1370 456 1370 456 1328 c 0,5,6
 456 1270 456 1270 427.5 1224 c 128,-1,7
 399 1178 399 1178 324 1145 c 128,-1,8
 249 1112 249 1112 107 1090 c 1,9,-1
 112 1164 l 1,10,11
 189 1179 189 1179 227 1194.5 c 128,-1,12
 265 1210 265 1210 277 1228 c 128,-1,13
 289 1246 289 1246 289 1267 c 0,14,15
 289 1287 289 1287 273 1300.5 c 128,-1,16
 257 1314 257 1314 209.5 1322 c 128,-1,17
 162 1330 162 1330 67 1329 c 1,0,-1
EndSplineSet
EndChar

StartChar: uni030A
Encoding: 778 778 425
Width: 0
GlyphClass: 4
Flags: W
AnchorPoint: "Anchor-6" 287 1435 basemark 0
AnchorPoint: "Anchor-6" 152 991 mark 0
AnchorPoint: "Anchor-0" 152 991 mark 0
LayerCount: 2
Fore
SplineSet
256 1456 m 0,0,1
 332 1456 332 1456 378 1411.5 c 128,-1,2
 424 1367 424 1367 424 1295 c 0,3,4
 424 1209 424 1209 368 1149 c 128,-1,5
 312 1089 312 1089 216 1089 c 0,6,7
 140 1089 140 1089 93.5 1133.5 c 128,-1,8
 47 1178 47 1178 47 1249 c 0,9,10
 47 1336 47 1336 103.5 1396 c 128,-1,11
 160 1456 160 1456 256 1456 c 0,0,1
222 1157 m 0,12,13
 284 1157 284 1157 317 1197 c 128,-1,14
 350 1237 350 1237 350 1289 c 0,15,16
 350 1336 350 1336 323.5 1363 c 128,-1,17
 297 1390 297 1390 250 1390 c 0,18,19
 188 1390 188 1390 154.5 1349.5 c 128,-1,20
 121 1309 121 1309 121 1254 c 0,21,22
 121 1210 121 1210 148 1183.5 c 128,-1,23
 175 1157 175 1157 222 1157 c 0,12,13
EndSplineSet
EndChar

StartChar: uni030B
Encoding: 779 779 426
Width: 0
GlyphClass: 4
Flags: W
AnchorPoint: "Anchor-6" 287 1433 basemark 0
AnchorPoint: "Anchor-6" 152 991 mark 0
AnchorPoint: "Anchor-0" 152 991 mark 0
LayerCount: 2
Fore
SplineSet
259 1106 m 1,0,-1
 522 1433 l 1,1,-1
 781 1433 l 1,2,-1
 768 1390 l 1,3,-1
 377 1106 l 1,4,-1
 259 1106 l 1,0,-1
-30 1106 m 1,5,-1
 135 1433 l 1,6,-1
 371 1433 l 1,7,-1
 361 1395 l 1,8,-1
 74 1106 l 1,9,-1
 -30 1106 l 1,5,-1
EndSplineSet
EndChar

StartChar: uni030C
Encoding: 780 780 427
Width: 0
GlyphClass: 4
Flags: W
AnchorPoint: "Anchor-6" 287 1433 basemark 0
AnchorPoint: "Anchor-6" 152 991 mark 0
AnchorPoint: "Anchor-0" 152 991 mark 0
LayerCount: 2
Fore
SplineSet
619 1433 m 1,0,-1
 286 1106 l 1,1,-1
 87 1106 l 1,2,-1
 -46 1433 l 1,3,-1
 95 1433 l 1,4,-1
 241 1227 l 1,5,-1
 183 1227 l 1,6,-1
 455 1433 l 1,7,-1
 619 1433 l 1,0,-1
EndSplineSet
EndChar

StartChar: uni030F
Encoding: 783 783 428
Width: 0
GlyphClass: 4
Flags: W
AnchorPoint: "Anchor-6" 287 1433 basemark 0
AnchorPoint: "Anchor-6" 152 991 mark 0
AnchorPoint: "Anchor-0" 152 991 mark 0
LayerCount: 2
Fore
SplineSet
117 1106 m 1,0,-1
 0 1106 l 1,1,-1
 -220 1390 l 1,2,-1
 -209 1433 l 1,3,-1
 10 1433 l 1,4,-1
 117 1106 l 1,0,-1
408 1106 m 1,5,-1
 301 1106 l 1,6,-1
 186 1395 l 1,7,-1
 195 1433 l 1,8,-1
 405 1433 l 1,9,-1
 408 1106 l 1,5,-1
EndSplineSet
EndChar

StartChar: uni0311
Encoding: 785 785 429
Width: 0
GlyphClass: 4
Flags: W
AnchorPoint: "Anchor-6" 287 1433 basemark 0
AnchorPoint: "Anchor-6" 152 991 mark 0
AnchorPoint: "Anchor-0" 152 991 mark 0
LayerCount: 2
Fore
SplineSet
250 1281 m 0,0,1
 192 1281 192 1281 148.5 1264.5 c 128,-1,2
 105 1248 105 1248 69 1210 c 128,-1,3
 33 1172 33 1172 -1 1106 c 1,4,-1
 -118 1106 l 1,5,6
 -60 1233 -60 1233 -3 1305.5 c 128,-1,7
 54 1378 54 1378 122.5 1408.5 c 128,-1,8
 191 1439 191 1439 280 1439 c 0,9,10
 374 1439 374 1439 426.5 1405 c 128,-1,11
 479 1371 479 1371 494.5 1297.5 c 128,-1,12
 510 1224 510 1224 492 1106 c 1,13,-1
 393 1106 l 1,14,15
 400 1206 400 1206 368 1243.5 c 128,-1,16
 336 1281 336 1281 250 1281 c 0,0,1
EndSplineSet
EndChar

StartChar: uni0312
Encoding: 786 786 430
Width: 0
GlyphClass: 4
Flags: W
AnchorPoint: "Anchor-6" 287 1436 basemark 0
AnchorPoint: "Anchor-6" 152 991 mark 0
AnchorPoint: "Anchor-0" 152 991 mark 0
LayerCount: 2
Fore
SplineSet
349 1211 m 0,0,1
 349 1169 349 1169 311.5 1132 c 128,-1,2
 274 1095 274 1095 209 1095 c 0,3,4
 155 1095 155 1095 124.5 1124 c 128,-1,5
 94 1153 94 1153 94 1209 c 0,6,7
 94 1264 94 1264 122.5 1316.5 c 128,-1,8
 151 1369 151 1369 222 1410 c 128,-1,9
 293 1451 293 1451 422 1469 c 1,10,-1
 412 1395 l 1,11,12
 347 1384 347 1384 313.5 1366 c 128,-1,13
 280 1348 280 1348 267.5 1328.5 c 128,-1,14
 255 1309 255 1309 255 1291 c 0,15,16
 255 1265 255 1265 278.5 1252 c 128,-1,17
 302 1239 302 1239 325.5 1230.5 c 128,-1,18
 349 1222 349 1222 349 1211 c 0,0,1
EndSplineSet
EndChar

StartChar: uni0335
Encoding: 821 821 431
Width: 0
GlyphClass: 4
Flags: W
AnchorPoint: "Anchor-1" 207 1175 mark 0
LayerCount: 2
Fore
SplineSet
-157 1116 m 1,0,-1
 -121 1233 l 1,1,-1
 572 1233 l 1,2,-1
 536 1116 l 1,3,-1
 -157 1116 l 1,0,-1
EndSplineSet
EndChar

StartChar: uni031B
Encoding: 795 795 432
Width: 0
GlyphClass: 4
Flags: W
AnchorPoint: "Anchor-2" 152 991 mark 0
LayerCount: 2
Fore
SplineSet
542 1175 m 0,0,1
 542 1098 542 1098 500 1036 c 128,-1,2
 458 974 458 974 380 938 c 128,-1,3
 302 902 302 902 193 902 c 2,4,-1
 48 902 l 1,5,-1
 77 991 l 1,6,-1
 186 991 l 2,7,8
 273 991 273 991 311 1022 c 128,-1,9
 349 1053 349 1053 349 1106 c 0,10,11
 349 1139 349 1139 337 1164 c 128,-1,12
 325 1189 325 1189 325 1201 c 0,13,14
 325 1226 325 1226 356.5 1253 c 128,-1,15
 388 1280 388 1280 437 1280 c 0,16,17
 484 1280 484 1280 513 1254 c 128,-1,18
 542 1228 542 1228 542 1175 c 0,0,1
EndSplineSet
EndChar

StartChar: uni0302_acutecomb
Encoding: 65539 -1 433
Width: 0
GlyphClass: 1
Flags: W
LayerCount: 2
Fore
SplineSet
521 1304 m 1,0,-1
 708 1572 l 1,1,-1
 972 1572 l 1,2,-1
 961 1532 l 1,3,-1
 641 1304 l 1,4,-1
 521 1304 l 1,0,-1
-146 1106 m 1,5,-1
 187 1433 l 1,6,-1
 385 1433 l 1,7,-1
 519 1106 l 1,8,-1
 378 1106 l 1,9,-1
 232 1312 l 1,10,-1
 290 1312 l 1,11,-1
 18 1106 l 1,12,-1
 -146 1106 l 1,5,-1
EndSplineSet
EndChar

StartChar: uni0302_gravecomb
Encoding: 65540 -1 434
Width: 0
GlyphClass: 1
Flags: W
LayerCount: 2
Fore
SplineSet
-38 1304 m 1,0,-1
 -142 1304 l 1,1,-1
 -340 1532 l 1,2,-1
 -331 1572 l 1,3,-1
 -100 1572 l 1,4,-1
 -38 1304 l 1,0,-1
-146 1106 m 1,5,-1
 187 1433 l 1,6,-1
 385 1433 l 1,7,-1
 519 1106 l 1,8,-1
 378 1106 l 1,9,-1
 232 1312 l 1,10,-1
 290 1312 l 1,11,-1
 18 1106 l 1,12,-1
 -146 1106 l 1,5,-1
EndSplineSet
EndChar

StartChar: uni0302_hookabovecomb
Encoding: 65541 -1 435
Width: 0
GlyphClass: 1
Flags: W
LayerCount: 2
Fore
SplineSet
544 1370 m 1,0,1
 606 1383 606 1383 638 1399.5 c 128,-1,2
 670 1416 670 1416 681.5 1435 c 128,-1,3
 693 1454 693 1454 693 1476 c 0,4,5
 693 1497 693 1497 678 1512 c 128,-1,6
 663 1527 663 1527 618.5 1536.5 c 128,-1,7
 574 1546 574 1546 485 1546 c 1,8,-1
 534 1693 l 1,9,10
 665 1689 665 1689 736 1669 c 128,-1,11
 807 1649 807 1649 834.5 1615.5 c 128,-1,12
 862 1582 862 1582 862 1537 c 0,13,14
 862 1481 862 1481 834.5 1433.5 c 128,-1,15
 807 1386 807 1386 737.5 1350 c 128,-1,16
 668 1314 668 1314 541 1292 c 1,17,-1
 544 1370 l 1,0,1
-146 1106 m 1,18,-1
 187 1433 l 1,19,-1
 385 1433 l 1,20,-1
 519 1106 l 1,21,-1
 378 1106 l 1,22,-1
 232 1312 l 1,23,-1
 290 1312 l 1,24,-1
 18 1106 l 1,25,-1
 -146 1106 l 1,18,-1
EndSplineSet
EndChar

StartChar: uni0302_tildecomb
Encoding: 65542 -1 436
Width: 0
GlyphClass: 1
Flags: W
LayerCount: 2
Fore
SplineSet
267 1222 m 1,0,-1
 16 1070 l 1,1,-1
 -133 1070 l 1,2,-1
 138 1308 l 1,3,-1
 359 1308 l 1,4,-1
 484 1070 l 1,5,-1
 358 1070 l 1,6,-1
 198 1222 l 1,7,-1
 267 1222 l 1,0,-1
610 1568 m 1,8,9
 575 1486 575 1486 544.5 1440.5 c 128,-1,10
 514 1395 514 1395 478.5 1376.5 c 128,-1,11
 443 1358 443 1358 392 1358 c 0,12,13
 359 1358 359 1358 328 1371.5 c 128,-1,14
 297 1385 297 1385 269 1402.5 c 128,-1,15
 241 1420 241 1420 215.5 1433 c 128,-1,16
 190 1446 190 1446 167 1446 c 0,17,18
 138 1446 138 1446 118 1430 c 128,-1,19
 98 1414 98 1414 73 1361 c 1,20,-1
 -34 1361 l 1,21,22
 1 1443 1 1443 31.5 1488.5 c 128,-1,23
 62 1534 62 1534 97.5 1552.5 c 128,-1,24
 133 1571 133 1571 183 1571 c 0,25,26
 217 1571 217 1571 248 1557.5 c 128,-1,27
 279 1544 279 1544 307 1526.5 c 128,-1,28
 335 1509 335 1509 360 1496 c 128,-1,29
 385 1483 385 1483 409 1483 c 0,30,31
 438 1483 438 1483 458 1499 c 128,-1,32
 478 1515 478 1515 503 1568 c 1,33,-1
 610 1568 l 1,8,9
EndSplineSet
EndChar

StartChar: uni0306_acutecomb
Encoding: 65543 -1 437
Width: 0
GlyphClass: 1
Flags: W
LayerCount: 2
Fore
SplineSet
174 1284 m 1,0,-1
 367 1568 l 1,1,-1
 590 1568 l 1,2,-1
 582 1539 l 1,3,-1
 267 1284 l 1,4,-1
 174 1284 l 1,0,-1
202 1188 m 0,5,6
 288 1188 288 1188 338 1215 c 128,-1,7
 388 1242 388 1242 424 1304 c 1,8,-1
 537 1304 l 1,9,10
 489 1206 489 1206 439 1154 c 128,-1,11
 389 1102 389 1102 327.5 1083.5 c 128,-1,12
 266 1065 266 1065 183 1065 c 0,13,14
 97 1065 97 1065 43 1084.5 c 128,-1,15
 -11 1104 -11 1104 -32.5 1156 c 128,-1,16
 -54 1208 -54 1208 -43 1304 c 1,17,-1
 52 1304 l 1,18,19
 51 1243 51 1243 81.5 1215.5 c 128,-1,20
 112 1188 112 1188 202 1188 c 0,5,6
EndSplineSet
EndChar

StartChar: uni0306_gravecomb
Encoding: 65544 -1 438
Width: 0
GlyphClass: 1
Flags: W
LayerCount: 2
Fore
SplineSet
272 1284 m 1,0,-1
 190 1284 l 1,1,-1
 21 1539 l 1,2,-1
 27 1568 l 1,3,-1
 224 1568 l 1,4,-1
 272 1284 l 1,0,-1
202 1188 m 0,5,6
 288 1188 288 1188 338 1215 c 128,-1,7
 388 1242 388 1242 424 1304 c 1,8,-1
 537 1304 l 1,9,10
 489 1206 489 1206 439 1154 c 128,-1,11
 389 1102 389 1102 327.5 1083.5 c 128,-1,12
 266 1065 266 1065 183 1065 c 0,13,14
 97 1065 97 1065 43 1084.5 c 128,-1,15
 -11 1104 -11 1104 -32.5 1156 c 128,-1,16
 -54 1208 -54 1208 -43 1304 c 1,17,-1
 52 1304 l 1,18,19
 51 1243 51 1243 81.5 1215.5 c 128,-1,20
 112 1188 112 1188 202 1188 c 0,5,6
EndSplineSet
EndChar

StartChar: uni0306_hookabovecomb
Encoding: 65545 -1 439
Width: 0
GlyphClass: 1
Flags: W
LayerCount: 2
Fore
SplineSet
202 1188 m 0,0,1
 288 1188 288 1188 338 1215 c 128,-1,2
 388 1242 388 1242 424 1304 c 1,3,-1
 537 1304 l 1,4,5
 489 1206 489 1206 439 1154 c 128,-1,6
 389 1102 389 1102 327.5 1083.5 c 128,-1,7
 266 1065 266 1065 183 1065 c 0,8,9
 97 1065 97 1065 43 1084.5 c 128,-1,10
 -11 1104 -11 1104 -32.5 1156 c 128,-1,11
 -54 1208 -54 1208 -43 1304 c 1,12,-1
 52 1304 l 1,13,14
 51 1243 51 1243 81.5 1215.5 c 128,-1,15
 112 1188 112 1188 202 1188 c 0,0,1
194 1282 m 1,16,-1
 199 1356 l 1,17,18
 291 1372 291 1372 318.5 1393 c 128,-1,19
 346 1414 346 1414 346 1442 c 0,20,21
 346 1465 346 1465 313 1478 c 128,-1,22
 280 1491 280 1491 170 1494 c 1,23,-1
 209 1620 l 1,24,25
 312 1617 312 1617 369 1599 c 128,-1,26
 426 1581 426 1581 449 1552 c 128,-1,27
 472 1523 472 1523 472 1484 c 0,28,29
 472 1406 472 1406 411 1355 c 128,-1,30
 350 1304 350 1304 194 1282 c 1,16,-1
EndSplineSet
EndChar

StartChar: uni0306_tildecomb
Encoding: 65546 -1 440
Width: 0
GlyphClass: 1
Flags: W
LayerCount: 2
Fore
SplineSet
202 1188 m 0,0,1
 288 1188 288 1188 338 1215 c 128,-1,2
 388 1242 388 1242 424 1304 c 1,3,-1
 537 1304 l 1,4,5
 489 1206 489 1206 439 1154 c 128,-1,6
 389 1102 389 1102 327.5 1083.5 c 128,-1,7
 266 1065 266 1065 183 1065 c 0,8,9
 97 1065 97 1065 43 1084.5 c 128,-1,10
 -11 1104 -11 1104 -32.5 1156 c 128,-1,11
 -54 1208 -54 1208 -43 1304 c 1,12,-1
 52 1304 l 1,13,14
 51 1243 51 1243 81.5 1215.5 c 128,-1,15
 112 1188 112 1188 202 1188 c 0,0,1
610 1568 m 1,16,17
 576 1486 576 1486 545.5 1440.5 c 128,-1,18
 515 1395 515 1395 479 1376.5 c 128,-1,19
 443 1358 443 1358 393 1358 c 0,20,21
 359 1358 359 1358 328.5 1371.5 c 128,-1,22
 298 1385 298 1385 269.5 1402.5 c 128,-1,23
 241 1420 241 1420 215.5 1433 c 128,-1,24
 190 1446 190 1446 168 1446 c 0,25,26
 139 1446 139 1446 118.5 1430 c 128,-1,27
 98 1414 98 1414 73 1361 c 1,28,-1
 -33 1361 l 1,29,30
 2 1443 2 1443 32 1488.5 c 128,-1,31
 62 1534 62 1534 98 1552.5 c 128,-1,32
 134 1571 134 1571 184 1571 c 0,33,34
 218 1571 218 1571 248.5 1557.5 c 128,-1,35
 279 1544 279 1544 307 1526.5 c 128,-1,36
 335 1509 335 1509 360.5 1496 c 128,-1,37
 386 1483 386 1483 409 1483 c 0,38,39
 438 1483 438 1483 458.5 1499 c 128,-1,40
 479 1515 479 1515 503 1568 c 1,41,-1
 610 1568 l 1,16,17
EndSplineSet
EndChar

StartChar: caroncomb.alt
Encoding: 65547 -1 441
Width: 0
GlyphClass: 1
Flags: W
LayerCount: 2
Fore
SplineSet
298 1049 m 1,0,-1
 472 1448 l 1,1,-1
 706 1448 l 1,2,-1
 695 1410 l 1,3,-1
 408 1049 l 1,4,-1
 298 1049 l 1,0,-1
EndSplineSet
EndChar

StartChar: dotbelowcomb
Encoding: 803 803 442
Width: 0
GlyphClass: 4
Flags: W
AnchorPoint: "Anchor-5" -299 -481 basemark 0
AnchorPoint: "Anchor-5" -152 0 mark 0
AnchorPoint: "Anchor-4" -152 0 mark 0
LayerCount: 2
Fore
SplineSet
-239 -354 m 0,0,1
 -304 -354 -304 -354 -339 -324.5 c 128,-1,2
 -374 -295 -374 -295 -374 -245 c 0,3,4
 -374 -183 -374 -183 -332.5 -141.5 c 128,-1,5
 -291 -100 -291 -100 -202 -100 c 0,6,7
 -137 -100 -137 -100 -102.5 -128.5 c 128,-1,8
 -68 -157 -68 -157 -68 -208 c 0,9,10
 -68 -270 -68 -270 -109.5 -312 c 128,-1,11
 -151 -354 -151 -354 -239 -354 c 0,0,1
EndSplineSet
EndChar

StartChar: uni0324
Encoding: 804 804 443
Width: 0
GlyphClass: 4
Flags: W
AnchorPoint: "Anchor-5" -298 -481 basemark 0
AnchorPoint: "Anchor-5" -152 0 mark 0
AnchorPoint: "Anchor-4" -152 0 mark 0
LayerCount: 2
Fore
SplineSet
-454 -348 m 0,0,1
 -507 -348 -507 -348 -537.5 -320.5 c 128,-1,2
 -568 -293 -568 -293 -568 -245 c 0,3,4
 -568 -208 -568 -208 -552 -176.5 c 128,-1,5
 -536 -145 -536 -145 -502.5 -125.5 c 128,-1,6
 -469 -106 -469 -106 -416 -106 c 0,7,8
 -362 -106 -362 -106 -332 -133 c 128,-1,9
 -302 -160 -302 -160 -302 -208 c 0,10,11
 -302 -244 -302 -244 -318 -276 c 128,-1,12
 -334 -308 -334 -308 -367 -328 c 128,-1,13
 -400 -348 -400 -348 -454 -348 c 0,0,1
-27 -348 m 0,14,15
 -80 -348 -80 -348 -110.5 -320.5 c 128,-1,16
 -141 -293 -141 -293 -141 -245 c 0,17,18
 -141 -208 -141 -208 -125 -176.5 c 128,-1,19
 -109 -145 -109 -145 -75 -125.5 c 128,-1,20
 -41 -106 -41 -106 11 -106 c 0,21,22
 65 -106 65 -106 95 -133 c 128,-1,23
 125 -160 125 -160 125 -208 c 0,24,25
 125 -244 125 -244 109.5 -276 c 128,-1,26
 94 -308 94 -308 60.5 -328 c 128,-1,27
 27 -348 27 -348 -27 -348 c 0,14,15
EndSplineSet
EndChar

StartChar: uni0326
Encoding: 806 806 444
Width: 0
GlyphClass: 4
Flags: W
AnchorPoint: "Anchor-5" -298 -481 basemark 0
AnchorPoint: "Anchor-5" -152 0 mark 0
AnchorPoint: "Anchor-4" -152 0 mark 0
LayerCount: 2
Fore
SplineSet
-329 -204 m 0,0,1
 -329 -163 -329 -163 -295 -125.5 c 128,-1,2
 -261 -88 -261 -88 -189 -88 c 0,3,4
 -137 -88 -137 -88 -107 -116.5 c 128,-1,5
 -77 -145 -77 -145 -77 -202 c 256,6,7
 -77 -259 -77 -259 -106 -314 c 128,-1,8
 -135 -369 -135 -369 -206 -411 c 128,-1,9
 -277 -453 -277 -453 -403 -471 c 1,10,-1
 -394 -397 l 1,11,12
 -329 -385 -329 -385 -295 -366.5 c 128,-1,13
 -261 -348 -261 -348 -248.5 -327.5 c 128,-1,14
 -236 -307 -236 -307 -236 -288 c 0,15,16
 -236 -261 -236 -261 -259 -247.5 c 128,-1,17
 -282 -234 -282 -234 -305.5 -224.5 c 128,-1,18
 -329 -215 -329 -215 -329 -204 c 0,0,1
EndSplineSet
EndChar

StartChar: uni0327
Encoding: 807 807 445
Width: 0
GlyphClass: 4
Flags: W
AnchorPoint: "Anchor-5" -298 -481 basemark 0
AnchorPoint: "Anchor-5" -152 0 mark 0
AnchorPoint: "Anchor-4" -152 0 mark 0
LayerCount: 2
Fore
SplineSet
-354 -481 m 0,0,1
 -430 -481 -430 -481 -461.5 -462 c 128,-1,2
 -493 -443 -493 -443 -493 -410 c 0,3,4
 -493 -384 -493 -384 -477 -366 c 128,-1,5
 -461 -348 -461 -348 -436 -348 c 0,6,7
 -423 -348 -423 -348 -407 -361.5 c 128,-1,8
 -391 -375 -391 -375 -368.5 -389 c 128,-1,9
 -346 -403 -346 -403 -312 -403 c 0,10,11
 -255 -403 -255 -403 -225 -377 c 128,-1,12
 -195 -351 -195 -351 -195 -309 c 0,13,14
 -195 -277 -195 -277 -233.5 -255 c 128,-1,15
 -272 -233 -272 -233 -381 -217 c 1,16,-1
 -373 -192 l 1,17,-1
 -151 34 l 1,18,-1
 -46 34 l 1,19,-1
 -265 -186 l 1,20,-1
 -248 -99 l 1,21,22
 -132 -121 -132 -121 -88.5 -161.5 c 128,-1,23
 -45 -202 -45 -202 -45 -255 c 0,24,25
 -45 -318 -45 -318 -79 -369.5 c 128,-1,26
 -113 -421 -113 -421 -181.5 -451 c 128,-1,27
 -250 -481 -250 -481 -354 -481 c 0,0,1
EndSplineSet
EndChar

StartChar: uni0328
Encoding: 808 808 446
Width: 0
GlyphClass: 4
Flags: W
AnchorPoint: "Anchor-3" -189 0 mark 0
LayerCount: 2
Fore
SplineSet
-327 -99 m 2,0,1
 -379 -151 -379 -151 -406 -186 c 128,-1,2
 -433 -221 -433 -221 -442.5 -246 c 128,-1,3
 -452 -271 -452 -271 -452 -294 c 0,4,5
 -452 -328 -452 -328 -431.5 -346.5 c 128,-1,6
 -411 -365 -411 -365 -370 -365 c 0,7,8
 -340 -365 -340 -365 -312 -356.5 c 128,-1,9
 -284 -348 -284 -348 -240 -323 c 1,10,-1
 -234 -390 l 1,11,12
 -306 -442 -306 -442 -357 -461.5 c 128,-1,13
 -408 -481 -408 -481 -462 -481 c 0,14,15
 -534 -481 -534 -481 -569 -442.5 c 128,-1,16
 -604 -404 -604 -404 -604 -348 c 0,17,18
 -604 -311 -604 -311 -590.5 -274 c 128,-1,19
 -577 -237 -577 -237 -535 -190.5 c 128,-1,20
 -493 -144 -493 -144 -410 -79 c 2,21,-1
 -251 53 l 1,22,-1
 -174 53 l 1,23,-1
 -327 -99 l 2,0,1
EndSplineSet
EndChar

StartChar: uni032E
Encoding: 814 814 447
Width: 0
GlyphClass: 4
Flags: W
AnchorPoint: "Anchor-5" -299 -481 basemark 0
AnchorPoint: "Anchor-5" -152 0 mark 0
AnchorPoint: "Anchor-4" -152 0 mark 0
LayerCount: 2
Fore
SplineSet
-223 -235 m 0,0,1
 -166 -235 -166 -235 -122.5 -218.5 c 128,-1,2
 -79 -202 -79 -202 -43 -164 c 128,-1,3
 -7 -126 -7 -126 27 -60 c 1,4,-1
 144 -60 l 1,5,6
 87 -187 87 -187 29.5 -259.5 c 128,-1,7
 -28 -332 -28 -332 -96 -362.5 c 128,-1,8
 -164 -393 -164 -393 -254 -393 c 0,9,10
 -348 -393 -348 -393 -400.5 -359 c 128,-1,11
 -453 -325 -453 -325 -468 -251.5 c 128,-1,12
 -483 -178 -483 -178 -466 -60 c 1,13,-1
 -366 -60 l 1,14,15
 -373 -160 -373 -160 -341.5 -197.5 c 128,-1,16
 -310 -235 -310 -235 -223 -235 c 0,0,1
EndSplineSet
EndChar

StartChar: uni0331
Encoding: 817 817 448
Width: 0
GlyphClass: 4
Flags: W
AnchorPoint: "Anchor-5" -299 -481 basemark 0
AnchorPoint: "Anchor-5" -152 0 mark 0
AnchorPoint: "Anchor-4" -152 0 mark 0
LayerCount: 2
Fore
SplineSet
-532 -300 m 1,0,-1
 -489 -161 l 1,1,-1
 88 -161 l 1,2,-1
 45 -300 l 1,3,-1
 -532 -300 l 1,0,-1
EndSplineSet
EndChar

StartChar: uni02B9
Encoding: 697 697 449
Width: 452
GlyphClass: 1
Flags: W
LayerCount: 2
Fore
SplineSet
210 879 m 1,0,-1
 409 1396 l 1,1,-1
 647 1396 l 1,2,-1
 633 1347 l 1,3,-1
 339 879 l 1,4,-1
 210 879 l 1,0,-1
EndSplineSet
EndChar

StartChar: gravecomb.case
Encoding: 65548 -1 451
Width: 0
GlyphClass: 1
Flags: W
LayerCount: 2
Fore
SplineSet
381 1527 m 1,0,-1
 270 1527 l 1,1,-1
 39 1788 l 1,2,-1
 50 1832 l 1,3,-1
 292 1832 l 1,4,-1
 381 1527 l 1,0,-1
EndSplineSet
EndChar

StartChar: acutecomb.case
Encoding: 65549 -1 452
Width: 0
GlyphClass: 1
Flags: W
LayerCount: 2
Fore
SplineSet
245 1527 m 1,0,-1
 485 1832 l 1,1,-1
 760 1832 l 1,2,-1
 747 1788 l 1,3,-1
 373 1527 l 1,4,-1
 245 1527 l 1,0,-1
EndSplineSet
EndChar

StartChar: uni0302.case
Encoding: 65550 -1 453
Width: 0
GlyphClass: 1
Flags: W
LayerCount: 2
Fore
SplineSet
-20 1527 m 1,0,-1
 308 1832 l 1,1,-1
 508 1832 l 1,2,-1
 650 1527 l 1,3,-1
 505 1527 l 1,4,-1
 357 1713 l 1,5,-1
 410 1713 l 1,6,-1
 148 1527 l 1,7,-1
 -20 1527 l 1,0,-1
EndSplineSet
EndChar

StartChar: tildecomb.case
Encoding: 65551 -1 454
Width: 0
GlyphClass: 1
Flags: W
LayerCount: 2
Fore
SplineSet
719 1824 m 1,0,1
 670 1705 670 1705 630.5 1641.5 c 128,-1,2
 591 1578 591 1578 550.5 1554 c 128,-1,3
 510 1530 510 1530 460 1530 c 0,4,5
 420 1530 420 1530 390 1550 c 128,-1,6
 360 1570 360 1570 336 1596.5 c 128,-1,7
 312 1623 312 1623 289.5 1643.5 c 128,-1,8
 267 1664 267 1664 241 1664 c 0,9,10
 220 1664 220 1664 203 1655 c 128,-1,11
 186 1646 186 1646 167 1618.5 c 128,-1,12
 148 1591 148 1591 123 1535 c 1,13,-1
 -4 1535 l 1,14,15
 45 1654 45 1654 84.5 1717.5 c 128,-1,16
 124 1781 124 1781 165 1805 c 128,-1,17
 206 1829 206 1829 256 1829 c 0,18,19
 296 1829 296 1829 325.5 1808.5 c 128,-1,20
 355 1788 355 1788 379 1761.5 c 128,-1,21
 403 1735 403 1735 425.5 1714.5 c 128,-1,22
 448 1694 448 1694 474 1694 c 0,23,24
 495 1694 495 1694 512 1703.5 c 128,-1,25
 529 1713 529 1713 548 1741 c 128,-1,26
 567 1769 567 1769 592 1824 c 1,27,-1
 719 1824 l 1,0,1
EndSplineSet
EndChar

StartChar: uni0304.case
Encoding: 65552 -1 455
Width: 0
GlyphClass: 1
Flags: W
LayerCount: 2
Fore
SplineSet
51 1612 m 1,0,-1
 92 1747 l 1,1,-1
 673 1747 l 1,2,-1
 632 1612 l 1,3,-1
 51 1612 l 1,0,-1
EndSplineSet
EndChar

StartChar: uni0306.case
Encoding: 65553 -1 456
Width: 0
GlyphClass: 1
Flags: W
LayerCount: 2
Fore
SplineSet
352 1677 m 0,0,1
 410 1677 410 1677 452.5 1691.5 c 128,-1,2
 495 1706 495 1706 528.5 1740 c 128,-1,3
 562 1774 562 1774 592 1832 c 1,4,-1
 712 1832 l 1,5,6
 657 1713 657 1713 601.5 1645.5 c 128,-1,7
 546 1578 546 1578 479.5 1550 c 128,-1,8
 413 1522 413 1522 323 1522 c 0,9,10
 229 1522 229 1522 176 1554 c 128,-1,11
 123 1586 123 1586 106.5 1654 c 128,-1,12
 90 1722 90 1722 105 1832 c 1,13,-1
 207 1832 l 1,14,15
 203 1774 203 1774 215.5 1740 c 128,-1,16
 228 1706 228 1706 261.5 1691.5 c 128,-1,17
 295 1677 295 1677 352 1677 c 0,0,1
EndSplineSet
EndChar

StartChar: uni0307.case
Encoding: 65554 -1 457
Width: 0
GlyphClass: 1
Flags: W
LayerCount: 2
Fore
SplineSet
343 1552 m 0,0,1
 278 1552 278 1552 243 1581.5 c 128,-1,2
 208 1611 208 1611 208 1661 c 0,3,4
 208 1723 208 1723 250 1764.5 c 128,-1,5
 292 1806 292 1806 380 1806 c 0,6,7
 446 1806 446 1806 480.5 1777.5 c 128,-1,8
 515 1749 515 1749 515 1699 c 0,9,10
 515 1637 515 1637 473.5 1594.5 c 128,-1,11
 432 1552 432 1552 343 1552 c 0,0,1
EndSplineSet
EndChar

StartChar: uni0308.case
Encoding: 65555 -1 458
Width: 0
GlyphClass: 1
Flags: W
LayerCount: 2
Fore
SplineSet
128 1559 m 0,0,1
 75 1559 75 1559 44.5 1586.5 c 128,-1,2
 14 1614 14 1614 14 1661 c 0,3,4
 14 1698 14 1698 30 1729.5 c 128,-1,5
 46 1761 46 1761 79.5 1780.5 c 128,-1,6
 113 1800 113 1800 166 1800 c 0,7,8
 220 1800 220 1800 250 1773 c 128,-1,9
 280 1746 280 1746 280 1699 c 0,10,11
 280 1662 280 1662 264 1630 c 128,-1,12
 248 1598 248 1598 215 1578.5 c 128,-1,13
 182 1559 182 1559 128 1559 c 0,0,1
558 1559 m 0,14,15
 504 1559 504 1559 474 1586.5 c 128,-1,16
 444 1614 444 1614 444 1661 c 0,17,18
 444 1698 444 1698 459.5 1729.5 c 128,-1,19
 475 1761 475 1761 509 1780.5 c 128,-1,20
 543 1800 543 1800 595 1800 c 0,21,22
 649 1800 649 1800 679.5 1773 c 128,-1,23
 710 1746 710 1746 710 1699 c 0,24,25
 710 1662 710 1662 694 1630 c 128,-1,26
 678 1598 678 1598 644.5 1578.5 c 128,-1,27
 611 1559 611 1559 558 1559 c 0,14,15
EndSplineSet
EndChar

StartChar: hookabovecomb.case
Encoding: 65556 -1 459
Width: 0
GlyphClass: 1
Flags: W
LayerCount: 2
Fore
SplineSet
191 1739 m 1,0,-1
 240 1886 l 1,1,2
 378 1884 378 1884 451 1864.5 c 128,-1,3
 524 1845 524 1845 550.5 1813 c 128,-1,4
 577 1781 577 1781 577 1739 c 0,5,6
 577 1684 577 1684 550.5 1639 c 128,-1,7
 524 1594 524 1594 450 1561.5 c 128,-1,8
 376 1529 376 1529 234 1508 c 1,9,-1
 239 1582 l 1,10,11
 315 1595 315 1595 351.5 1610 c 128,-1,12
 388 1625 388 1625 399.5 1642 c 128,-1,13
 411 1659 411 1659 411 1679 c 0,14,15
 411 1698 411 1698 395 1711.5 c 128,-1,16
 379 1725 379 1725 332 1732 c 128,-1,17
 285 1739 285 1739 191 1739 c 1,0,-1
EndSplineSet
EndChar

StartChar: uni030A.case
Encoding: 65557 -1 460
Width: 0
GlyphClass: 1
Flags: W
LayerCount: 2
Fore
SplineSet
382 1865 m 0,0,1
 459 1865 459 1865 505 1821 c 128,-1,2
 551 1777 551 1777 551 1705 c 0,3,4
 551 1619 551 1619 495 1559 c 128,-1,5
 439 1499 439 1499 343 1499 c 0,6,7
 267 1499 267 1499 220.5 1543.5 c 128,-1,8
 174 1588 174 1588 174 1659 c 0,9,10
 174 1746 174 1746 230.5 1805.5 c 128,-1,11
 287 1865 287 1865 382 1865 c 0,0,1
348 1567 m 0,12,13
 410 1567 410 1567 443.5 1607 c 128,-1,14
 477 1647 477 1647 477 1699 c 0,15,16
 477 1746 477 1746 450.5 1772.5 c 128,-1,17
 424 1799 424 1799 377 1799 c 0,18,19
 315 1799 315 1799 281.5 1759 c 128,-1,20
 248 1719 248 1719 248 1664 c 0,21,22
 248 1620 248 1620 274.5 1593.5 c 128,-1,23
 301 1567 301 1567 348 1567 c 0,12,13
EndSplineSet
EndChar

StartChar: uni030B.case
Encoding: 65558 -1 461
Width: 0
GlyphClass: 1
Flags: W
LayerCount: 2
Fore
SplineSet
389 1527 m 1,0,-1
 647 1832 l 1,1,-1
 909 1832 l 1,2,-1
 896 1789 l 1,3,-1
 508 1527 l 1,4,-1
 389 1527 l 1,0,-1
100 1527 m 1,5,-1
 259 1832 l 1,6,-1
 497 1832 l 1,7,-1
 487 1794 l 1,8,-1
 205 1527 l 1,9,-1
 100 1527 l 1,5,-1
EndSplineSet
EndChar

StartChar: uni030C.case
Encoding: 65559 -1 462
Width: 0
GlyphClass: 1
Flags: W
LayerCount: 2
Fore
SplineSet
744 1832 m 1,0,-1
 415 1527 l 1,1,-1
 216 1527 l 1,2,-1
 74 1832 l 1,3,-1
 218 1832 l 1,4,-1
 366 1645 l 1,5,-1
 314 1645 l 1,6,-1
 575 1832 l 1,7,-1
 744 1832 l 1,0,-1
EndSplineSet
EndChar

StartChar: uni030F.case
Encoding: 65560 -1 463
Width: 0
GlyphClass: 1
Flags: W
LayerCount: 2
Fore
SplineSet
242 1527 m 1,0,-1
 126 1527 l 1,1,-1
 -105 1789 l 1,2,-1
 -94 1832 l 1,3,-1
 127 1832 l 1,4,-1
 242 1527 l 1,0,-1
534 1527 m 1,5,-1
 427 1527 l 1,6,-1
 303 1794 l 1,7,-1
 312 1832 l 1,8,-1
 524 1832 l 1,9,-1
 534 1527 l 1,5,-1
EndSplineSet
EndChar

StartChar: uni0311.case
Encoding: 65561 -1 464
Width: 0
GlyphClass: 1
Flags: W
LayerCount: 2
Fore
SplineSet
372 1681 m 0,0,1
 315 1681 315 1681 272.5 1666.5 c 128,-1,2
 230 1652 230 1652 196.5 1618.5 c 128,-1,3
 163 1585 163 1585 132 1527 c 1,4,-1
 12 1527 l 1,5,6
 67 1646 67 1646 122.5 1713.5 c 128,-1,7
 178 1781 178 1781 245 1808.5 c 128,-1,8
 312 1836 312 1836 401 1836 c 0,9,10
 495 1836 495 1836 548 1804.5 c 128,-1,11
 601 1773 601 1773 617.5 1704.5 c 128,-1,12
 634 1636 634 1636 619 1527 c 1,13,-1
 517 1527 l 1,14,15
 523 1613 523 1613 490.5 1647 c 128,-1,16
 458 1681 458 1681 372 1681 c 0,0,1
EndSplineSet
EndChar

StartChar: uni0312.case
Encoding: 65562 -1 465
Width: 0
GlyphClass: 1
Flags: W
LayerCount: 2
Fore
SplineSet
472 1624 m 0,0,1
 472 1583 472 1583 436.5 1548 c 128,-1,2
 401 1513 401 1513 337 1513 c 0,3,4
 284 1513 284 1513 254 1540.5 c 128,-1,5
 224 1568 224 1568 224 1624 c 0,6,7
 224 1674 224 1674 251 1724 c 128,-1,8
 278 1774 278 1774 346.5 1813.5 c 128,-1,9
 415 1853 415 1853 539 1869 c 1,10,-1
 528 1796 l 1,11,12
 468 1786 468 1786 436 1770 c 128,-1,13
 404 1754 404 1754 392 1735.5 c 128,-1,14
 380 1717 380 1717 380 1700 c 0,15,16
 380 1674 380 1674 403 1661.5 c 128,-1,17
 426 1649 426 1649 449 1641.5 c 128,-1,18
 472 1634 472 1634 472 1624 c 0,0,1
EndSplineSet
EndChar

StartChar: uni0302_acutecomb.case
Encoding: 65563 -1 466
Width: 0
GlyphClass: 1
Flags: W
LayerCount: 2
Fore
SplineSet
648 1712 m 1,0,-1
 829 1967 l 1,1,-1
 1098 1967 l 1,2,-1
 1087 1928 l 1,3,-1
 769 1712 l 1,4,-1
 648 1712 l 1,0,-1
-20 1527 m 1,5,-1
 308 1832 l 1,6,-1
 508 1832 l 1,7,-1
 650 1527 l 1,8,-1
 505 1527 l 1,9,-1
 357 1713 l 1,10,-1
 410 1713 l 1,11,-1
 148 1527 l 1,12,-1
 -20 1527 l 1,5,-1
EndSplineSet
EndChar

StartChar: uni0302_gravecomb.case
Encoding: 65564 -1 467
Width: 0
GlyphClass: 1
Flags: W
LayerCount: 2
Fore
SplineSet
85 1712 m 1,0,-1
 -17 1712 l 1,1,-1
 -220 1928 l 1,2,-1
 -211 1967 l 1,3,-1
 24 1967 l 1,4,-1
 85 1712 l 1,0,-1
-20 1527 m 1,5,-1
 308 1832 l 1,6,-1
 508 1832 l 1,7,-1
 650 1527 l 1,8,-1
 505 1527 l 1,9,-1
 357 1713 l 1,10,-1
 410 1713 l 1,11,-1
 148 1527 l 1,12,-1
 -20 1527 l 1,5,-1
EndSplineSet
EndChar

StartChar: uni0302_hookabovecomb.case
Encoding: 65565 -1 468
Width: 0
GlyphClass: 1
Flags: W
LayerCount: 2
Fore
SplineSet
672 1775 m 1,0,1
 732 1787 732 1787 762 1802 c 128,-1,2
 792 1817 792 1817 802.5 1834.5 c 128,-1,3
 813 1852 813 1852 813 1872 c 0,4,5
 813 1891 813 1891 799 1905.5 c 128,-1,6
 785 1920 785 1920 741 1928.5 c 128,-1,7
 697 1937 697 1937 609 1937 c 1,8,-1
 655 2079 l 1,9,10
 786 2077 786 2077 856 2057.5 c 128,-1,11
 926 2038 926 2038 953 2005.5 c 128,-1,12
 980 1973 980 1973 980 1930 c 0,13,14
 980 1877 980 1877 953.5 1831.5 c 128,-1,15
 927 1786 927 1786 859 1752.5 c 128,-1,16
 791 1719 791 1719 666 1700 c 1,17,-1
 672 1775 l 1,0,1
-20 1527 m 1,18,-1
 308 1832 l 1,19,-1
 508 1832 l 1,20,-1
 650 1527 l 1,21,-1
 505 1527 l 1,22,-1
 357 1713 l 1,23,-1
 410 1713 l 1,24,-1
 148 1527 l 1,25,-1
 -20 1527 l 1,18,-1
EndSplineSet
EndChar

StartChar: uni0302_tildecomb.case
Encoding: 65566 -1 469
Width: 0
GlyphClass: 1
Flags: W
LayerCount: 2
Fore
SplineSet
395 1638 m 1,0,-1
 145 1490 l 1,1,-1
 -5 1490 l 1,2,-1
 262 1718 l 1,3,-1
 486 1718 l 1,4,-1
 612 1490 l 1,5,-1
 487 1490 l 1,6,-1
 325 1638 l 1,7,-1
 395 1638 l 1,0,-1
733 1965 m 1,8,9
 697 1886 697 1886 666.5 1842 c 128,-1,10
 636 1798 636 1798 600.5 1780 c 128,-1,11
 565 1762 565 1762 514 1762 c 0,12,13
 481 1762 481 1762 451 1775 c 128,-1,14
 421 1788 421 1788 393.5 1804.5 c 128,-1,15
 366 1821 366 1821 341 1834 c 128,-1,16
 316 1847 316 1847 294 1847 c 0,17,18
 264 1847 264 1847 244 1831.5 c 128,-1,19
 224 1816 224 1816 198 1765 c 1,20,-1
 92 1765 l 1,21,22
 128 1843 128 1843 158.5 1887 c 128,-1,23
 189 1931 189 1931 224.5 1949 c 128,-1,24
 260 1967 260 1967 310 1967 c 0,25,26
 343 1967 343 1967 373 1954 c 128,-1,27
 403 1941 403 1941 430 1924.5 c 128,-1,28
 457 1908 457 1908 482 1895 c 128,-1,29
 507 1882 507 1882 531 1882 c 0,30,31
 560 1882 560 1882 580.5 1898 c 128,-1,32
 601 1914 601 1914 626 1965 c 1,33,-1
 733 1965 l 1,8,9
EndSplineSet
EndChar

StartChar: uni0306_acutecomb.case
Encoding: 65567 -1 470
Width: 0
GlyphClass: 1
Flags: W
LayerCount: 2
Fore
SplineSet
301 1694 m 1,0,-1
 491 1965 l 1,1,-1
 710 1965 l 1,2,-1
 702 1936 l 1,3,-1
 394 1694 l 1,4,-1
 301 1694 l 1,0,-1
329 1606 m 0,5,6
 416 1606 416 1606 466 1632 c 128,-1,7
 516 1658 516 1658 551 1717 c 1,8,-1
 662 1717 l 1,9,10
 617 1625 617 1625 568 1574.5 c 128,-1,11
 519 1524 519 1524 457.5 1505 c 128,-1,12
 396 1486 396 1486 313 1486 c 0,13,14
 227 1486 227 1486 173 1505.5 c 128,-1,15
 119 1525 119 1525 97 1575.5 c 128,-1,16
 75 1626 75 1626 84 1717 c 1,17,-1
 179 1717 l 1,18,19
 179 1658 179 1658 210 1632 c 128,-1,20
 241 1606 241 1606 329 1606 c 0,5,6
EndSplineSet
EndChar

StartChar: uni0306_gravecomb.case
Encoding: 65568 -1 471
Width: 0
GlyphClass: 1
Flags: W
LayerCount: 2
Fore
SplineSet
397 1694 m 1,0,-1
 316 1694 l 1,1,-1
 145 1936 l 1,2,-1
 152 1965 l 1,3,-1
 347 1965 l 1,4,-1
 397 1694 l 1,0,-1
329 1606 m 0,5,6
 416 1606 416 1606 466 1632 c 128,-1,7
 516 1658 516 1658 551 1717 c 1,8,-1
 662 1717 l 1,9,10
 617 1625 617 1625 568 1574.5 c 128,-1,11
 519 1524 519 1524 457.5 1505 c 128,-1,12
 396 1486 396 1486 313 1486 c 0,13,14
 227 1486 227 1486 173 1505.5 c 128,-1,15
 119 1525 119 1525 97 1575.5 c 128,-1,16
 75 1626 75 1626 84 1717 c 1,17,-1
 179 1717 l 1,18,19
 179 1658 179 1658 210 1632 c 128,-1,20
 241 1606 241 1606 329 1606 c 0,5,6
EndSplineSet
EndChar

StartChar: uni0306_hookabovecomb.case
Encoding: 65569 -1 472
Width: 0
GlyphClass: 1
Flags: W
LayerCount: 2
Fore
SplineSet
329 1606 m 0,0,1
 416 1606 416 1606 466 1632 c 128,-1,2
 516 1658 516 1658 551 1717 c 1,3,-1
 662 1717 l 1,4,5
 617 1625 617 1625 568 1574.5 c 128,-1,6
 519 1524 519 1524 457.5 1505 c 128,-1,7
 396 1486 396 1486 313 1486 c 0,8,9
 227 1486 227 1486 173 1505.5 c 128,-1,10
 119 1525 119 1525 97 1575.5 c 128,-1,11
 75 1626 75 1626 84 1717 c 1,12,-1
 179 1717 l 1,13,14
 179 1658 179 1658 210 1632 c 128,-1,15
 241 1606 241 1606 329 1606 c 0,0,1
319 1688 m 1,16,-1
 326 1760 l 1,17,18
 415 1774 415 1774 441 1794 c 128,-1,19
 467 1814 467 1814 467 1840 c 0,20,21
 467 1861 467 1861 434 1873 c 128,-1,22
 401 1885 401 1885 293 1888 c 1,23,-1
 329 2012 l 1,24,25
 430 2008 430 2008 486.5 1991 c 128,-1,26
 543 1974 543 1974 565.5 1946 c 128,-1,27
 588 1918 588 1918 588 1880 c 0,28,29
 588 1805 588 1805 529 1755.5 c 128,-1,30
 470 1706 470 1706 319 1688 c 1,16,-1
EndSplineSet
EndChar

StartChar: uni0306_tildecomb.case
Encoding: 65570 -1 473
Width: 0
GlyphClass: 1
Flags: W
LayerCount: 2
Fore
SplineSet
329 1606 m 0,0,1
 416 1606 416 1606 466 1632 c 128,-1,2
 516 1658 516 1658 551 1717 c 1,3,-1
 662 1717 l 1,4,5
 617 1625 617 1625 568 1574.5 c 128,-1,6
 519 1524 519 1524 457.5 1505 c 128,-1,7
 396 1486 396 1486 313 1486 c 0,8,9
 227 1486 227 1486 173 1505.5 c 128,-1,10
 119 1525 119 1525 97 1575.5 c 128,-1,11
 75 1626 75 1626 84 1717 c 1,12,-1
 179 1717 l 1,13,14
 179 1658 179 1658 210 1632 c 128,-1,15
 241 1606 241 1606 329 1606 c 0,0,1
733 1965 m 1,16,17
 697 1886 697 1886 666.5 1842 c 128,-1,18
 636 1798 636 1798 600.5 1780 c 128,-1,19
 565 1762 565 1762 514 1762 c 0,20,21
 481 1762 481 1762 451 1775 c 128,-1,22
 421 1788 421 1788 393.5 1804.5 c 128,-1,23
 366 1821 366 1821 341 1834 c 128,-1,24
 316 1847 316 1847 294 1847 c 0,25,26
 264 1847 264 1847 244 1831.5 c 128,-1,27
 224 1816 224 1816 198 1765 c 1,28,-1
 92 1765 l 1,29,30
 128 1843 128 1843 158.5 1887 c 128,-1,31
 189 1931 189 1931 224.5 1949 c 128,-1,32
 260 1967 260 1967 310 1967 c 0,33,34
 343 1967 343 1967 373 1954 c 128,-1,35
 403 1941 403 1941 430 1924.5 c 128,-1,36
 457 1908 457 1908 482 1895 c 128,-1,37
 507 1882 507 1882 531 1882 c 0,38,39
 560 1882 560 1882 580.5 1898 c 128,-1,40
 601 1914 601 1914 626 1965 c 1,41,-1
 733 1965 l 1,16,17
EndSplineSet
EndChar

StartChar: comma
Encoding: 44 44 474
Width: 547
GlyphClass: 1
Flags: W
LayerCount: 2
Fore
SplineSet
-151 -277 m 1,0,1
 -48 -213 -48 -213 7.5 -166.5 c 128,-1,2
 63 -120 63 -120 84.5 -83 c 128,-1,3
 106 -46 106 -46 106 -13 c 0,4,5
 106 17 106 17 92.5 38.5 c 128,-1,6
 79 60 79 60 60.5 76.5 c 128,-1,7
 42 93 42 93 28.5 107 c 128,-1,8
 15 121 15 121 15 136 c 0,9,10
 15 176 15 176 39 213.5 c 128,-1,11
 63 251 63 251 105 275 c 128,-1,12
 147 299 147 299 203 299 c 0,13,14
 271 299 271 299 310 263.5 c 128,-1,15
 349 228 349 228 349 158 c 0,16,17
 349 97 349 97 330 37.5 c 128,-1,18
 311 -22 311 -22 262 -84 c 128,-1,19
 213 -146 213 -146 126 -215 c 128,-1,20
 39 -284 39 -284 -97 -366 c 1,21,-1
 -151 -277 l 1,0,1
EndSplineSet
EndChar

StartChar: semicolon
Encoding: 59 59 475
Width: 615
GlyphClass: 1
Flags: W
LayerCount: 2
Fore
SplineSet
-137 -277 m 1,0,1
 -34 -213 -34 -213 21.5 -166.5 c 128,-1,2
 77 -120 77 -120 98 -83 c 128,-1,3
 119 -46 119 -46 119 -13 c 0,4,5
 119 17 119 17 105.5 38.5 c 128,-1,6
 92 60 92 60 74 76.5 c 128,-1,7
 56 93 56 93 42.5 107 c 128,-1,8
 29 121 29 121 29 136 c 0,9,10
 29 176 29 176 52.5 213.5 c 128,-1,11
 76 251 76 251 118.5 275 c 128,-1,12
 161 299 161 299 217 299 c 0,13,14
 285 299 285 299 324 263.5 c 128,-1,15
 363 228 363 228 363 158 c 0,16,17
 363 97 363 97 344 37.5 c 128,-1,18
 325 -22 325 -22 276 -84 c 128,-1,19
 227 -146 227 -146 140 -215 c 128,-1,20
 53 -284 53 -284 -83 -366 c 1,21,-1
 -137 -277 l 1,0,1
452 1008 m 0,22,23
 518 1008 518 1008 553.5 974.5 c 128,-1,24
 589 941 589 941 589 884 c 0,25,26
 589 832 589 832 565 786.5 c 128,-1,27
 541 741 541 741 494.5 713 c 128,-1,28
 448 685 448 685 380 685 c 0,29,30
 314 685 314 685 278.5 718.5 c 128,-1,31
 243 752 243 752 243 808 c 0,32,33
 243 862 243 862 267 907 c 128,-1,34
 291 952 291 952 337.5 980 c 128,-1,35
 384 1008 384 1008 452 1008 c 0,22,23
EndSplineSet
EndChar

StartChar: colon
Encoding: 58 58 476
Width: 606
GlyphClass: 1
Flags: W
LayerCount: 2
Fore
SplineSet
232 303 m 0,0,1
 298 303 298 303 333.5 269.5 c 128,-1,2
 369 236 369 236 369 179 c 0,3,4
 369 126 369 126 345 80.5 c 128,-1,5
 321 35 321 35 274.5 7 c 128,-1,6
 228 -21 228 -21 160 -21 c 0,7,8
 94 -21 94 -21 58.5 13 c 128,-1,9
 23 47 23 47 23 103 c 0,10,11
 23 156 23 156 47 201.5 c 128,-1,12
 71 247 71 247 118 275 c 128,-1,13
 165 303 165 303 232 303 c 0,0,1
444 1008 m 256,14,15
 511 1008 511 1008 546 974.5 c 128,-1,16
 581 941 581 941 581 884 c 0,17,18
 581 832 581 832 557 786.5 c 128,-1,19
 533 741 533 741 486.5 713 c 128,-1,20
 440 685 440 685 372 685 c 0,21,22
 306 685 306 685 270.5 718.5 c 128,-1,23
 235 752 235 752 235 808 c 0,24,25
 235 862 235 862 259 907 c 128,-1,26
 283 952 283 952 330 980 c 128,-1,27
 377 1008 377 1008 444 1008 c 256,14,15
EndSplineSet
EndChar

StartChar: period
Encoding: 46 46 478
Width: 541
GlyphClass: 1
Flags: W
LayerCount: 2
Fore
SplineSet
223 308 m 0,0,1
 288 308 288 308 322.5 275.5 c 128,-1,2
 357 243 357 243 357 186 c 0,3,4
 357 130 357 130 331.5 83 c 128,-1,5
 306 36 306 36 258.5 7.5 c 128,-1,6
 211 -21 211 -21 143 -21 c 0,7,8
 78 -21 78 -21 43.5 11.5 c 128,-1,9
 9 44 9 44 9 101 c 256,10,11
 9 158 9 158 34.5 204.5 c 128,-1,12
 60 251 60 251 108 279.5 c 128,-1,13
 156 308 156 308 223 308 c 0,0,1
EndSplineSet
EndChar

StartChar: hyphen
Encoding: 45 45 479
Width: 785
GlyphClass: 1
Flags: W
LayerCount: 2
Fore
SplineSet
167 595 m 1,0,-1
 678 595 l 1,1,-1
 621 408 l 1,2,-1
 110 408 l 1,3,-1
 167 595 l 1,0,-1
EndSplineSet
Substitution2: "'case' Case-Sensitive Forms in Latin lookup 9 subtable" hyphen.case
EndChar

StartChar: exclam
Encoding: 33 33 483
Width: 635
GlyphClass: 1
Flags: W
LayerCount: 2
Fore
SplineSet
727 1345 m 2,0,-1
 698 1258 l 2,1,2
 692 1239 692 1239 672 1188.5 c 128,-1,3
 652 1138 652 1138 623.5 1067.5 c 128,-1,4
 595 997 595 997 561.5 916 c 128,-1,5
 528 835 528 835 494 752.5 c 128,-1,6
 460 670 460 670 429 595 c 128,-1,7
 398 520 398 520 374 464 c 1,8,-1
 237 464 l 1,9,10
 249 520 249 520 263.5 595 c 128,-1,11
 278 670 278 670 294.5 752.5 c 128,-1,12
 311 835 311 835 327.5 916 c 128,-1,13
 344 997 344 997 358 1067.5 c 128,-1,14
 372 1138 372 1138 383 1188.5 c 128,-1,15
 394 1239 394 1239 399 1258 c 2,16,-1
 423 1345 l 2,17,18
 430 1369 430 1369 446.5 1384 c 128,-1,19
 463 1399 463 1399 498 1406.5 c 128,-1,20
 533 1414 533 1414 593 1414 c 0,21,22
 656 1414 656 1414 687 1406.5 c 128,-1,23
 718 1399 718 1399 726.5 1383.5 c 128,-1,24
 735 1368 735 1368 727 1345 c 2,0,-1
248 296 m 0,25,26
 313 296 313 296 346.5 264.5 c 128,-1,27
 380 233 380 233 380 177 c 0,28,29
 380 124 380 124 356.5 79 c 128,-1,30
 333 34 333 34 286 6.5 c 128,-1,31
 239 -21 239 -21 169 -21 c 0,32,33
 105 -21 105 -21 71 10.5 c 128,-1,34
 37 42 37 42 37 97 c 0,35,36
 37 151 37 151 60.5 196 c 128,-1,37
 84 241 84 241 131.5 268.5 c 128,-1,38
 179 296 179 296 248 296 c 0,25,26
EndSplineSet
EndChar

StartChar: exclamdown
Encoding: 161 161 484
Width: 607
GlyphClass: 1
Flags: W
LayerCount: 2
Fore
SplineSet
-108 -362 m 2,0,-1
 -80 -275 l 2,1,2
 -73 -256 -73 -256 -53 -206 c 128,-1,3
 -33 -156 -33 -156 -4.5 -85.5 c 128,-1,4
 24 -15 24 -15 57.5 66.5 c 128,-1,5
 91 148 91 148 125 230.5 c 128,-1,6
 159 313 159 313 190.5 388 c 128,-1,7
 222 463 222 463 244 519 c 1,8,-1
 382 519 l 1,9,10
 370 463 370 463 355.5 388 c 128,-1,11
 341 313 341 313 324.5 230.5 c 128,-1,12
 308 148 308 148 291.5 66.5 c 128,-1,13
 275 -15 275 -15 261 -85.5 c 128,-1,14
 247 -156 247 -156 236 -206 c 128,-1,15
 225 -256 225 -256 220 -275 c 2,16,-1
 195 -362 l 2,17,18
 189 -385 189 -385 172.5 -400.5 c 128,-1,19
 156 -416 156 -416 121 -423.5 c 128,-1,20
 86 -431 86 -431 25 -431 c 256,21,22
 -36 -431 -36 -431 -67.5 -423.5 c 128,-1,23
 -99 -416 -99 -416 -107.5 -400.5 c 128,-1,24
 -116 -385 -116 -385 -108 -362 c 2,0,-1
371 687 m 0,25,26
 307 687 307 687 272.5 718.5 c 128,-1,27
 238 750 238 750 238 806 c 0,28,29
 238 859 238 859 262 904 c 128,-1,30
 286 949 286 949 333 976.5 c 128,-1,31
 380 1004 380 1004 450 1004 c 0,32,33
 514 1004 514 1004 548 972.5 c 128,-1,34
 582 941 582 941 582 886 c 0,35,36
 582 832 582 832 558.5 787 c 128,-1,37
 535 742 535 742 488 714.5 c 128,-1,38
 441 687 441 687 371 687 c 0,25,26
EndSplineSet
Substitution2: "'case' Case-Sensitive Forms in Latin lookup 9 subtable" exclamdown.case
EndChar

StartChar: question
Encoding: 63 63 486
Width: 1163
GlyphClass: 1
Flags: W
LayerCount: 2
Fore
SplineSet
482 296 m 0,0,1
 546 296 546 296 580 264.5 c 128,-1,2
 614 233 614 233 614 177 c 0,3,4
 614 124 614 124 590 79 c 128,-1,5
 566 34 566 34 519.5 6.5 c 128,-1,6
 473 -21 473 -21 402 -21 c 0,7,8
 338 -21 338 -21 304 10.5 c 128,-1,9
 270 42 270 42 270 97 c 0,10,11
 270 151 270 151 293.5 196 c 128,-1,12
 317 241 317 241 364.5 268.5 c 128,-1,13
 412 296 412 296 482 296 c 0,0,1
672 1419 m 0,14,15
 791 1419 791 1419 886.5 1387.5 c 128,-1,16
 982 1356 982 1356 1049.5 1300 c 128,-1,17
 1117 1244 1117 1244 1153 1169 c 128,-1,18
 1189 1094 1189 1094 1189 1006 c 0,19,20
 1189 880 1189 880 1132 792 c 128,-1,21
 1075 704 1075 704 945 662.5 c 128,-1,22
 815 621 815 621 598 633 c 1,23,-1
 713 732 l 1,24,-1
 593 454 l 1,25,-1
 450 454 l 1,26,-1
 522 814 l 1,27,28
 694 803 694 803 789 824 c 128,-1,29
 884 845 884 845 922.5 898 c 128,-1,30
 961 951 961 951 961 1035 c 0,31,32
 961 1100 961 1100 933 1153 c 128,-1,33
 905 1206 905 1206 849.5 1237 c 128,-1,34
 794 1268 794 1268 712 1268 c 0,35,36
 640 1268 640 1268 589.5 1247 c 128,-1,37
 539 1226 539 1226 506 1198.5 c 128,-1,38
 473 1171 473 1171 449.5 1150 c 128,-1,39
 426 1129 426 1129 406 1129 c 0,40,41
 354 1129 354 1129 321.5 1159 c 128,-1,42
 289 1189 289 1189 289 1237 c 0,43,44
 289 1288 289 1288 325 1329 c 128,-1,45
 361 1370 361 1370 444.5 1394.5 c 128,-1,46
 528 1419 528 1419 672 1419 c 0,14,15
EndSplineSet
EndChar

StartChar: questiondown
Encoding: 191 191 487
Width: 1151
GlyphClass: 1
Flags: W
LayerCount: 2
Fore
SplineSet
676 688 m 0,0,1
 612 688 612 688 578 719.5 c 128,-1,2
 544 751 544 751 544 807 c 0,3,4
 544 860 544 860 567.5 905 c 128,-1,5
 591 950 591 950 638.5 977.5 c 128,-1,6
 686 1005 686 1005 755 1005 c 0,7,8
 820 1005 820 1005 854 973.5 c 128,-1,9
 888 942 888 942 888 887 c 0,10,11
 888 833 888 833 864 788 c 128,-1,12
 840 743 840 743 793.5 715.5 c 128,-1,13
 747 688 747 688 676 688 c 0,0,1
486 -434 m 0,14,15
 367 -434 367 -434 271.5 -403 c 128,-1,16
 176 -372 176 -372 108 -316 c 128,-1,17
 40 -260 40 -260 4 -184.5 c 128,-1,18
 -32 -109 -32 -109 -32 -22 c 0,19,20
 -32 104 -32 104 25.5 192 c 128,-1,21
 83 280 83 280 212.5 322 c 128,-1,22
 342 364 342 364 560 351 c 1,23,-1
 445 252 l 1,24,-1
 564 530 l 1,25,-1
 708 530 l 1,26,-1
 635 170 l 1,27,28
 464 181 464 181 368.5 160 c 128,-1,29
 273 139 273 139 234.5 86.5 c 128,-1,30
 196 34 196 34 196 -51 c 0,31,32
 196 -116 196 -116 224.5 -169 c 128,-1,33
 253 -222 253 -222 308.5 -253 c 128,-1,34
 364 -284 364 -284 445 -284 c 0,35,36
 518 -284 518 -284 568 -263 c 128,-1,37
 618 -242 618 -242 651.5 -214.5 c 128,-1,38
 685 -187 685 -187 708.5 -166 c 128,-1,39
 732 -145 732 -145 751 -145 c 0,40,41
 804 -145 804 -145 836 -175 c 128,-1,42
 868 -205 868 -205 868 -253 c 0,43,44
 868 -304 868 -304 832.5 -345 c 128,-1,45
 797 -386 797 -386 713.5 -410 c 128,-1,46
 630 -434 630 -434 486 -434 c 0,14,15
EndSplineSet
Substitution2: "'case' Case-Sensitive Forms in Latin lookup 9 subtable" questiondown.case
EndChar

StartChar: quoteleft
Encoding: 8216 8216 489
Width: 548
GlyphClass: 1
Flags: W
LayerCount: 2
Fore
SplineSet
704 1325 m 1,0,1
 616 1287 616 1287 564.5 1256 c 128,-1,2
 513 1225 513 1225 492 1195.5 c 128,-1,3
 471 1166 471 1166 471 1133 c 0,4,5
 471 1107 471 1107 486.5 1087 c 128,-1,6
 502 1067 502 1067 522.5 1051.5 c 128,-1,7
 543 1036 543 1036 558 1023 c 128,-1,8
 573 1010 573 1010 573 995 c 0,9,10
 573 957 573 957 552 920 c 128,-1,11
 531 883 531 883 490 859.5 c 128,-1,12
 449 836 449 836 392 836 c 0,13,14
 329 836 329 836 289 871 c 128,-1,15
 249 906 249 906 249 981 c 0,16,17
 249 1068 249 1068 288 1143.5 c 128,-1,18
 327 1219 327 1219 419 1286.5 c 128,-1,19
 511 1354 511 1354 669 1415 c 1,20,-1
 704 1325 l 1,0,1
EndSplineSet
EndChar

StartChar: quoteright
Encoding: 8217 8217 490
Width: 546
GlyphClass: 1
Flags: W
LayerCount: 2
Fore
SplineSet
225 924 m 1,0,1
 314 962 314 962 364.5 993 c 128,-1,2
 415 1024 415 1024 436.5 1053.5 c 128,-1,3
 458 1083 458 1083 458 1116 c 0,4,5
 458 1142 458 1142 442.5 1161.5 c 128,-1,6
 427 1181 427 1181 406.5 1197 c 128,-1,7
 386 1213 386 1213 370.5 1226 c 128,-1,8
 355 1239 355 1239 355 1253 c 0,9,10
 355 1293 355 1293 376.5 1329.5 c 128,-1,11
 398 1366 398 1366 438.5 1389.5 c 128,-1,12
 479 1413 479 1413 537 1413 c 0,13,14
 600 1413 600 1413 640 1378 c 128,-1,15
 680 1343 680 1343 680 1268 c 0,16,17
 680 1182 680 1182 640.5 1106 c 128,-1,18
 601 1030 601 1030 509.5 962.5 c 128,-1,19
 418 895 418 895 260 833 c 1,20,-1
 225 924 l 1,0,1
EndSplineSet
EndChar

StartChar: quotesinglbase
Encoding: 8218 8218 491
Width: 540
GlyphClass: 1
Flags: W
LayerCount: 2
Fore
SplineSet
-113 -190 m 1,0,1
 -24 -152 -24 -152 26.5 -121 c 128,-1,2
 77 -90 77 -90 98.5 -60.5 c 128,-1,3
 120 -31 120 -31 120 2 c 0,4,5
 120 28 120 28 104.5 48 c 128,-1,6
 89 68 89 68 68.5 83.5 c 128,-1,7
 48 99 48 99 32.5 112 c 128,-1,8
 17 125 17 125 17 139 c 0,9,10
 17 179 17 179 38.5 215.5 c 128,-1,11
 60 252 60 252 100.5 275.5 c 128,-1,12
 141 299 141 299 199 299 c 0,13,14
 261 299 261 299 301.5 264 c 128,-1,15
 342 229 342 229 342 154 c 0,16,17
 342 68 342 68 302.5 -8 c 128,-1,18
 263 -84 263 -84 171.5 -151.5 c 128,-1,19
 80 -219 80 -219 -78 -280 c 1,20,-1
 -113 -190 l 1,0,1
EndSplineSet
EndChar

StartChar: quotesingle
Encoding: 39 39 495
Width: 458
GlyphClass: 1
Flags: W
LayerCount: 2
Fore
SplineSet
272 880 m 1,0,-1
 357 1346 l 1,1,-1
 373 1396 l 1,2,-1
 622 1396 l 1,3,-1
 606 1346 l 1,4,-1
 405 880 l 1,5,-1
 272 880 l 1,0,-1
EndSplineSet
EndChar

StartChar: guilsinglleft
Encoding: 8249 8249 497
Width: 692
GlyphClass: 1
Flags: W
LayerCount: 2
Fore
SplineSet
313 527 m 1,0,-1
 480 94 l 1,1,-1
 358 30 l 1,2,-1
 62 423 l 1,3,-1
 109 576 l 1,4,-1
 629 969 l 1,5,-1
 714 861 l 1,6,-1
 281 422 l 1,7,-1
 313 527 l 1,0,-1
EndSplineSet
Substitution2: "'case' Case-Sensitive Forms in Latin lookup 9 subtable" guilsinglleft.case
EndChar

StartChar: guilsinglright
Encoding: 8250 8250 498
Width: 723
GlyphClass: 1
Flags: W
LayerCount: 2
Fore
SplineSet
392 473 m 1,0,-1
 225 906 l 1,1,-1
 347 970 l 1,2,-1
 643 577 l 1,3,-1
 596 423 l 1,4,-1
 75 30 l 1,5,-1
 -9 138 l 1,6,-1
 424 577 l 1,7,-1
 392 473 l 1,0,-1
EndSplineSet
Substitution2: "'case' Case-Sensitive Forms in Latin lookup 9 subtable" guilsinglright.case
EndChar

StartChar: guillemotleft
Encoding: 171 171 501
Width: 1169
GlyphClass: 1
Flags: W
LayerCount: 2
Fore
SplineSet
313 527 m 1,0,-1
 480 94 l 1,1,-1
 358 30 l 1,2,-1
 62 423 l 1,3,-1
 109 576 l 1,4,-1
 629 969 l 1,5,-1
 714 861 l 1,6,-1
 281 422 l 1,7,-1
 313 527 l 1,0,-1
790 527 m 1,8,-1
 957 94 l 1,9,-1
 835 30 l 1,10,-1
 539 423 l 1,11,-1
 586 576 l 1,12,-1
 1106 969 l 1,13,-1
 1191 861 l 1,14,-1
 758 422 l 1,15,-1
 790 527 l 1,8,-1
EndSplineSet
Substitution2: "'case' Case-Sensitive Forms in Latin lookup 9 subtable" guillemotleft.case
EndChar

StartChar: guillemotright
Encoding: 187 187 502
Width: 1200
GlyphClass: 1
Flags: W
LayerCount: 2
Fore
SplineSet
392 473 m 1,0,-1
 225 906 l 1,1,-1
 347 970 l 1,2,-1
 643 577 l 1,3,-1
 596 423 l 1,4,-1
 75 30 l 1,5,-1
 -9 138 l 1,6,-1
 424 577 l 1,7,-1
 392 473 l 1,0,-1
869 473 m 1,8,-1
 702 906 l 1,9,-1
 824 970 l 1,10,-1
 1120 577 l 1,11,-1
 1073 423 l 1,12,-1
 552 30 l 1,13,-1
 468 138 l 1,14,-1
 901 577 l 1,15,-1
 869 473 l 1,8,-1
EndSplineSet
Substitution2: "'case' Case-Sensitive Forms in Latin lookup 9 subtable" guillemotright.case
EndChar

StartChar: slash
Encoding: 47 47 505
Width: 880
GlyphClass: 1
Flags: W
LayerCount: 2
Fore
SplineSet
-76 0 m 1,0,-1
 895 1396 l 1,1,-1
 1081 1396 l 1,2,-1
 110 0 l 1,3,-1
 -76 0 l 1,0,-1
EndSplineSet
EndChar

StartChar: backslash
Encoding: 92 92 506
Width: 835
GlyphClass: 1
Flags: W
LayerCount: 2
Fore
SplineSet
629 0 m 1,0,-1
 469 0 l 1,1,-1
 328 1396 l 1,2,-1
 488 1396 l 1,3,-1
 629 0 l 1,0,-1
EndSplineSet
EndChar

StartChar: bar
Encoding: 124 124 507
Width: 574
GlyphClass: 1
Flags: W
LayerCount: 2
Fore
SplineSet
-87 -481 m 1,0,-1
 509 1519 l 1,1,-1
 676 1519 l 1,2,-1
 79 -481 l 1,3,-1
 -87 -481 l 1,0,-1
EndSplineSet
EndChar

StartChar: brokenbar
Encoding: 166 166 508
Width: 574
GlyphClass: 1
Flags: W
LayerCount: 2
Fore
SplineSet
442 732 m 1,0,-1
 275 732 l 1,1,-1
 509 1519 l 1,2,-1
 676 1519 l 1,3,-1
 442 732 l 1,0,-1
-87 -481 m 1,4,-1
 151 315 l 1,5,-1
 317 315 l 1,6,-1
 79 -481 l 1,7,-1
 -87 -481 l 1,4,-1
EndSplineSet
EndChar

StartChar: endash
Encoding: 8211 8211 509
Width: 1026
GlyphClass: 1
Flags: W
LayerCount: 2
Fore
SplineSet
143 571 m 1,0,-1
 929 571 l 1,1,-1
 886 432 l 1,2,-1
 100 432 l 1,3,-1
 143 571 l 1,0,-1
EndSplineSet
Substitution2: "'case' Case-Sensitive Forms in Latin lookup 9 subtable" endash.case
EndChar

